<svg width="280" height="190" viewBox="0 0 280 190" fill="none" xmlns="http://www.w3.org/2000/svg">
<g clip-path="url(#clip0_1_78)">
<g filter="url(#filter0_di_1_78)">
<mask id="mask0_1_78" style="mask-type:luminance" maskUnits="userSpaceOnUse" x="0" y="-1" width="281" height="191">
<path d="M258.249 -0.250793H22.2493C10.099 -0.250793 0.249298 9.59894 0.249298 21.7492V167.749C0.249298 179.899 10.099 189.749 22.2493 189.749H258.249C270.4 189.749 280.249 179.899 280.249 167.749V21.7492C280.249 9.59894 270.4 -0.250793 258.249 -0.250793Z" fill="white"/>
</mask>
<g mask="url(#mask0_1_78)">
<path d="M280.249 -0.250793H0.249298V189.749H280.249V-0.250793Z" fill="white"/>
<path d="M280.249 -0.250793H0.249298V189.749H280.249V-0.250793Z" fill="#FF0000"/>
<path d="M112.249 -0.250793H0.249298V189.749H112.249V-0.250793Z" fill="#006600"/>
<path fill-rule="evenodd" clip-rule="evenodd" d="M148.761 124.218C134.663 123.786 70.0156 82.7126 69.5723 76.1718L73.1421 70.1122C79.5545 79.5961 145.643 119.541 152.135 118.125L148.761 124.216" fill="#FFFF00"/>
<path d="M148.761 124.218C134.663 123.786 70.0156 82.7126 69.5723 76.1718L73.1421 70.1122C79.5545 79.5961 145.643 119.541 152.135 118.125L148.761 124.216" stroke="#000008" stroke-width="0.211055" stroke-linecap="round" stroke-linejoin="round"/>
<path fill-rule="evenodd" clip-rule="evenodd" d="M72.3911 69.2891C71.1263 72.7536 89.261 84.1651 111.079 97.672C132.897 111.178 151.709 119.525 153.104 118.328C153.189 118.173 153.79 117.121 153.735 117.13C153.473 117.53 152.837 117.657 151.845 117.366C145.95 115.635 130.576 108.452 111.537 96.7C92.498 84.9476 75.9328 74.1171 73.3582 69.5153C73.1792 69.1965 73.0516 68.6146 73.0775 68.1621L73.0149 68.1612L72.4668 69.1365L72.3911 69.2891ZM149.092 124.408C148.853 124.85 148.408 124.864 147.561 124.77C142.288 124.176 126.286 116.255 107.352 104.718C85.3207 91.2949 67.1254 79.0637 69.0994 75.8669L69.6365 74.9005L69.7422 74.934C67.9672 80.3514 105.651 102.284 107.87 103.682C129.674 117.432 148.057 125.461 149.684 123.375L149.092 124.411V124.408Z" fill="#FFFF00" stroke="#000008" stroke-width="0.211055" stroke-linecap="round" stroke-linejoin="round"/>
<path fill-rule="evenodd" clip-rule="evenodd" d="M112.328 80.1335C126.439 80.02 143.851 78.1709 153.872 74.1058L151.713 70.5353C145.79 73.872 128.282 76.0662 112.209 76.3944C93.199 76.2164 79.7801 74.4146 73.0568 69.8228L71.0188 73.6249C83.378 78.9482 96.043 80.0784 112.328 80.1335Z" fill="#FFFF00" stroke="#000008" stroke-width="0.211055" stroke-linecap="round" stroke-linejoin="round"/>
<path fill-rule="evenodd" clip-rule="evenodd" d="M154.454 74.1864C154.109 74.7478 147.574 77.0418 137.947 78.7347C131.419 79.7476 122.904 80.6136 112.278 80.6241C102.183 80.6337 93.936 79.9022 87.6922 79.0409C77.5861 77.4281 72.3702 75.1839 70.4419 74.3909C70.6263 74.0176 70.7448 73.7558 70.9226 73.4072C76.4736 75.6568 81.7138 77.0133 87.8528 77.9747C94.055 78.8297 102.203 79.5717 112.248 79.5621C122.825 79.5512 131.246 78.6195 137.736 77.6367C147.608 76.0159 153.001 73.9301 153.758 72.9615L154.455 74.1864H154.454ZM152.559 70.5657C151.489 71.4404 146.157 73.365 136.777 74.8898C130.517 75.803 122.557 76.6204 112.387 76.6304C102.725 76.6401 94.831 75.9773 88.827 75.0871C79.3005 73.8207 74.2302 71.5363 72.4022 70.8703C72.5841 70.5502 72.7693 70.2327 72.9595 69.9139C74.3818 70.6428 79.2749 72.6645 88.932 74.057C94.868 74.9137 102.773 75.5521 112.387 75.5421C122.509 75.5316 130.379 74.6984 136.599 73.7901C146.028 72.4697 151.102 70.0152 151.872 69.4007L152.56 70.5648L152.559 70.5657Z" fill="#FFFF00" stroke="#000008" stroke-width="0.211055" stroke-linecap="round" stroke-linejoin="round"/>
<path fill-rule="evenodd" clip-rule="evenodd" d="M65.9926 97.437C74.6717 102.189 93.948 104.583 112.19 104.748C128.799 104.775 150.437 102.135 158.528 97.77L158.306 93.0148C155.774 97.041 132.586 100.904 112.01 100.746C91.433 100.588 72.3252 97.353 65.9557 93.1653L65.9927 97.436" fill="#FFFF00"/>
<path d="M65.9926 97.437C74.6717 102.189 93.948 104.583 112.19 104.748C128.799 104.775 150.437 102.135 158.528 97.77L158.306 93.0148C155.774 97.041 132.586 100.904 112.01 100.746C91.433 100.588 72.3252 97.353 65.9557 93.1653L65.9927 97.436" stroke="#000008" stroke-width="0.211055" stroke-linecap="round" stroke-linejoin="round"/>
<path fill-rule="evenodd" clip-rule="evenodd" d="M158.971 96.754L158.972 97.888C157.755 99.368 150.13 101.605 140.568 103.18C133.29 104.316 123.802 105.173 111.979 105.173C100.747 105.173 91.789 104.357 84.843 103.272C73.8628 101.644 66.8395 98.794 65.4297 97.944L65.4358 96.621C69.6708 99.487 81.1443 101.583 84.9971 102.225C91.898 103.303 100.802 104.112 111.978 104.112C123.746 104.112 133.181 103.261 140.413 102.133C147.273 101.124 157.047 98.501 158.971 96.754ZM158.976 92.7199V93.854C157.76 95.3332 150.135 97.57 140.572 99.145C133.295 100.281 123.806 101.138 111.983 101.138C100.751 101.138 91.794 100.323 84.8477 99.237C73.8675 97.61 66.8442 94.7605 65.4344 93.9096L65.4405 92.5866C69.6754 95.452 81.149 97.549 85.0018 98.19C91.903 99.269 100.807 100.078 111.983 100.078C123.751 100.078 133.186 99.227 140.418 98.098C147.278 97.089 157.051 94.4659 158.975 92.719L158.976 92.7199Z" fill="#FFFF00" stroke="#000008" stroke-width="0.211055" stroke-linecap="round" stroke-linejoin="round"/>
<path fill-rule="evenodd" clip-rule="evenodd" d="M112.151 123.401C92.191 123.28 75.0879 117.863 71.4763 116.968L74.1099 121.164C80.4892 123.896 97.174 127.966 112.342 127.516C127.511 127.065 140.767 125.869 150.109 121.24L152.809 116.891C146.443 119.943 124.778 123.37 112.151 123.401Z" fill="#FFFF00" stroke="#000008" stroke-width="0.211055" stroke-linecap="round" stroke-linejoin="round"/>
<path fill-rule="evenodd" clip-rule="evenodd" d="M151.122 120.266C150.725 120.883 150.32 121.493 149.91 122.085C145.504 123.667 138.561 125.327 135.631 125.811C129.647 127.066 120.388 127.993 112.17 127.998C94.488 127.734 80.0145 124.211 73.2054 121.206L72.6559 120.244L72.7457 120.1L73.6774 120.467C85.7865 124.877 99.387 126.636 112.27 126.952C120.454 126.981 128.647 125.997 135.273 124.791C145.433 122.719 149.541 121.158 150.801 120.45L151.122 120.266ZM153.463 116.336C153.473 116.348 153.484 116.359 153.493 116.372C153.197 116.882 152.891 117.401 152.578 117.922C150.228 118.777 143.85 120.676 134.537 122.002C128.401 122.853 124.587 123.677 112.38 123.918C89.506 123.326 74.6966 118.773 71.1784 117.65L70.657 116.633C83.9131 120.155 97.454 122.614 112.381 122.865C123.549 122.623 128.3 121.786 134.385 120.941C145.245 119.222 150.716 117.403 152.359 116.877C152.338 116.847 152.314 116.815 152.287 116.783L153.464 116.335L153.463 116.336Z" fill="#FFFF00" stroke="#000008" stroke-width="0.202583" stroke-linecap="round" stroke-linejoin="round"/>
<path fill-rule="evenodd" clip-rule="evenodd" d="M153.703 93.6851C153.768 107.05 147.048 119.043 141.636 124.334C133.979 131.82 123.826 136.635 111.97 136.857C98.731 137.104 86.2476 128.319 82.8993 124.46C76.3529 116.915 71.0231 107.333 70.8523 94.4195C71.6632 79.8327 77.289 69.672 85.444 62.7042C93.599 55.7364 104.457 52.343 113.5 52.5857C123.934 52.866 136.122 58.0758 144.544 68.4184C150.061 75.1948 152.45 82.5487 153.703 93.6851ZM112.083 47.9227C137.509 47.9227 158.421 68.9832 158.421 94.8066C158.421 120.629 137.509 141.691 112.083 141.691C86.6564 141.691 65.9182 120.63 65.9182 94.8066C65.9182 68.9832 86.6564 47.9227 112.083 47.9227Z" fill="#FFFF00" stroke="#000008" stroke-width="0.211055" stroke-linecap="round" stroke-linejoin="round"/>
<path fill-rule="evenodd" clip-rule="evenodd" d="M112.206 47.7622C137.656 47.7622 158.411 68.8916 158.411 94.7976C158.411 120.703 137.655 141.832 112.206 141.832C86.7572 141.832 66.0012 120.704 66.0012 94.7976C66.0012 68.8916 86.7576 47.7622 112.206 47.7622ZM67.0181 94.7978C67.0181 120.096 87.4282 140.798 112.206 140.798C136.985 140.798 157.395 120.096 157.395 94.7978C157.395 69.4984 136.984 48.7969 112.206 48.7969C87.4282 48.7969 67.0181 69.4993 67.0181 94.7978Z" fill="#FFFF00" stroke="#000008" stroke-width="0.211055" stroke-linecap="round" stroke-linejoin="round"/>
<path fill-rule="evenodd" clip-rule="evenodd" d="M112.244 51.6712C135.452 51.6712 154.567 71.0612 154.567 94.7556C154.567 118.451 135.451 137.84 112.244 137.84C89.037 137.84 69.9205 118.451 69.9205 94.7556C69.9205 71.0612 89.037 51.6712 112.244 51.6712ZM70.9369 94.7553C70.9369 117.881 89.594 136.804 112.244 136.804C134.894 136.804 153.551 117.881 153.551 94.7553C153.551 71.6295 134.895 52.7059 112.244 52.7059C89.594 52.7059 70.9369 71.6295 70.9369 94.7553Z" fill="#FFFF00" stroke="#000008" stroke-width="0.211055" stroke-linecap="round" stroke-linejoin="round"/>
<path fill-rule="evenodd" clip-rule="evenodd" d="M114.106 47.572H110.146L110.151 142.078H114.124L114.106 47.572Z" fill="#FFFF00" stroke="#000008" stroke-width="0.211055" stroke-linecap="round" stroke-linejoin="round"/>
<path fill-rule="evenodd" clip-rule="evenodd" d="M113.709 47.0334H114.717L114.726 142.627H113.717L113.709 47.0334ZM109.779 47.0343H110.795L110.797 142.628H109.78L109.779 47.0343Z" fill="#FFFF00" stroke="#000008" stroke-width="0.211055" stroke-linecap="round" stroke-linejoin="round"/>
<path fill-rule="evenodd" clip-rule="evenodd" d="M158.444 96.618V93.1242L155.648 90.4737L139.782 86.1987L116.915 83.8237L89.382 85.2487L69.7817 89.9987L65.8243 92.9817V96.476L75.8483 91.8988L99.648 88.0988H122.515L139.315 89.9988L150.982 92.8488L158.444 96.618Z" fill="#FFFF00" stroke="#000008" stroke-width="0.211055" stroke-linecap="round" stroke-linejoin="round"/>
<path fill-rule="evenodd" clip-rule="evenodd" d="M112.225 87.515C123.137 87.4944 133.725 88.5673 142.122 90.2317C150.788 91.9949 156.886 94.2006 158.971 96.678L158.969 97.905C156.454 94.8217 148.248 92.5617 141.927 91.2697C133.593 89.6195 123.077 88.5542 112.225 88.5747C100.774 88.5965 90.111 89.7004 81.8994 91.3313C75.3101 92.6622 66.5223 95.306 65.4252 97.914V96.637C66.0277 94.8314 72.5712 92.1339 81.751 90.2635C90.025 88.6213 100.707 87.5363 112.225 87.515ZM112.23 83.4812C123.142 83.4611 133.729 84.5343 142.127 86.1979C150.792 87.962 156.891 90.1668 158.976 92.6441L158.974 93.8707C156.459 90.7887 148.253 88.5284 141.932 87.2369C133.598 85.5859 123.082 84.5206 112.23 84.5419C100.779 84.5628 90.168 85.6676 81.955 87.2976C75.5962 88.5246 66.4495 91.2731 65.4294 93.8811V92.6029C66.0319 90.8175 72.708 88.0233 81.7557 86.2299C90.029 84.5877 100.712 83.5034 112.23 83.4812Z" fill="#FFFF00" stroke="#000008" stroke-width="0.211055" stroke-linecap="round" stroke-linejoin="round"/>
<path fill-rule="evenodd" clip-rule="evenodd" d="M112.006 62.905C129.202 62.8174 144.201 65.3523 151.063 68.9304L153.567 73.3379C147.602 70.0661 131.42 66.6642 112.031 67.1729C96.232 67.2717 79.3516 68.9432 70.8821 73.5426L73.8704 68.4558C80.8214 64.7869 97.214 62.9244 112.006 62.905Z" fill="#FFFF00"/>
<path d="M151.063 68.9304C144.201 65.3523 129.202 62.8174 112.006 62.905C97.214 62.9244 80.8214 64.7869 73.8704 68.4558L70.8821 73.5426C79.3516 68.9432 96.232 67.2717 112.031 67.1729C131.42 66.6642 147.602 70.0661 153.567 73.3379L151.063 68.9304Z" stroke="#000008" stroke-width="0.211055" stroke-linecap="round" stroke-linejoin="round"/>
<path fill-rule="evenodd" clip-rule="evenodd" d="M112.235 66.5436C122.043 66.5172 131.52 67.0802 139.057 68.4643C146.076 69.794 152.77 71.7898 153.727 72.863L154.469 74.1977C152.141 72.6507 146.349 70.928 138.911 69.4924C131.441 68.0634 121.971 67.5901 112.218 67.616C101.147 67.5775 92.547 68.1724 85.1654 69.4824C77.359 70.9691 71.9429 73.0931 70.6068 74.1023L71.334 72.6913C73.9301 71.3432 78.0493 69.7182 84.9714 68.4497C92.605 67.0304 101.297 66.6048 112.235 66.5436ZM112.231 62.5135C121.617 62.4884 130.884 63.0208 138.108 64.3426C143.806 65.4716 149.44 67.234 151.503 68.8024L152.589 70.5578C150.744 68.4703 143.799 66.4921 137.668 65.3841C130.499 64.1256 121.617 63.6275 112.23 63.5479C102.38 63.576 93.277 64.1901 86.2128 65.4993C79.4737 66.8046 75.1248 68.35 73.2848 69.5569L74.2392 68.0907C76.7785 66.73 80.8808 65.4804 86.0472 64.4586C93.163 63.1398 102.322 62.5416 112.231 62.5135Z" fill="#FFFF00" stroke="#000008" stroke-width="0.211055" stroke-linecap="round" stroke-linejoin="round"/>
<path fill-rule="evenodd" clip-rule="evenodd" d="M135.185 114.348C126.683 112.732 118.166 112.498 112.217 112.569C83.5603 112.911 74.303 118.558 73.1732 120.268L71.0315 116.714C78.3274 111.332 93.932 108.313 112.372 108.622C121.947 108.781 130.21 109.429 137.161 110.799L135.185 114.348Z" fill="#FFFF00"/>
<path d="M112.217 112.569C118.166 112.498 126.683 112.732 135.185 114.348L137.161 110.799C130.21 109.429 121.947 108.781 112.372 108.622C93.932 108.313 78.3274 111.332 71.0315 116.714L73.1732 120.268C74.303 118.558 83.5603 112.911 112.217 112.569Z" stroke="#000008" stroke-width="0.211055" stroke-linecap="round" stroke-linejoin="round"/>
<path fill-rule="evenodd" clip-rule="evenodd" d="M112.053 112.067C120.025 112.189 127.849 112.524 135.402 113.957L134.855 114.94C127.84 113.622 120.362 113.118 112.08 113.159C101.504 113.075 90.807 114.08 81.4943 116.8C78.5558 117.633 73.6912 119.556 73.1951 121.145L72.651 120.231C72.8078 119.292 75.7479 117.343 81.2442 115.771C91.911 112.662 101.889 112.138 112.053 112.067ZM112.415 107.984C120.674 108.141 129.203 108.53 137.493 110.202L136.924 111.225C129.438 109.712 122.285 109.207 112.463 109.054C101.854 109.073 90.6 109.843 80.3671 112.871C77.0635 113.851 71.3618 115.969 71.1719 117.645L70.6278 116.664C70.7517 115.141 75.6874 113.155 80.1282 111.84C90.44 108.789 101.723 108.004 112.415 107.984Z" fill="#FFFF00" stroke="#000008" stroke-width="0.202583" stroke-linecap="round" stroke-linejoin="round"/>
<path fill-rule="evenodd" clip-rule="evenodd" d="M153.119 117.255L149.676 122.693L139.782 113.749L114.115 96.174L85.1822 80.0241L70.1602 74.7944L73.3615 68.7524L74.4488 68.1491L83.7822 70.5241L114.582 86.6741L132.315 98.074L147.249 108.999L153.315 116.124L153.119 117.255Z" fill="#FFFF00" stroke="#000008" stroke-width="0.211055" stroke-linecap="round" stroke-linejoin="round"/>
<path fill-rule="evenodd" clip-rule="evenodd" d="M69.6183 74.9369C72.2531 73.1179 91.616 81.898 111.877 94.333C132.084 106.804 151.393 120.896 149.65 123.533L149.077 124.451L148.814 124.662C148.87 124.621 149.161 124.259 148.786 123.281C147.925 120.398 134.228 109.273 111.502 95.3062C89.347 81.8595 70.8825 73.755 69.0364 76.0716L69.6183 74.9369ZM153.824 117.177C155.49 113.828 137.529 100.056 115.262 86.648C92.483 73.5067 76.0648 65.7713 73.066 68.0779L72.3997 69.3125C72.3939 69.3803 72.424 69.2283 72.5647 69.1177C73.11 68.6334 74.0138 68.6661 74.4217 68.6585C79.5854 68.7373 94.333 75.6453 115.024 87.7193C124.091 93.0939 153.324 112.178 153.213 117.544C153.221 118.005 153.25 118.1 153.08 118.329L153.824 117.177Z" fill="#FFFF00"/>
<path d="M153.824 117.177C155.49 113.828 137.529 100.056 115.262 86.648C92.483 73.5067 76.0648 65.7713 73.066 68.0779L72.3997 69.3125C72.3939 69.3803 72.424 69.2283 72.5647 69.1177C73.11 68.6334 74.0138 68.6661 74.4217 68.6585C79.5854 68.7373 94.333 75.6453 115.024 87.7193C124.091 93.0939 153.324 112.178 153.213 117.544C153.221 118.005 153.25 118.1 153.08 118.329L153.824 117.177ZM69.6183 74.9369C72.2531 73.1179 91.616 81.898 111.877 94.333C132.084 106.804 151.393 120.896 149.65 123.533L149.077 124.451L148.814 124.662C148.87 124.621 149.161 124.259 148.786 123.281C147.925 120.398 134.228 109.273 111.502 95.3062C89.347 81.8595 70.8825 73.755 69.0364 76.0716L69.6183 74.9369Z" stroke="#000008" stroke-width="0.211055" stroke-linecap="round" stroke-linejoin="round"/>
<path d="M84.5296 99.978C84.5296 107.707 87.6389 114.697 92.676 119.805C97.723 124.925 104.582 128.156 112.187 128.156C119.832 128.156 126.769 124.996 131.795 119.896C136.82 114.797 139.935 107.759 139.936 100.003H139.935V62.388L84.5231 62.3209L84.5296 99.978Z" fill="white" stroke="#000008" stroke-width="0.24692"/>
<path d="M85.5656 100.03V100.052C85.5656 107.441 88.572 114.171 93.394 119.056C98.226 123.951 104.88 126.994 112.16 126.994C119.478 126.994 126.119 123.973 130.931 119.097C135.741 114.221 138.723 107.491 138.724 100.076L138.723 63.5835L85.5973 63.5747L85.5656 100.03ZM128.042 74.5002L128.044 97.723L128.024 100.18C128.024 100.826 127.986 101.563 127.912 102.191C127.481 105.862 125.822 109.063 123.365 111.552C120.488 114.467 116.518 116.274 112.143 116.274C107.79 116.274 103.911 114.404 101.023 111.477C98.059 108.475 96.342 104.358 96.342 100.102L96.336 74.441L128.041 74.4992L128.042 74.5002Z" fill="#FF0000"/>
<path d="M85.5656 100.052V100.03L85.5973 63.5747L138.723 63.5835L138.724 100.076C138.723 107.491 135.741 114.221 130.931 119.097C126.119 123.973 119.478 126.994 112.16 126.994C104.88 126.994 98.226 123.951 93.394 119.056C88.572 114.171 85.5656 107.441 85.5656 100.052Z" stroke="#000008" stroke-width="0.18687"/>
<path d="M89.007 73.1016C89.07 70.4792 90.898 69.8583 90.911 69.8491C90.925 69.8403 92.886 70.5177 92.879 73.126L89.007 73.1016Z" fill="#FFFF00"/>
<path d="M87.4303 69.9003L87.1122 72.914L89.044 72.9183C89.063 70.4249 90.899 70.0101 90.943 70.0193C90.985 70.0169 92.805 70.5706 92.853 72.9183H94.791L94.441 69.8815L87.4303 69.9003Z" fill="#FFFF00" stroke="#000008" stroke-width="0.184167"/>
<path d="M86.9821 72.9259H94.89C95.057 72.9259 95.193 73.0934 95.193 73.2983C95.193 73.5027 95.057 73.6695 94.89 73.6695H86.9821C86.8154 73.6695 86.6792 73.5027 86.6792 73.2983C86.6792 73.0934 86.8154 72.9259 86.9821 72.9259Z" fill="#FFFF00" stroke="#000008" stroke-width="0.184167"/>
<path d="M89.857 72.9116C89.865 71.3381 90.912 70.8928 90.918 70.8937C90.918 70.8937 92.011 71.3528 92.019 72.9116H89.857Z" fill="#FFFF00" stroke="#000008" stroke-width="0.184167"/>
<path d="M87.1502 68.6462H94.731C94.891 68.6462 95.022 68.7975 95.022 68.981C95.022 69.1649 94.891 69.3157 94.731 69.3157H87.1502C86.9905 69.3157 86.8596 69.1657 86.8596 68.981C86.8596 68.7975 86.9905 68.6462 87.1502 68.6462Z" fill="#FFFF00" stroke="#000008" stroke-width="0.184167"/>
<path d="M87.3088 69.3207H94.56C94.713 69.3207 94.838 69.4711 94.838 69.655C94.838 69.8393 94.713 69.9897 94.56 69.9897H87.3088C87.1561 69.9897 87.031 69.8393 87.031 69.655C87.031 69.4711 87.1561 69.3207 87.3088 69.3207Z" fill="#FFFF00" stroke="#000008" stroke-width="0.184167"/>
<path d="M89.651 64.2904L90.224 64.2914V64.7053H90.641V64.2822L91.228 64.2841V64.7055H91.647V64.2824H92.234L92.233 65.2379C92.233 65.3879 92.114 65.4851 91.977 65.4851H89.918C89.78 65.4851 89.652 65.3724 89.652 65.235L89.651 64.2904Z" fill="#FFFF00" stroke="#000008" stroke-width="0.184167"/>
<path d="M91.807 65.5681L91.937 68.6325L89.929 68.625L90.062 65.5601L91.807 65.5681Z" fill="#FFFF00" stroke="#000008" stroke-width="0.184167"/>
<path d="M89.357 66.9884L89.418 68.6402L87.4932 68.6411L87.5475 66.9885L89.357 66.9884Z" fill="#FFFF00" stroke="#000008" stroke-width="0.184167"/>
<path d="M94.308 66.9884L94.369 68.6402L92.444 68.6411L92.499 66.9885L94.308 66.9884Z" fill="#FFFF00" stroke="#000008" stroke-width="0.184167"/>
<path d="M87.1921 65.7914L87.7518 65.7929V66.2072H88.161V65.7832L88.735 65.7851V66.2074H89.145V65.7835L89.719 65.7844V66.74C89.719 66.8891 89.602 66.9863 89.468 66.9863H87.4537C87.3187 66.9863 87.1932 66.8744 87.1928 66.7366L87.1921 65.7914Z" fill="#FFFF00" stroke="#000008" stroke-width="0.184167"/>
<path d="M92.143 65.7914L92.703 65.7929V66.2072H93.112V65.7832L93.686 65.7851V66.2074H94.096V65.7835L94.67 65.7844V66.74C94.67 66.8891 94.554 66.9863 94.419 66.9863H92.405C92.27 66.9863 92.144 66.8744 92.144 66.7366L92.142 65.7919L92.143 65.7914Z" fill="#FFFF00" stroke="#000008" stroke-width="0.184167"/>
<path d="M90.739 66.5371C90.727 66.2393 91.148 66.2359 91.143 66.5371V67.2669H90.739V66.5371Z" fill="#000008"/>
<path d="M88.251 67.5965C88.25 67.3087 88.642 67.3029 88.637 67.5965V68.1604H88.252L88.251 67.5965Z" fill="#000008"/>
<path d="M93.217 67.5965C93.216 67.3087 93.608 67.3029 93.603 67.5965V68.1604H93.217V67.5965Z" fill="#000008"/>
<path d="M89.007 95.1039C89.07 92.4814 90.898 91.8606 90.911 91.8513C90.925 91.8426 92.886 92.52 92.879 95.1282L89.007 95.1039Z" fill="#FFFF00"/>
<path d="M87.4303 91.9025L87.1122 94.9162L89.044 94.9205C89.063 92.4271 90.899 92.0123 90.943 92.0215C90.985 92.0192 92.805 92.5728 92.853 94.9205H94.791L94.441 91.8837L87.4303 91.9025Z" fill="#FFFF00" stroke="#000008" stroke-width="0.184167"/>
<path d="M86.9821 94.928H94.89C95.057 94.928 95.193 95.0956 95.193 95.3005C95.193 95.505 95.057 95.672 94.89 95.672H86.9821C86.8154 95.672 86.6792 95.505 86.6792 95.3005C86.6792 95.0956 86.8154 94.928 86.9821 94.928Z" fill="#FFFF00" stroke="#000008" stroke-width="0.184167"/>
<path d="M89.857 94.9138C89.865 93.3403 90.912 92.895 90.918 92.8959C90.918 92.8959 92.011 93.355 92.019 94.9138H89.857Z" fill="#FFFF00" stroke="#000008" stroke-width="0.184167"/>
<path d="M87.1502 90.6484H94.731C94.891 90.6484 95.022 90.7997 95.022 90.9832C95.022 91.1671 94.891 91.3179 94.731 91.3179H87.1502C86.9905 91.3179 86.8596 91.1679 86.8596 90.9832C86.8596 90.7997 86.9905 90.6484 87.1502 90.6484Z" fill="#FFFF00" stroke="#000008" stroke-width="0.184167"/>
<path d="M87.3088 91.3229H94.56C94.713 91.3229 94.838 91.4733 94.838 91.6572C94.838 91.8415 94.713 91.9919 94.56 91.9919H87.3088C87.1561 91.9919 87.031 91.8415 87.031 91.6572C87.031 91.4733 87.1561 91.3229 87.3088 91.3229Z" fill="#FFFF00" stroke="#000008" stroke-width="0.184167"/>
<path d="M89.651 86.2926L90.224 86.2936V86.7075H90.641V86.2844L91.228 86.2863V86.7077H91.647V86.2846H92.234L92.233 87.2401C92.233 87.3901 92.114 87.4873 91.977 87.4873H89.918C89.78 87.4873 89.652 87.3746 89.652 87.2372L89.651 86.2926Z" fill="#FFFF00" stroke="#000008" stroke-width="0.184167"/>
<path d="M91.807 87.5703L91.937 90.6347L89.929 90.6272L90.062 87.5623L91.807 87.5703Z" fill="#FFFF00" stroke="#000008" stroke-width="0.184167"/>
<path d="M89.357 88.9905L89.418 90.6424L87.4932 90.6433L87.5475 88.9906L89.357 88.9905Z" fill="#FFFF00" stroke="#000008" stroke-width="0.184167"/>
<path d="M94.308 88.9905L94.369 90.6424L92.444 90.6433L92.499 88.9906L94.308 88.9905Z" fill="#FFFF00" stroke="#000008" stroke-width="0.184167"/>
<path d="M87.1921 87.7937L87.7518 87.7951V88.2094H88.161V87.7855L88.735 87.7874V88.2096H89.145V87.7857L89.719 87.7866V88.7422C89.719 88.8913 89.602 88.9885 89.468 88.9885H87.4537C87.3187 88.9885 87.1932 88.8767 87.1928 88.7388L87.1921 87.7937Z" fill="#FFFF00" stroke="#000008" stroke-width="0.184167"/>
<path d="M92.143 87.7937L92.703 87.7951V88.2094H93.112V87.7855L93.686 87.7874V88.2096H94.096V87.7857L94.67 87.7866V88.7422C94.67 88.8913 94.554 88.9885 94.419 88.9885H92.405C92.27 88.9885 92.144 88.8767 92.144 88.7388L92.142 87.7942L92.143 87.7937Z" fill="#FFFF00" stroke="#000008" stroke-width="0.184167"/>
<path d="M90.739 88.5393C90.727 88.2415 91.148 88.2381 91.143 88.5393V89.2691H90.739V88.5393Z" fill="#000008"/>
<path d="M88.251 89.5987C88.25 89.3109 88.642 89.3051 88.637 89.5987V90.1626H88.252L88.251 89.5987Z" fill="#000008"/>
<path d="M93.217 89.5987C93.216 89.3109 93.608 89.3051 93.603 89.5987V90.1626H93.217V89.5987Z" fill="#000008"/>
<path d="M97.434 118.006C95.65 116.113 96.506 114.355 96.509 114.339C96.512 114.323 98.366 113.384 100.18 115.226L97.434 118.006Z" fill="#FFFF00"/>
<path d="M94.091 116.889L95.968 119.242L97.332 117.85C95.607 116.079 96.611 114.461 96.649 114.436C96.677 114.404 98.345 113.48 100.016 115.099L101.381 113.7L99.017 111.813L94.09 116.888L94.091 116.889Z" fill="#FFFF00" stroke="#000008" stroke-width="0.184167"/>
<path d="M95.884 119.345L101.456 113.633C101.574 113.513 101.787 113.533 101.929 113.677C102.072 113.821 102.092 114.037 101.975 114.157L96.403 119.869C96.285 119.989 96.073 119.97 95.93 119.826C95.788 119.682 95.767 119.465 95.884 119.345Z" fill="#FFFF00" stroke="#000008" stroke-width="0.184167"/>
<path d="M97.9 117.258C96.809 116.143 97.236 115.073 97.24 115.07C97.24 115.07 98.331 114.604 99.424 115.696L97.9 117.258Z" fill="#FFFF00" stroke="#000008" stroke-width="0.184167"/>
<path d="M93.019 116.208L98.361 110.732C98.473 110.617 98.671 110.629 98.799 110.758C98.927 110.888 98.94 111.089 98.827 111.204L93.486 116.68C93.373 116.795 93.177 116.784 93.048 116.654C92.92 116.524 92.907 116.323 93.019 116.208Z" fill="#FFFF00" stroke="#000008" stroke-width="0.184167"/>
<path d="M93.602 116.569L98.711 111.332C98.818 111.221 99.011 111.237 99.14 111.367C99.268 111.496 99.285 111.693 99.177 111.803L94.068 117.04C93.96 117.15 93.767 117.135 93.639 117.005C93.511 116.875 93.494 116.679 93.602 116.569Z" fill="#FFFF00" stroke="#000008" stroke-width="0.184167"/>
<path d="M91.745 111.332L92.149 110.919L92.438 111.211L92.732 110.909L92.437 110.611L92.851 110.189L93.145 110.486L93.44 110.183L93.146 109.885L93.559 109.461L94.225 110.135C94.329 110.241 94.313 110.395 94.217 110.494L92.766 111.981C92.669 112.081 92.5 112.094 92.404 111.997L91.745 111.332Z" fill="#FFFF00" stroke="#000008" stroke-width="0.184167"/>
<path d="M94.155 110.675L96.383 112.741L94.963 114.186L92.92 111.931L94.155 110.675Z" fill="#FFFF00" stroke="#000008" stroke-width="0.184167"/>
<path d="M93.419 113.446L94.613 114.565L93.258 115.957L92.144 114.753L93.419 113.446Z" fill="#FFFF00" stroke="#000008" stroke-width="0.184167"/>
<path d="M96.908 109.87L98.102 110.989L96.747 112.381L95.633 111.177L96.908 109.87Z" fill="#FFFF00" stroke="#000008" stroke-width="0.184167"/>
<path d="M91.059 114.166L91.454 113.763L91.743 114.055L92.031 113.759L91.736 113.461L92.141 113.048L92.436 113.345L92.725 113.049L92.429 112.75L92.835 112.336L93.5 113.01C93.604 113.115 93.59 113.267 93.496 113.364L92.076 114.819C91.981 114.917 91.815 114.929 91.718 114.832L91.059 114.166Z" fill="#FFFF00" stroke="#000008" stroke-width="0.184167"/>
<path d="M94.547 110.59L94.942 110.187L95.231 110.479L95.52 110.183L95.224 109.885L95.63 109.472L95.924 109.769L96.213 109.473L95.918 109.174L96.323 108.76L96.988 109.434C97.092 109.539 97.078 109.691 96.984 109.788L95.564 111.243C95.469 111.341 95.303 111.353 95.206 111.256L94.547 110.591V110.59Z" fill="#FFFF00" stroke="#000008" stroke-width="0.184167"/>
<path d="M94.078 112.13C93.861 111.929 94.156 111.622 94.363 111.838L94.872 112.353L94.587 112.645L94.078 112.13Z" fill="#000008"/>
<path d="M93.064 114.673C92.862 114.471 93.135 114.184 93.336 114.394L93.73 114.792L93.458 115.071L93.064 114.673Z" fill="#000008"/>
<path d="M96.562 111.086C96.36 110.884 96.633 110.597 96.834 110.808L97.228 111.205L96.956 111.484L96.562 111.086Z" fill="#000008"/>
<path d="M110.338 73.1021C110.401 70.4796 112.229 69.8588 112.242 69.8496C112.256 69.8408 114.217 70.5182 114.21 73.1264L110.338 73.1021Z" fill="#FFFF00"/>
<path d="M108.761 69.9007L108.443 72.9145L110.376 72.9187C110.394 70.4253 112.23 70.0105 112.274 70.0198C112.316 70.0174 114.136 70.571 114.184 72.9187H116.122L115.772 69.882L108.762 69.9L108.761 69.9007Z" fill="#FFFF00" stroke="#000008" stroke-width="0.184167"/>
<path d="M108.313 72.9263H116.221C116.388 72.9263 116.524 73.0939 116.524 73.2988C116.524 73.5032 116.388 73.6699 116.221 73.6699H108.313C108.146 73.6699 108.01 73.5032 108.01 73.2988C108.01 73.0939 108.146 72.9263 108.313 72.9263Z" fill="#FFFF00" stroke="#000008" stroke-width="0.184167"/>
<path d="M111.188 72.9121C111.196 71.3386 112.243 70.8933 112.249 70.8941C112.249 70.8941 113.342 71.3533 113.35 72.9121H111.188Z" fill="#FFFF00" stroke="#000008" stroke-width="0.184167"/>
<path d="M108.481 68.6467H116.062C116.222 68.6467 116.353 68.7979 116.353 68.9814C116.353 69.1653 116.222 69.3161 116.062 69.3161H108.481C108.322 69.3161 108.191 69.1662 108.191 68.9814C108.191 68.7979 108.322 68.6467 108.481 68.6467Z" fill="#FFFF00" stroke="#000008" stroke-width="0.184167"/>
<path d="M108.64 69.3211H115.891C116.044 69.3211 116.169 69.4715 116.169 69.6554C116.169 69.8398 116.044 69.9902 115.891 69.9902H108.64C108.487 69.9902 108.362 69.8398 108.362 69.6554C108.362 69.4715 108.487 69.3211 108.64 69.3211Z" fill="#FFFF00" stroke="#000008" stroke-width="0.184167"/>
<path d="M110.982 64.2909L111.555 64.2918V64.7057H111.972V64.2826L112.559 64.2845V64.706H112.978V64.2828H113.565L113.564 65.2384C113.564 65.3884 113.445 65.4856 113.308 65.4856H111.249C111.111 65.4856 110.983 65.3729 110.983 65.2355L110.982 64.2909Z" fill="#FFFF00" stroke="#000008" stroke-width="0.184167"/>
<path d="M113.138 65.5686L113.268 68.633L111.26 68.6254L111.393 65.5606L113.138 65.5686Z" fill="#FFFF00" stroke="#000008" stroke-width="0.184167"/>
<path d="M110.688 66.9888L110.749 68.6406L108.824 68.6416L108.879 66.9889L110.688 66.9888Z" fill="#FFFF00" stroke="#000008" stroke-width="0.184167"/>
<path d="M115.639 66.9888L115.701 68.6406L113.775 68.6416L113.83 66.9889L115.639 66.9888Z" fill="#FFFF00" stroke="#000008" stroke-width="0.184167"/>
<path d="M108.523 65.7919L109.083 65.7933V66.2076H109.492V65.7837L110.066 65.7856V66.2079H110.476V65.7839L111.051 65.7849L111.05 66.7404C111.05 66.8896 110.934 66.9868 110.799 66.9868H108.785C108.65 66.9868 108.524 66.8749 108.524 66.7371L108.522 65.7924L108.523 65.7919Z" fill="#FFFF00" stroke="#000008" stroke-width="0.184167"/>
<path d="M113.474 65.7919L114.034 65.7933V66.2076H114.443V65.7837L115.017 65.7856V66.2079H115.427V65.7839L116.002 65.7849L116.001 66.7404C116.001 66.8896 115.885 66.9868 115.75 66.9868H113.736C113.601 66.9868 113.475 66.8749 113.475 66.7371L113.474 65.7919Z" fill="#FFFF00" stroke="#000008" stroke-width="0.184167"/>
<path d="M112.07 66.5376C112.058 66.2398 112.479 66.2364 112.474 66.5376V67.2674H112.07V66.5376Z" fill="#000008"/>
<path d="M109.583 67.597C109.581 67.3092 109.973 67.3033 109.968 67.597V68.1609H109.583V67.597Z" fill="#000008"/>
<path d="M114.548 67.597C114.547 67.3092 114.939 67.3033 114.934 67.597V68.1609H114.548V67.597Z" fill="#000008"/>
<path d="M135.398 73.1016C135.335 70.4792 133.507 69.8583 133.494 69.8491C133.481 69.8403 131.519 70.5177 131.526 73.126L135.398 73.1016Z" fill="#FFFF00"/>
<path d="M136.975 69.9003L137.293 72.914L135.361 72.9183C135.342 70.4249 133.506 70.0101 133.462 70.0193C133.42 70.0169 131.601 70.5706 131.552 72.9183H129.615L129.965 69.8815L136.975 69.9003Z" fill="#FFFF00" stroke="#000008" stroke-width="0.184167"/>
<path d="M137.423 72.9259H129.515C129.348 72.9259 129.212 73.0934 129.212 73.2983C129.212 73.5027 129.348 73.6695 129.515 73.6695H137.423C137.59 73.6695 137.726 73.5027 137.726 73.2983C137.726 73.0934 137.59 72.9259 137.423 72.9259Z" fill="#FFFF00" stroke="#000008" stroke-width="0.184167"/>
<path d="M134.549 72.9116C134.54 71.3381 133.493 70.8928 133.488 70.8937C133.488 70.8937 132.395 71.3528 132.386 72.9116H134.549Z" fill="#FFFF00" stroke="#000008" stroke-width="0.184167"/>
<path d="M137.255 68.6462H129.674C129.515 68.6462 129.384 68.7975 129.384 68.981C129.384 69.1649 129.515 69.3157 129.674 69.3157H137.255C137.415 69.3157 137.546 69.1657 137.546 68.981C137.546 68.7975 137.415 68.6462 137.255 68.6462Z" fill="#FFFF00" stroke="#000008" stroke-width="0.184167"/>
<path d="M137.097 69.3207H129.846C129.693 69.3207 129.568 69.4711 129.568 69.655C129.568 69.8393 129.693 69.9897 129.846 69.9897H137.097C137.249 69.9897 137.374 69.8393 137.374 69.655C137.374 69.4711 137.249 69.3207 137.097 69.3207Z" fill="#FFFF00" stroke="#000008" stroke-width="0.184167"/>
<path d="M134.754 64.2904L134.182 64.2914V64.7053H133.764V64.2822L133.178 64.2841V64.7055H132.759V64.2824H132.172L132.173 65.2379C132.173 65.3879 132.291 65.4851 132.429 65.4851H134.487C134.625 65.4851 134.753 65.3724 134.753 65.235L134.755 64.2908L134.754 64.2904Z" fill="#FFFF00" stroke="#000008" stroke-width="0.184167"/>
<path d="M132.598 65.5681L132.469 68.6325L134.477 68.625L134.344 65.5601L132.598 65.5681Z" fill="#FFFF00" stroke="#000008" stroke-width="0.184167"/>
<path d="M135.048 66.9884L134.987 68.6402L136.912 68.6411L136.858 66.9885L135.048 66.9884Z" fill="#FFFF00" stroke="#000008" stroke-width="0.184167"/>
<path d="M130.097 66.9884L130.036 68.6402L131.961 68.6411L131.907 66.9885L130.097 66.9884Z" fill="#FFFF00" stroke="#000008" stroke-width="0.184167"/>
<path d="M137.213 65.7914L136.654 65.7929V66.2072H136.244V65.7832L135.67 65.7851V66.2074H135.26V65.7835L134.686 65.7844L134.687 66.74C134.687 66.8891 134.803 66.9863 134.937 66.9863H136.952C137.087 66.9863 137.212 66.8744 137.213 66.7366L137.214 65.7919L137.213 65.7914Z" fill="#FFFF00" stroke="#000008" stroke-width="0.184167"/>
<path d="M132.262 65.7914L131.703 65.7929V66.2072H131.293V65.7832L130.719 65.7851V66.2074H130.309V65.7835L129.735 65.7844L129.736 66.74C129.736 66.8891 129.852 66.9863 129.986 66.9863H132.001C132.136 66.9863 132.261 66.8744 132.262 66.7366L132.263 65.7919L132.262 65.7914Z" fill="#FFFF00" stroke="#000008" stroke-width="0.184167"/>
<path d="M133.666 66.5371C133.679 66.2393 133.257 66.2359 133.262 66.5371V67.2669H133.666V66.5371Z" fill="#000008"/>
<path d="M136.154 67.5965C136.155 67.3087 135.763 67.3029 135.768 67.5965V68.1604H136.154V67.5965Z" fill="#000008"/>
<path d="M131.188 67.5965C131.19 67.3087 130.798 67.3029 130.803 67.5965V68.1604H131.188V67.5965Z" fill="#000008"/>
<path d="M135.398 95.1039C135.335 92.4814 133.507 91.8606 133.494 91.8513C133.481 91.8426 131.519 92.52 131.526 95.1282L135.398 95.1039Z" fill="#FFFF00"/>
<path d="M136.975 91.9025L137.293 94.9162L135.361 94.9205C135.343 92.4271 133.507 92.0123 133.462 92.0215C133.421 92.0192 131.601 92.5728 131.552 94.9205H129.615L129.965 91.8837L136.975 91.9025Z" fill="#FFFF00" stroke="#000008" stroke-width="0.184167"/>
<path d="M137.423 94.9281H129.515C129.348 94.9281 129.212 95.0957 129.212 95.3005C129.212 95.505 129.348 95.672 129.515 95.672H137.423C137.59 95.672 137.726 95.505 137.726 95.3005C137.726 95.0957 137.59 94.9281 137.423 94.9281Z" fill="#FFFF00" stroke="#000008" stroke-width="0.184167"/>
<path d="M134.549 94.9138C134.54 93.3403 133.493 92.895 133.488 92.8959C133.488 92.8959 132.395 93.355 132.386 94.9138H134.549Z" fill="#FFFF00" stroke="#000008" stroke-width="0.184167"/>
<path d="M137.255 90.6484H129.674C129.515 90.6484 129.384 90.7997 129.384 90.9832C129.384 91.1671 129.515 91.3179 129.674 91.3179H137.255C137.415 91.3179 137.546 91.1679 137.546 90.9832C137.546 90.7997 137.415 90.6484 137.255 90.6484Z" fill="#FFFF00" stroke="#000008" stroke-width="0.184167"/>
<path d="M137.097 91.3229H129.846C129.693 91.3229 129.568 91.4733 129.568 91.6572C129.568 91.8415 129.693 91.9919 129.846 91.9919H137.097C137.249 91.9919 137.374 91.8415 137.374 91.6572C137.374 91.4733 137.249 91.3229 137.097 91.3229Z" fill="#FFFF00" stroke="#000008" stroke-width="0.184167"/>
<path d="M134.754 86.2926L134.182 86.2936V86.7075H133.764V86.2844L133.178 86.2863V86.7077H132.759V86.2846H132.172L132.173 87.2401C132.173 87.3901 132.291 87.4873 132.429 87.4873H134.487C134.625 87.4873 134.753 87.3746 134.753 87.2372L134.755 86.293L134.754 86.2926Z" fill="#FFFF00" stroke="#000008" stroke-width="0.184167"/>
<path d="M132.598 87.5703L132.469 90.6347L134.477 90.6272L134.344 87.5623L132.598 87.5703Z" fill="#FFFF00" stroke="#000008" stroke-width="0.184167"/>
<path d="M135.048 88.9906L134.987 90.6424L136.912 90.6434L136.858 88.9907L135.048 88.9906Z" fill="#FFFF00" stroke="#000008" stroke-width="0.184167"/>
<path d="M130.097 88.9906L130.036 90.6424L131.961 90.6434L131.907 88.9907L130.097 88.9906Z" fill="#FFFF00" stroke="#000008" stroke-width="0.184167"/>
<path d="M137.213 87.7937L136.654 87.7951V88.2094H136.244V87.7855L135.67 87.7874V88.2096H135.26V87.7857L134.686 87.7866L134.687 88.7422C134.687 88.8913 134.803 88.9885 134.937 88.9885H136.952C137.087 88.9885 137.212 88.8767 137.213 88.7388L137.214 87.7942L137.213 87.7937Z" fill="#FFFF00" stroke="#000008" stroke-width="0.184167"/>
<path d="M132.262 87.7937L131.703 87.7951V88.2094H131.293V87.7855L130.719 87.7874V88.2096H130.309V87.7857L129.735 87.7866L129.736 88.7422C129.736 88.8913 129.852 88.9885 129.986 88.9885H132.001C132.136 88.9885 132.261 88.8767 132.262 88.7388L132.263 87.7942L132.262 87.7937Z" fill="#FFFF00" stroke="#000008" stroke-width="0.184167"/>
<path d="M133.666 88.5393C133.679 88.2415 133.257 88.2381 133.262 88.5393V89.2691H133.666V88.5393Z" fill="#000008"/>
<path d="M136.154 89.5987C136.155 89.3109 135.763 89.3051 135.768 89.5987V90.1626H136.154V89.5987Z" fill="#000008"/>
<path d="M131.188 89.5987C131.19 89.3109 130.798 89.3051 130.803 89.5987V90.1626H131.188V89.5987Z" fill="#000008"/>
<path d="M126.969 118.006C128.753 116.113 127.897 114.355 127.894 114.339C127.891 114.323 126.037 113.384 124.223 115.226L126.969 118.006Z" fill="#FFFF00"/>
<path d="M130.312 116.889L128.435 119.242L127.071 117.85C128.796 116.079 127.792 114.461 127.754 114.436C127.726 114.404 126.058 113.48 124.387 115.099L123.022 113.7L125.386 111.813L130.313 116.888L130.312 116.889Z" fill="#FFFF00" stroke="#000008" stroke-width="0.184167"/>
<path d="M128.519 119.345L122.947 113.633C122.829 113.513 122.616 113.533 122.474 113.677C122.331 113.821 122.311 114.037 122.428 114.157L128 119.869C128.118 119.989 128.33 119.97 128.473 119.826C128.615 119.682 128.636 119.465 128.519 119.345Z" fill="#FFFF00" stroke="#000008" stroke-width="0.184167"/>
<path d="M126.503 117.258C127.594 116.143 127.167 115.073 127.162 115.07C127.162 115.07 126.072 114.604 124.979 115.696L126.503 117.258Z" fill="#FFFF00" stroke="#000008" stroke-width="0.184167"/>
<path d="M131.384 116.208L126.042 110.732C125.93 110.617 125.732 110.629 125.604 110.758C125.476 110.888 125.463 111.089 125.576 111.204L130.917 116.68C131.03 116.795 131.226 116.784 131.355 116.654C131.483 116.524 131.496 116.323 131.384 116.208Z" fill="#FFFF00" stroke="#000008" stroke-width="0.184167"/>
<path d="M130.801 116.569L125.692 111.332C125.585 111.221 125.392 111.237 125.263 111.367C125.135 111.496 125.118 111.693 125.226 111.803L130.335 117.04C130.442 117.15 130.635 117.135 130.764 117.005C130.892 116.875 130.909 116.679 130.801 116.569Z" fill="#FFFF00" stroke="#000008" stroke-width="0.184167"/>
<path d="M132.658 111.332L132.254 110.919L131.965 111.211L131.671 110.909L131.966 110.611L131.551 110.189L131.258 110.486L130.962 110.183L131.257 109.885L130.844 109.461L130.178 110.135C130.074 110.241 130.09 110.395 130.186 110.494L131.637 111.981C131.734 112.081 131.903 112.094 131.999 111.997L132.658 111.332Z" fill="#FFFF00" stroke="#000008" stroke-width="0.184167"/>
<path d="M130.248 110.675L128.02 112.741L129.44 114.186L131.483 111.931L130.248 110.675Z" fill="#FFFF00" stroke="#000008" stroke-width="0.184167"/>
<path d="M130.984 113.446L129.79 114.565L131.145 115.957L132.259 114.753L130.984 113.446Z" fill="#FFFF00" stroke="#000008" stroke-width="0.184167"/>
<path d="M127.495 109.87L126.301 110.989L127.656 112.381L128.77 111.177L127.495 109.87Z" fill="#FFFF00" stroke="#000008" stroke-width="0.184167"/>
<path d="M133.344 114.166L132.949 113.763L132.66 114.055L132.371 113.759L132.667 113.461L132.262 113.048L131.967 113.345L131.678 113.049L131.974 112.75L131.568 112.336L130.903 113.01C130.799 113.115 130.813 113.267 130.907 113.364L132.327 114.819C132.422 114.917 132.588 114.929 132.685 114.832L133.344 114.166Z" fill="#FFFF00" stroke="#000008" stroke-width="0.184167"/>
<path d="M129.856 110.59L129.461 110.187L129.172 110.479L128.883 110.183L129.179 109.885L128.773 109.472L128.479 109.769L128.19 109.473L128.485 109.174L128.08 108.76L127.415 109.434C127.311 109.539 127.325 109.691 127.419 109.788L128.839 111.243C128.934 111.341 129.1 111.353 129.197 111.256L129.856 110.591V110.59Z" fill="#FFFF00" stroke="#000008" stroke-width="0.184167"/>
<path d="M130.325 112.13C130.542 111.929 130.247 111.622 130.04 111.838L129.531 112.353L129.816 112.645L130.325 112.13Z" fill="#000008"/>
<path d="M131.339 114.673C131.541 114.471 131.268 114.184 131.067 114.394L130.673 114.792L130.945 115.071L131.339 114.673Z" fill="#000008"/>
<path d="M127.841 111.086C128.043 110.884 127.77 110.597 127.569 110.808L127.175 111.205L127.447 111.484L127.841 111.086Z" fill="#000008"/>
<path d="M108.812 95.891V95.893C108.812 96.944 109.209 97.901 109.844 98.596C110.482 99.293 111.359 99.725 112.319 99.725C113.283 99.725 114.159 99.295 114.793 98.602C115.427 97.909 115.821 96.952 115.821 95.897V90.7827L108.825 90.7769L108.812 95.891Z" fill="#003399"/>
<path d="M110.417 93.428C110.8 93.428 111.11 93.112 111.11 92.7222C111.11 92.3323 110.8 92.0163 110.417 92.0163C110.034 92.0163 109.724 92.3323 109.724 92.7222C109.724 93.112 110.034 93.428 110.417 93.428Z" fill="white"/>
<path d="M114.299 93.4312C114.682 93.4312 114.992 93.1152 114.992 92.7254C114.992 92.3356 114.682 92.0195 114.299 92.0195C113.916 92.0195 113.605 92.3356 113.605 92.7254C113.605 93.1152 113.916 93.4312 114.299 93.4312Z" fill="white"/>
<path d="M112.354 95.328C112.737 95.328 113.047 95.012 113.047 94.6222C113.047 94.2323 112.737 93.9163 112.354 93.9163C111.971 93.9163 111.66 94.2323 111.66 94.6222C111.66 95.012 111.971 95.328 112.354 95.328Z" fill="white"/>
<path d="M110.417 97.314C110.8 97.314 111.11 96.998 111.11 96.608C111.11 96.219 110.8 95.903 110.417 95.903C110.034 95.903 109.724 96.219 109.724 96.608C109.724 96.998 110.034 97.314 110.417 97.314Z" fill="white"/>
<path d="M114.294 97.309C114.677 97.309 114.988 96.993 114.988 96.603C114.988 96.213 114.677 95.897 114.294 95.897C113.911 95.897 113.601 96.213 113.601 96.603C113.601 96.993 113.911 97.309 114.294 97.309Z" fill="white"/>
<path d="M108.812 83.5331V83.5355C108.812 84.5861 109.209 85.5434 109.844 86.2379C110.482 86.9346 111.359 87.3673 112.319 87.3673C113.283 87.3673 114.159 86.9375 114.793 86.2438C115.427 85.5509 115.821 84.5945 115.821 83.5396V78.4248L108.825 78.4189L108.812 83.5331Z" fill="#003399"/>
<path d="M110.417 81.0701C110.8 81.0701 111.11 80.7541 111.11 80.3642C111.11 79.9744 110.8 79.6584 110.417 79.6584C110.034 79.6584 109.724 79.9744 109.724 80.3642C109.724 80.7541 110.034 81.0701 110.417 81.0701Z" fill="white"/>
<path d="M114.299 81.0733C114.682 81.0733 114.992 80.7573 114.992 80.3675C114.992 79.9776 114.682 79.6616 114.299 79.6616C113.916 79.6616 113.605 79.9776 113.605 80.3675C113.605 80.7573 113.916 81.0733 114.299 81.0733Z" fill="white"/>
<path d="M112.354 82.9701C112.737 82.9701 113.047 82.6541 113.047 82.2643C113.047 81.8744 112.737 81.5584 112.354 81.5584C111.971 81.5584 111.66 81.8744 111.66 82.2643C111.66 82.6541 111.971 82.9701 112.354 82.9701Z" fill="white"/>
<path d="M110.417 84.9564C110.8 84.9564 111.11 84.6404 111.11 84.2505C111.11 83.8607 110.8 83.5447 110.417 83.5447C110.034 83.5447 109.724 83.8607 109.724 84.2505C109.724 84.6404 110.034 84.9564 110.417 84.9564Z" fill="white"/>
<path d="M114.294 84.9508C114.677 84.9508 114.988 84.6348 114.988 84.245C114.988 83.8551 114.677 83.5391 114.294 83.5391C113.911 83.5391 113.601 83.8551 113.601 84.245C113.601 84.6348 113.911 84.9508 114.294 84.9508Z" fill="white"/>
<path d="M99.108 95.891V95.893C99.108 96.944 99.504 97.901 100.14 98.596C100.777 99.293 101.654 99.725 102.614 99.725C103.579 99.725 104.455 99.295 105.089 98.602C105.723 97.909 106.116 96.952 106.116 95.897V90.7827L99.12 90.7769L99.108 95.891Z" fill="#003399"/>
<path d="M100.712 93.428C101.095 93.428 101.406 93.112 101.406 92.7222C101.406 92.3323 101.095 92.0163 100.712 92.0163C100.329 92.0163 100.019 92.3323 100.019 92.7222C100.019 93.112 100.329 93.428 100.712 93.428Z" fill="white"/>
<path d="M104.593 93.4312C104.976 93.4312 105.287 93.1152 105.287 92.7254C105.287 92.3356 104.976 92.0195 104.593 92.0195C104.21 92.0195 103.9 92.3356 103.9 92.7254C103.9 93.1152 104.21 93.4312 104.593 93.4312Z" fill="white"/>
<path d="M102.649 95.328C103.032 95.328 103.343 95.012 103.343 94.6222C103.343 94.2323 103.032 93.9163 102.649 93.9163C102.266 93.9163 101.956 94.2323 101.956 94.6222C101.956 95.012 102.266 95.328 102.649 95.328Z" fill="white"/>
<path d="M100.712 97.314C101.095 97.314 101.406 96.998 101.406 96.608C101.406 96.219 101.095 95.903 100.712 95.903C100.329 95.903 100.019 96.219 100.019 96.608C100.019 96.998 100.329 97.314 100.712 97.314Z" fill="white"/>
<path d="M104.59 97.309C104.973 97.309 105.283 96.993 105.283 96.603C105.283 96.213 104.973 95.897 104.59 95.897C104.207 95.897 103.896 96.213 103.896 96.603C103.896 96.993 104.207 97.309 104.59 97.309Z" fill="white"/>
<path d="M118.495 95.891V95.893C118.495 96.944 118.891 97.901 119.527 98.596C120.164 99.293 121.042 99.725 122.001 99.725C122.966 99.725 123.842 99.295 124.476 98.602C125.11 97.909 125.504 96.952 125.504 95.897V90.7827L118.507 90.7769L118.495 95.891Z" fill="#003399"/>
<path d="M120.1 93.428C120.483 93.428 120.793 93.112 120.793 92.7222C120.793 92.3323 120.483 92.0163 120.1 92.0163C119.717 92.0163 119.406 92.3323 119.406 92.7222C119.406 93.112 119.717 93.428 120.1 93.428Z" fill="white"/>
<path d="M123.981 93.4312C124.364 93.4312 124.675 93.1152 124.675 92.7254C124.675 92.3356 124.364 92.0195 123.981 92.0195C123.598 92.0195 123.288 92.3356 123.288 92.7254C123.288 93.1152 123.598 93.4312 123.981 93.4312Z" fill="white"/>
<path d="M122.036 95.328C122.419 95.328 122.73 95.012 122.73 94.6222C122.73 94.2323 122.419 93.9163 122.036 93.9163C121.653 93.9163 121.343 94.2323 121.343 94.6222C121.343 95.012 121.653 95.328 122.036 95.328Z" fill="white"/>
<path d="M120.1 97.314C120.483 97.314 120.793 96.998 120.793 96.608C120.793 96.219 120.483 95.903 120.1 95.903C119.717 95.903 119.406 96.219 119.406 96.608C119.406 96.998 119.717 97.314 120.1 97.314Z" fill="white"/>
<path d="M123.977 97.309C124.36 97.309 124.67 96.993 124.67 96.603C124.67 96.213 124.36 95.897 123.977 95.897C123.594 95.897 123.283 96.213 123.283 96.603C123.283 96.993 123.594 97.309 123.977 97.309Z" fill="white"/>
<path d="M108.812 108.139V108.141C108.812 109.192 109.209 110.149 109.844 110.843C110.482 111.54 111.359 111.973 112.319 111.973C113.283 111.973 114.159 111.543 114.793 110.849C115.427 110.156 115.821 109.2 115.821 108.145V103.03L108.825 103.024L108.812 108.139Z" fill="#003399"/>
<path d="M110.417 105.676C110.8 105.676 111.11 105.36 111.11 104.97C111.11 104.58 110.8 104.264 110.417 104.264C110.034 104.264 109.724 104.58 109.724 104.97C109.724 105.36 110.034 105.676 110.417 105.676Z" fill="white"/>
<path d="M114.299 105.679C114.682 105.679 114.992 105.363 114.992 104.973C114.992 104.583 114.682 104.267 114.299 104.267C113.916 104.267 113.605 104.583 113.605 104.973C113.605 105.363 113.916 105.679 114.299 105.679Z" fill="white"/>
<path d="M112.354 107.576C112.737 107.576 113.047 107.26 113.047 106.87C113.047 106.48 112.737 106.164 112.354 106.164C111.971 106.164 111.66 106.48 111.66 106.87C111.66 107.26 111.971 107.576 112.354 107.576Z" fill="white"/>
<path d="M110.417 109.562C110.8 109.562 111.11 109.246 111.11 108.856C111.11 108.466 110.8 108.15 110.417 108.15C110.034 108.15 109.724 108.466 109.724 108.856C109.724 109.246 110.034 109.562 110.417 109.562Z" fill="white"/>
<path d="M114.294 109.556C114.677 109.556 114.988 109.24 114.988 108.85C114.988 108.461 114.677 108.145 114.294 108.145C113.911 108.145 113.601 108.461 113.601 108.85C113.601 109.24 113.911 109.556 114.294 109.556Z" fill="white"/>
</g>
<path d="M258.249 -0.250793H22.2493C10.099 -0.250793 0.249298 9.59894 0.249298 21.7492V167.749C0.249298 179.899 10.099 189.749 22.2493 189.749H258.249C270.4 189.749 280.249 179.899 280.249 167.749V21.7492C280.249 9.59894 270.4 -0.250793 258.249 -0.250793Z" stroke="#A8B7D4" stroke-width="0.498424" stroke-linejoin="round"/>
</g>
</g>
<defs>
<filter id="filter0_di_1_78" x="-0.999916" y="-1.5" width="282.498" height="199.498" filterUnits="userSpaceOnUse" color-interpolation-filters="sRGB">
<feFlood flood-opacity="0" result="BackgroundImageFix"/>
<feColorMatrix in="SourceAlpha" type="matrix" values="0 0 0 0 0 0 0 0 0 0 0 0 0 0 0 0 0 0 127 0" result="hardAlpha"/>
<feOffset/>
<feGaussianBlur stdDeviation="0.5"/>
<feComposite in2="hardAlpha" operator="out"/>
<feColorMatrix type="matrix" values="0 0 0 0 0.258824 0 0 0 0 0.278431 0 0 0 0 0.298039 0 0 0 0.32 0"/>
<feBlend mode="normal" in2="BackgroundImageFix" result="effect1_dropShadow_1_78"/>
<feBlend mode="normal" in="SourceGraphic" in2="effect1_dropShadow_1_78" result="shape"/>
<feColorMatrix in="SourceAlpha" type="matrix" values="0 0 0 0 0 0 0 0 0 0 0 0 0 0 0 0 0 0 127 0" result="hardAlpha"/>
<feOffset dy="8"/>
<feGaussianBlur stdDeviation="6"/>
<feComposite in2="hardAlpha" operator="arithmetic" k2="-1" k3="1"/>
<feColorMatrix type="matrix" values="0 0 0 0 0.258824 0 0 0 0 0.278431 0 0 0 0 0.298039 0 0 0 0.08 0"/>
<feBlend mode="normal" in2="shape" result="effect2_innerShadow_1_78"/>
</filter>
<clipPath id="clip0_1_78">
<rect width="280" height="190" rx="20" fill="white"/>
</clipPath>
</defs>
</svg>
