<svg width="283" height="193" viewBox="0 0 283 193" fill="none" xmlns="http://www.w3.org/2000/svg">
<g filter="url(#filter0_di_1_56)">
<mask id="mask0_1_56" style="mask-type:luminance" maskUnits="userSpaceOnUse" x="1" y="1" width="281" height="191">
<path d="M259.249 1.5H23C10.8497 1.5 1 11.3498 1 23.5V169.249C1 181.399 10.8497 191.249 23 191.249H259.249C271.4 191.249 281.249 181.399 281.249 169.249V23.5C281.249 11.3497 271.4 1.5 259.249 1.5Z" fill="white"/>
</mask>
<g mask="url(#mask0_1_56)">
<path d="M281.249 1.5H1V191.249H281.249V1.5Z" fill="white"/>
<path d="M281.249 1.5H1V191.249H281.249V1.5Z" fill="#002B7F"/>
<path d="M281.249 1.5H94.4158V191.249H281.249V1.5Z" fill="#FCD116"/>
<path d="M281.249 1.5H187.833V191.249H281.249V1.5Z" fill="#CE1126"/>
</g>
<path d="M259.249 1.24921H23.2493C11.099 1.24921 1.2493 11.0989 1.2493 23.2492V169.249C1.2493 181.399 11.099 191.249 23.2493 191.249H259.249C271.4 191.249 281.249 181.399 281.249 169.249V23.2492C281.249 11.0989 271.4 1.24921 259.249 1.24921Z" stroke="#A8B7D4" stroke-width="0.498424" stroke-linejoin="round"/>
</g>
<defs>
<filter id="filter0_di_1_56" x="0" y="0" width="282.499" height="199.498" filterUnits="userSpaceOnUse" color-interpolation-filters="sRGB">
<feFlood flood-opacity="0" result="BackgroundImageFix"/>
<feColorMatrix in="SourceAlpha" type="matrix" values="0 0 0 0 0 0 0 0 0 0 0 0 0 0 0 0 0 0 127 0" result="hardAlpha"/>
<feOffset/>
<feGaussianBlur stdDeviation="0.5"/>
<feComposite in2="hardAlpha" operator="out"/>
<feColorMatrix type="matrix" values="0 0 0 0 0.258824 0 0 0 0 0.278431 0 0 0 0 0.298039 0 0 0 0.32 0"/>
<feBlend mode="normal" in2="BackgroundImageFix" result="effect1_dropShadow_1_56"/>
<feBlend mode="normal" in="SourceGraphic" in2="effect1_dropShadow_1_56" result="shape"/>
<feColorMatrix in="SourceAlpha" type="matrix" values="0 0 0 0 0 0 0 0 0 0 0 0 0 0 0 0 0 0 127 0" result="hardAlpha"/>
<feOffset dy="8"/>
<feGaussianBlur stdDeviation="6"/>
<feComposite in2="hardAlpha" operator="arithmetic" k2="-1" k3="1"/>
<feColorMatrix type="matrix" values="0 0 0 0 0.258824 0 0 0 0 0.278431 0 0 0 0 0.298039 0 0 0 0.08 0"/>
<feBlend mode="normal" in2="shape" result="effect2_innerShadow_1_56"/>
</filter>
</defs>
</svg>
