<svg width="280" height="190" viewBox="0 0 280 190" fill="none" xmlns="http://www.w3.org/2000/svg">
<g clip-path="url(#clip0_1_67)">
<g filter="url(#filter0_di_1_67)">
<mask id="mask0_1_67" style="mask-type:luminance" maskUnits="userSpaceOnUse" x="0" y="-1" width="281" height="191">
<path d="M258.249 -0.250732H22.2493C10.0991 -0.250732 0.249329 9.599 0.249329 21.7493V167.749C0.249329 179.9 10.0991 189.749 22.2493 189.749H258.249C270.4 189.749 280.249 179.9 280.249 167.749V21.7493C280.249 9.599 270.4 -0.250732 258.249 -0.250732Z" fill="white"/>
</mask>
<g mask="url(#mask0_1_67)">
<path d="M280.249 -0.250732H0.249329V189.749H280.249V-0.250732Z" fill="white"/>
<path d="M280.249 -0.250732H0.249329V94.7493H280.249V-0.250732Z" fill="white"/>
<path d="M280.249 94.749H0.249329V189.749H280.249V94.749Z" fill="#D52B1E"/>
<path d="M280.249 63.0829H0.249329V126.416H280.249V63.0829Z" fill="#0039A6"/>
</g>
<path d="M258.249 -0.250732H22.2493C10.0991 -0.250732 0.249329 9.599 0.249329 21.7493V167.749C0.249329 179.9 10.0991 189.749 22.2493 189.749H258.249C270.4 189.749 280.249 179.9 280.249 167.749V21.7493C280.249 9.599 270.4 -0.250732 258.249 -0.250732Z" stroke="#A8B7D4" stroke-width="0.498424" stroke-linejoin="round"/>
</g>
</g>
<defs>
<filter id="filter0_di_1_67" x="-0.999878" y="-1.49995" width="282.498" height="199.498" filterUnits="userSpaceOnUse" color-interpolation-filters="sRGB">
<feFlood flood-opacity="0" result="BackgroundImageFix"/>
<feColorMatrix in="SourceAlpha" type="matrix" values="0 0 0 0 0 0 0 0 0 0 0 0 0 0 0 0 0 0 127 0" result="hardAlpha"/>
<feOffset/>
<feGaussianBlur stdDeviation="0.5"/>
<feComposite in2="hardAlpha" operator="out"/>
<feColorMatrix type="matrix" values="0 0 0 0 0.258824 0 0 0 0 0.278431 0 0 0 0 0.298039 0 0 0 0.32 0"/>
<feBlend mode="normal" in2="BackgroundImageFix" result="effect1_dropShadow_1_67"/>
<feBlend mode="normal" in="SourceGraphic" in2="effect1_dropShadow_1_67" result="shape"/>
<feColorMatrix in="SourceAlpha" type="matrix" values="0 0 0 0 0 0 0 0 0 0 0 0 0 0 0 0 0 0 127 0" result="hardAlpha"/>
<feOffset dy="8"/>
<feGaussianBlur stdDeviation="6"/>
<feComposite in2="hardAlpha" operator="arithmetic" k2="-1" k3="1"/>
<feColorMatrix type="matrix" values="0 0 0 0 0.258824 0 0 0 0 0.278431 0 0 0 0 0.298039 0 0 0 0.08 0"/>
<feBlend mode="normal" in2="shape" result="effect2_innerShadow_1_67"/>
</filter>
<clipPath id="clip0_1_67">
<rect width="280" height="190" rx="20" fill="white"/>
</clipPath>
</defs>
</svg>
