<svg width="280" height="190" viewBox="0 0 280 190" fill="none" xmlns="http://www.w3.org/2000/svg">
<g clip-path="url(#clip0_1_252)">
<g filter="url(#filter0_di_1_252)">
<mask id="mask0_1_252" style="mask-type:luminance" maskUnits="userSpaceOnUse" x="0" y="0" width="280" height="190">
<path d="M258 0H22C9.84974 0 0 9.84974 0 22V168C0 180.15 9.84974 190 22 190H258C270.15 190 280 180.15 280 168V22C280 9.84974 270.15 0 258 0Z" fill="white"/>
</mask>
<g mask="url(#mask0_1_252)">
<path d="M280 0H0V190H280V0Z" fill="white"/>
<mask id="mask1_1_252" style="mask-type:luminance" maskUnits="userSpaceOnUse" x="0" y="0" width="280" height="190">
<path d="M0 0V190H280V0H0Z" fill="white"/>
</mask>
<g mask="url(#mask1_1_252)">
<path d="M0 0V190H280V0H0Z" fill="#012169"/>
<path d="M0 0L280 190M280 0L0 190" stroke="white" stroke-width="22.1"/>
<mask id="mask2_1_252" style="mask-type:luminance" maskUnits="userSpaceOnUse" x="0" y="0" width="280" height="190">
<path d="M140 95H280V190L140 95ZM140 95V190H0L140 95ZM140 95H0V0L140 95ZM140 95V0H280L140 95Z" fill="white"/>
</mask>
<g mask="url(#mask2_1_252)">
<path d="M0 0L280 190M280 0L0 190" stroke="#C8102E" stroke-width="14.7333"/>
</g>
<path d="M140 0V190M0 95H280" stroke="white" stroke-width="36.8333"/>
<path d="M140 0V190M0 95H280" stroke="#C8102E" stroke-width="22.1"/>
</g>
</g>
<path d="M258 0H22C9.84974 0 0 9.84974 0 22V168C0 180.15 9.84974 190 22 190H258C270.15 190 280 180.15 280 168V22C280 9.84974 270.15 0 258 0Z" stroke="#A8B7D4" stroke-width="0.498424" stroke-linejoin="round"/>
</g>
</g>
<defs>
<filter id="filter0_di_1_252" x="-1.24921" y="-1.24921" width="282.498" height="199.498" filterUnits="userSpaceOnUse" color-interpolation-filters="sRGB">
<feFlood flood-opacity="0" result="BackgroundImageFix"/>
<feColorMatrix in="SourceAlpha" type="matrix" values="0 0 0 0 0 0 0 0 0 0 0 0 0 0 0 0 0 0 127 0" result="hardAlpha"/>
<feOffset/>
<feGaussianBlur stdDeviation="0.5"/>
<feComposite in2="hardAlpha" operator="out"/>
<feColorMatrix type="matrix" values="0 0 0 0 0.258824 0 0 0 0 0.278431 0 0 0 0 0.298039 0 0 0 0.32 0"/>
<feBlend mode="normal" in2="BackgroundImageFix" result="effect1_dropShadow_1_252"/>
<feBlend mode="normal" in="SourceGraphic" in2="effect1_dropShadow_1_252" result="shape"/>
<feColorMatrix in="SourceAlpha" type="matrix" values="0 0 0 0 0 0 0 0 0 0 0 0 0 0 0 0 0 0 127 0" result="hardAlpha"/>
<feOffset dy="8"/>
<feGaussianBlur stdDeviation="6"/>
<feComposite in2="hardAlpha" operator="arithmetic" k2="-1" k3="1"/>
<feColorMatrix type="matrix" values="0 0 0 0 0.258824 0 0 0 0 0.278431 0 0 0 0 0.298039 0 0 0 0.08 0"/>
<feBlend mode="normal" in2="shape" result="effect2_innerShadow_1_252"/>
</filter>
<clipPath id="clip0_1_252">
<rect width="280" height="190" rx="20" fill="white"/>
</clipPath>
</defs>
</svg>
