<svg width="170" height="170" viewBox="0 0 170 170" fill="none" xmlns="http://www.w3.org/2000/svg">
<g clip-path="url(#clip0_2_44)">
<path d="M169.725 85.0003C169.791 96.103 167.648 107.109 163.42 117.386C159.192 127.662 152.962 137.006 145.088 144.88C137.214 152.754 127.852 159.003 117.54 163.267C107.228 167.531 96.1697 169.726 85.0013 169.726C73.833 169.726 62.7748 167.531 52.4629 163.267C42.151 159.003 32.7889 152.754 24.915 144.88C17.0411 137.006 10.8109 127.662 6.58274 117.386C2.35454 107.109 0.211811 96.103 0.277785 85.0003C0.211811 73.8976 2.35454 62.8915 6.58274 52.615C10.8109 42.3386 17.0411 32.9946 24.915 25.1205C32.7889 17.2464 42.151 10.9976 52.4629 6.7336C62.7748 2.46957 73.833 0.274414 85.0013 0.274414C96.1697 0.274414 107.228 2.46957 117.54 6.7336C127.852 10.9976 137.214 17.2464 145.088 25.1205C152.962 32.9946 159.192 42.3386 163.42 52.615C167.648 62.8915 169.791 73.8976 169.725 85.0003V85.0003Z" fill="white" stroke="black" stroke-width="0.104348" stroke-linecap="square"/>
<g clip-path="url(#clip1_2_44)">
<path d="M59.875 35.0833C60.8143 35.0833 61.7151 35.4565 62.3793 36.1207C63.0435 36.7849 63.4166 37.6857 63.4166 38.625V43.5833H105.917V38.625C105.917 37.6857 106.29 36.7849 106.954 36.1207C107.618 35.4565 108.519 35.0833 109.458 35.0833C110.398 35.0833 111.298 35.4565 111.963 36.1207C112.627 36.7849 113 37.6857 113 38.625V137.792C113 138.731 112.627 139.632 111.963 140.296C111.298 140.96 110.398 141.333 109.458 141.333C108.519 141.333 107.618 140.96 106.954 140.296C106.29 139.632 105.917 138.731 105.917 137.792V132.833H63.4166V137.792C63.4166 138.731 63.0435 139.632 62.3793 140.296C61.7151 140.96 60.8143 141.333 59.875 141.333C58.9357 141.333 58.0348 140.96 57.3706 140.296C56.7065 139.632 56.3333 138.731 56.3333 137.792V38.625C56.3333 37.6857 56.7065 36.7849 57.3706 36.1207C58.0348 35.4565 58.9357 35.0833 59.875 35.0833ZM63.4166 128.583H105.917V111.583H63.4166V128.583ZM63.4166 107.333H105.917V90.3333H63.4166V107.333ZM63.4166 86.0833H105.917V69.0833H63.4166V86.0833ZM63.4166 64.8333H105.917V47.8333H63.4166V64.8333Z" fill="black"/>
<path d="M106.006 88.3077C105.463 85.975 102.732 84.1331 100.679 85.2119L92.7138 89.134V73.6477L106.71 49.7561C107.726 48.0116 107.334 45.6987 105.699 44.5802C104.084 43.4815 101.981 43.9921 101.074 45.6987L89.3447 66.0038L82.2728 66.0236C81.8197 66.0236 81.3699 66.103 80.9152 66.2978L68.69 71.4738L62.3916 61.1634C61.3559 59.4387 59.215 58.9281 57.6001 60.0449C55.9852 61.1616 55.5139 63.4943 56.5495 65.2388L64.4097 78.0966C65.2993 79.5868 67.1681 80.2525 68.7465 79.5471L77.7767 75.7639V92.7422L65.5001 122.306C64.5741 124.563 65.5898 127.042 67.7507 128.357C69.9116 129.672 72.3994 128.905 73.2973 126.652L83.174 102.149C84.0437 102.423 84.988 102.544 85.9506 102.544C86.8402 102.544 87.7116 102.367 88.4916 102.053L99.5799 96.446L102.01 107.013C102.551 109.363 104.758 110.796 106.939 110.208C109.116 109.619 110.421 107.245 109.876 104.895L106.006 88.3077ZM84.2628 64.6525C87.6584 64.6525 90.4168 61.6938 90.4168 58.0279C90.4168 54.3638 87.6584 51.3816 84.2628 51.3816C80.8671 51.3816 78.1087 54.362 78.1087 58.0279C78.1087 61.6938 80.8671 64.6525 84.2628 64.6525Z" fill="black"/>
</g>
<path d="M84.9958 2.70587C50.8007 2.18633 18.143 25.6605 7.41078 58.0787C-3.4911 88.4008 5.7365 124.524 29.8094 145.914C53.633 168.191 91.1957 173.785 120.436 159.239C150.483 145.237 169.872 111.74 166.856 78.6768C164.786 45.8387 140.907 15.8498 109.402 6.40374C101.52 3.94214 93.2475 2.69228 84.9958 2.70528V2.70587ZM84.9958 21.0548C113.928 20.5194 141.122 42.3175 147.157 70.57C151.568 89.2611 146.994 109.821 134.943 124.79C104.935 94.9495 74.9259 65.1123 44.9172 35.2721C56.1224 26.1187 70.5207 20.9939 84.9958 21.0548ZM35.143 45.1232C65.1576 74.9693 95.1722 104.812 125.187 134.659C103.453 153.004 69.2967 153.719 46.836 136.249C23.8949 119.666 14.8642 87.0733 25.855 61.0175C28.1623 55.3085 31.3054 49.9305 35.143 45.1232Z" fill="#CC0000" stroke="#CC0000" stroke-width="0.208696"/>
</g>
<defs>
<clipPath id="clip0_2_44">
<rect width="170" height="170" fill="white"/>
</clipPath>
<clipPath id="clip1_2_44">
<rect width="113.333" height="113.333" fill="white" transform="translate(28 28)"/>
</clipPath>
</defs>
</svg>
