<svg width="170" height="150" viewBox="0 0 170 150" fill="none" xmlns="http://www.w3.org/2000/svg">
<g clip-path="url(#clip0_2_15)">
<path d="M169.318 142.743L88.9085 2.28571C88.0868 0.857143 86.5851 0 84.9701 0C83.3551 0 81.8535 0.885714 81.0318 2.28571L0.621804 142.743C-0.199862 144.171 -0.199862 145.914 0.621804 147.314C1.44347 148.743 2.94514 149.6 4.56014 149.6H165.38C166.995 149.6 168.497 148.714 169.318 147.314C170.14 145.886 170.14 144.143 169.318 142.743Z" fill="black"/>
<path d="M12.4632 140.435L84.9965 14.2957L157.53 140.435H12.4632Z" fill="#F6BD16"/>
<path d="M179.864 154.868C122.635 155.129 151.25 154.999 179.864 154.868V154.868ZM57.4394 89.7909C54.1984 88.198 53.4657 86.7759 54.2951 83.6884C55.0548 80.8599 56.128 80.3244 61.4307 80.1276C66.2213 79.9498 66.6586 80.2384 66.5362 83.4979C66.3574 88.2579 65.8413 88.9128 61.4074 90.0061C59.1301 90.5676 59.0062 90.5609 57.4394 89.7909V89.7909ZM89.9616 83.3731C88.95 82.5056 88.5284 81.7755 88.5284 80.8913C88.5284 79.7948 88.6833 79.6384 89.7689 79.6384C91.0919 79.6384 93.378 81.4943 93.381 82.5708C93.3816 82.9012 93.7758 82.5636 94.2565 81.8206C95.2974 80.2115 96.0253 80.0788 96.0253 81.4982C96.0253 82.2206 95.6315 82.7186 94.7023 83.1716C93.9746 83.5262 93.3793 83.9986 93.3793 84.2214C93.3793 85.0613 91.3401 84.5551 89.9616 83.3731V83.3731ZM92.0563 82.6847C92.0563 82.2655 90.6509 80.8854 90.224 80.8854C89.6724 80.8854 89.7721 81.8914 90.3806 82.4649C90.9479 82.9997 92.0563 83.1451 92.0563 82.6847V82.6847ZM98.9512 82.9336C98.3121 82.4597 97.7892 81.7504 97.7892 81.3574C97.7892 80.9643 99.3768 79.1736 101.317 77.378C103.747 75.1295 104.845 73.8087 104.845 73.1348C104.845 71.5242 107.07 71.8026 108.768 73.6257C110.433 75.4123 110.617 77.1413 109.145 77.1508C108.512 77.155 106.817 78.3595 104.466 80.4761C102.438 82.3015 100.629 83.7951 100.446 83.7951C100.263 83.7951 99.5902 83.4074 98.9512 82.9336V82.9336ZM92.7742 80.3427L91.5837 79.3785L92.4983 78.5984C93.3968 77.832 93.432 77.8365 94.5152 78.8575C95.5882 79.8688 95.5956 79.9155 94.7912 80.6017C94.0099 81.2682 93.8993 81.254 92.7742 80.3427V80.3427ZM89.6309 78.3914C90.4454 77.5431 92.4973 77.235 92.4973 77.9611C92.4973 78.5157 90.9926 79.2227 89.812 79.2227C88.8606 79.2227 88.8555 79.199 89.6309 78.3914V78.3914ZM59.5273 77.9078C59.1228 77.5266 58.9819 74.673 58.9819 66.8644C58.9819 57.5933 59.0663 56.3044 59.6879 56.0796C60.0765 55.939 60.5658 56.085 60.7762 56.4044C61.3913 57.3376 61.2308 76.9289 60.6015 77.74C60.1814 78.2815 59.9604 78.3161 59.5273 77.9078ZM69.6757 76.0013C69.1973 75.6012 68.3534 73.7775 67.8004 71.9486C67.2474 70.1196 66.7149 68.4197 66.6171 68.171C66.5118 67.9033 71.4189 66.1386 78.6361 63.8485C93.968 58.9836 93.5171 58.9666 94.9969 64.4666C96.2325 69.0585 96.2303 68.7674 95.033 69.2433C92.5289 70.2386 71.9354 76.7287 71.2814 76.7287C70.8766 76.7287 70.154 76.4014 69.6757 76.0013ZM110.593 75.5583C110.575 74.421 111.313 72.9877 111.916 72.9877C112.647 72.9877 112.383 74.5123 111.475 75.5396L110.607 76.5209L110.593 75.5583H110.593ZM109.267 72.7914C108.372 71.8942 108.32 71.672 108.852 71.0255C109.433 70.3191 109.42 70.3185 108.551 71.0133C107.58 71.7907 105.727 72.0048 105.727 71.3397C105.727 70.7999 107.22 70.0781 108.337 70.0781C108.834 70.0781 109.856 70.5961 110.608 71.2292C111.944 72.3542 111.956 72.3966 111.132 73.0991C110.328 73.7846 110.242 73.7703 109.267 72.7915V72.7914ZM99.4248 68.9871C99.2529 68.8251 99.1122 62.8545 99.1122 55.7192C99.1122 44.6944 99.2115 42.6681 99.7737 42.2284C100.302 41.8153 100.57 41.8163 101.103 42.2332C101.678 42.683 101.754 44.5779 101.654 55.8971C101.54 68.769 101.519 69.0414 100.638 69.1603C100.142 69.2271 99.5967 69.1492 99.4248 68.9871V68.9871ZM72.4122 62.489C72.2951 62.2015 72.2517 55.7975 72.3158 48.258C72.4265 35.2183 72.4726 34.5424 73.2613 34.3993C73.7173 34.3166 74.26 34.5011 74.4673 34.8094C75.0878 35.7323 74.9565 61.9209 74.3284 62.5129C73.6395 63.1623 72.6814 63.1504 72.4122 62.4889V62.489ZM85.6525 58.3583C85.5258 58.0471 85.4761 54.0567 85.542 49.4908C85.6439 42.439 85.7615 41.1892 86.3234 41.1892C86.8903 41.1892 86.9849 42.4324 86.9849 49.8836C86.9849 56.4676 86.8512 58.62 86.4339 58.7511C86.1309 58.8463 85.7792 58.6695 85.6525 58.3583V58.3583Z" fill="black"/>
<path d="M76.6216 119.812C80.8348 119.812 84.2504 116.368 84.2504 112.119C84.2504 107.87 80.8348 104.426 76.6216 104.426C72.4083 104.426 68.9927 107.87 68.9927 112.119C68.9927 116.368 72.4083 119.812 76.6216 119.812Z" fill="#0E1313"/>
<path fill-rule="evenodd" clip-rule="evenodd" d="M59.6628 140.069L69.0208 125.856L70.7537 124.283L87.5633 119.215L101.08 113.507L93.5708 99.3517C93.5708 99.3517 92.7897 96.2472 96.1125 94.9247C99.4353 93.6022 100.676 96.148 100.676 96.148C100.676 96.148 107.167 108.524 110.092 114.322C111.028 116.434 109.887 118.209 108.647 118.633L89.8739 126.613L93.9752 140.127L75.606 140.185L73.4686 132.846L68.6742 140.069H59.6628Z" fill="#0E1313" stroke="black" stroke-width="0.119552"/>
</g>
<defs>
<clipPath id="clip0_2_15">
<rect width="170" height="150" fill="white"/>
</clipPath>
</defs>
</svg>
