<svg width="170" height="150" viewBox="0 0 170 150" fill="none" xmlns="http://www.w3.org/2000/svg">
<g clip-path="url(#clip0_1_3)">
<path d="M169.317 142.743L88.907 2.28571C88.0854 0.857143 86.5837 0 84.9687 0C83.3537 0 81.852 0.885714 81.0304 2.28571L0.62037 142.743C-0.201297 144.171 -0.201297 145.914 0.62037 147.314C1.44204 148.743 2.9437 149.6 4.5587 149.6H165.379C166.994 149.6 168.495 148.714 169.317 147.314C170.139 145.886 170.139 144.143 169.317 142.743Z" fill="black"/>
<path d="M12.4673 140.435L85.0021 14.2957L157.535 140.435H12.4673Z" fill="#F6BD16"/>
<path d="M59.0571 132.357L54.8099 132.379V124.314V116.25L40.597 116.201L40.4754 112.282L58.9583 112.07L59.0571 132.357Z" fill="black"/>
<path d="M66.4613 129.203C64.9896 128.422 64.1439 127.198 64.1439 125.848C64.1439 125.093 66.4488 121.989 70.5724 117.189C76.6839 110.076 77.2245 109.591 81.5363 107.362L86.0716 105.017L81.7193 104.393C72.8963 103.127 71.3794 103.025 70.2154 103.621C69.1557 104.164 63.1077 106.676 57.2872 108.992C54.3966 110.141 52.5397 109.698 51.6069 107.636C50.7855 105.819 51.9214 103.776 54.2913 102.808C55.2895 102.4 57.7398 101.29 59.7361 100.341C61.7326 99.3928 65.0552 97.9633 67.1195 97.1647L70.8728 95.7128L77.3022 96.5767C87.485 97.945 86.1794 98.6323 89.9417 89.9247C91.7242 85.7996 93.1828 82.1741 93.1828 81.8687C93.1828 81.5632 92.7744 81.1812 92.2753 81.0199C91.7762 80.8586 90.7506 80.1961 89.9962 79.5478C89.2418 78.8994 86.841 77.1261 84.6611 75.6069C82.4812 74.0878 80.4963 72.3244 80.2507 71.6881C80.0048 71.0518 78.6137 68.0061 77.1592 64.9201C75.7049 61.8341 74.515 58.8529 74.515 58.2952C74.515 56.7088 75.9984 55.5631 77.8209 55.7418C79.342 55.8909 79.6351 56.3014 82.6101 62.4472L85.7789 68.9938L89.8696 71.8038C92.1196 73.3494 94.427 75.0258 94.9974 75.5293C95.5678 76.0328 97.4346 77.035 99.1457 77.7564C100.857 78.4777 103.657 79.662 105.368 80.3881C108.072 81.5354 112.831 84.9012 115.524 87.5709C115.992 88.0341 117.086 88.8372 117.957 89.3554C119.976 90.5575 120.379 91.4954 122.516 99.9672C124.369 107.319 124.338 108.317 122.214 109.462C121.46 109.869 120.818 109.817 119.756 109.263C118.455 108.585 118.154 107.84 116.596 101.45C114.949 94.6888 114.793 94.328 112.974 93.0286C111.928 92.2819 109.91 90.7421 108.49 89.6068C107.07 88.4715 105.745 87.7121 105.545 87.9194C105.346 88.1266 103.505 92.1759 101.456 96.9176C99.4062 101.659 97.3857 105.933 96.9658 106.415C96.5459 106.896 92.781 109.12 88.5993 111.357C81.0977 115.37 80.936 115.494 76.4684 120.671C73.978 123.556 71.5721 126.448 71.1219 127.096C69.888 128.872 67.7012 129.861 66.461 129.203L66.4613 129.203Z" fill="black"/>
<path d="M101.638 77.4851C97.5974 74.9823 98.6948 67.5705 103.58 66.8585C107.82 65.8679 112.285 70.8396 110.115 74.9168C108.709 78.0988 104.55 78.8328 101.638 77.4852V77.4851Z" fill="black"/>
</g>
<defs>
<clipPath id="clip0_1_3">
<rect width="170" height="150" fill="white"/>
</clipPath>
</defs>
</svg>
