<svg width="170" height="170" viewBox="0 0 170 170" fill="none" xmlns="http://www.w3.org/2000/svg">
<path d="M7.34024 85.1468L84.8532 162.66L162.366 85.1468L84.8532 7.63385L7.34024 85.1468Z" fill="white"/>
<path d="M43.4542 43.4542L1.76166 85.1468L43.4542 126.546L84.8532 168.238L126.546 126.546L168.238 85.1468L126.546 43.4542L84.8532 1.76166L43.4542 43.4542ZM120.086 49.9136L155.026 85.1468L120.086 120.086L84.8532 155.026L49.9136 120.086L14.9741 85.1468L49.9136 49.9136L84.8532 14.9741L120.086 49.9136Z" fill="#FF0000"/>
<path d="M85.1468 35.5268C79.8618 45.5095 86.0276 51.0881 79.2746 65.475C75.4577 62.5389 77.513 51.6753 70.4663 51.3817C71.3472 54.905 70.7599 56.0795 70.4663 57.2539C69.5855 62.2453 68.1174 66.3558 71.3472 72.5216C66.3558 70.1727 66.0622 65.7686 61.9516 62.8325C62.8325 67.5302 60.7772 77.2194 66.3558 86.6149C61.3644 86.0277 59.6028 84.266 54.3178 78.981C59.8964 108.342 64.3005 109.223 85.1468 110.984C83.3852 110.691 72.8152 108.929 68.9983 96.8912C68.9983 93.9551 68.7047 99.5337 78.981 99.8273C72.5216 89.551 74.2833 91.6062 74.8705 85.734C77.8066 89.551 75.4577 90.1382 82.7979 93.0743C80.4491 85.4404 86.6149 80.4491 85.1468 71.6408C86.9085 75.4577 92.7807 74.8705 92.4871 93.0743C97.4784 87.4957 97.772 91.3126 100.121 85.4404C100.415 88.6701 101.883 92.7807 95.1295 99.8273C96.8912 100.415 99.8273 100.708 104.231 97.4784C99.8273 102.763 103.938 102.763 92.4871 110.984C106.874 111.278 116.269 102.176 115.976 82.5043C115.389 84.266 115.095 87.7893 107.461 88.6701C112.159 83.9724 114.801 74.2833 110.984 66.6494C109.516 67.8239 107.461 73.696 102.47 75.1641C104.819 71.0536 104.231 65.7686 104.231 65.7686C104.231 65.7686 105.112 58.4283 100.708 52.5562C99.5337 61.3644 99.5337 66.0622 93.9551 67.2366C94.8359 62.2453 95.1295 59.6028 92.1934 53.7306C89.2573 47.5648 85.734 41.399 85.1468 35.5268ZM61.3644 115.976V121.261H111.572V115.976H61.3644Z" fill="black"/>
</svg>
