<svg width="170" height="170" viewBox="0 0 170 170" fill="none" xmlns="http://www.w3.org/2000/svg">
<g clip-path="url(#clip0_1_32)">
<path d="M84.999 1.02441C131.377 1.02441 168.974 38.6211 168.975 84.999C168.975 131.377 131.377 168.975 84.999 168.975C38.6211 168.974 1.02441 131.377 1.02441 84.999C1.0246 38.6212 38.6212 1.0246 84.999 1.02441Z" fill="white" stroke="black" stroke-width="2.04877"/>
<path d="M77.9052 167.756C77.8181 167.677 76.5618 167.487 75.1189 167.337C60.8348 165.857 44.1542 158.771 32.5487 149.259C29.0106 146.361 22.015 139.18 19.4285 135.792C10.0981 123.577 4.51047 109.952 2.59413 94.7437C2.19405 91.5676 2.18757 79.4853 2.58389 75.6044C3.67615 64.9152 8.129 51.8543 14.0122 42.0856C20.9896 30.5008 31.7547 20.0181 43.8432 13.0374C53.2346 7.61399 65.3211 3.63233 75.5625 2.58804C79.4559 2.19082 91.0531 2.19235 94.5858 2.59057C108.812 4.19333 123.921 10.3684 135.792 19.4277C139.536 22.2841 146.962 29.6338 149.885 33.3783C153.812 38.4012 156.913 43.3763 159.637 49.0141C163.456 56.9252 165.309 63.1032 167.32 74.6341C167.768 77.2131 167.888 90.9208 167.486 94.1218C165.571 109.451 159.77 123.747 150.569 135.792C147.882 139.312 140.913 146.419 137.243 149.384C132.442 153.261 127.184 156.59 121.28 159.488C113.518 163.295 106.602 165.422 95.7799 167.329C94.1877 167.611 78.1664 167.992 77.9052 167.756ZM60.4451 147.862C68.7501 143.654 83.2664 138.525 97.5421 134.756C98.6243 134.465 99.5116 134.055 99.5116 133.831C99.5116 133.474 96.0702 125.356 74.8659 75.6707C69.2477 62.5062 68.9699 61.9588 67.527 61.254C65.7399 60.375 64.2721 60.7564 63.2106 62.3735C62.0746 64.1108 62.4311 65.7942 65.6362 73.8753C68.5262 81.1563 68.9284 82.9599 67.5228 82.4126C67.216 82.2924 65.006 77.4619 62.6177 71.6778C60.2253 65.8937 57.8702 60.7523 57.3768 60.2547C55.2622 58.1111 51.489 58.8491 50.3239 61.6354C49.5734 63.4349 49.4408 63.012 54.7895 76.0024C58.4797 84.9584 58.8363 86.0489 58.2682 86.617C57.7085 87.1767 57.5592 87.1767 57.0244 86.6418C56.6885 86.306 54.5324 81.5543 52.2354 76.0812C49.9383 70.6122 47.832 65.9061 47.5542 65.6242C46.6047 64.6664 44.6559 64.6001 43.2478 65.4749C40.7907 67.0091 40.9085 67.6808 46.0118 81.2433C50.1207 92.1689 50.5354 93.5206 49.9715 94.0845C49.42 94.6359 49.2749 94.6401 48.7898 94.1052C48.483 93.7735 46.7788 89.623 44.9959 84.8797C41.3729 75.2478 40.85 74.518 37.5993 74.5595C36.1589 74.5802 35.6377 74.8331 34.5182 76.0563C32.7979 77.9304 32.8049 78.9131 34.5758 83.8099C35.3483 85.9453 40.7791 101.22 46.6461 117.756C52.509 134.287 57.497 148.049 57.7292 148.335C58.2682 149.002 58.1604 149.019 60.4451 147.862ZM101.108 114.045C103.422 113.327 109.28 111.744 114.127 110.516C122.486 108.402 122.938 108.24 122.901 107.319C122.88 106.789 122.188 103.368 121.359 99.7193C120.529 96.0705 119.198 89.2623 118.406 84.5853C115.91 69.8617 115.28 63.0327 114.811 45.6099C114.575 36.8301 114.293 29.0459 114.185 28.3111C113.92 26.5038 112.154 24.5069 109.956 23.535C108.522 22.9002 107.647 22.7903 105.768 23.0084L103.393 23.2837L102.903 21.6497C101.539 17.0978 96.6465 14.948 92.2224 16.9573C91.2936 17.3798 90.1409 18.2244 89.66 18.8339L88.7892 19.9426L86.5046 19.2784C84.7176 18.7589 83.8634 18.7091 82.5988 19.0503C80.2686 19.6777 78.3074 21.133 77.2459 23.025C76.3337 24.6537 76.2964 24.6711 73.8376 24.6885C71.7064 24.7038 71.126 24.8863 69.7784 25.9593C66.8801 28.2709 66.8511 28.431 66.6936 43.8851L66.5484 57.7047L68.1779 58.2686C69.0777 58.5796 69.965 58.7372 70.1474 58.6252C70.334 58.5091 70.4874 52.1943 70.4874 44.5941C70.4874 32.0362 70.5538 30.6969 71.213 29.9174C72.3325 28.5952 73.8584 28.4135 75.1686 29.446L76.2923 30.3287V39.9063C76.2923 48.2346 76.3835 49.5821 76.9764 50.2414C77.8305 51.1826 78.693 51.2075 79.6798 50.316C80.31 49.7438 80.4386 48.9809 80.4386 45.8587C80.4386 43.7814 80.563 38.2681 80.7164 33.6018C80.9776 25.4979 81.0315 25.0758 81.9395 24.169C83.1876 22.9209 85.0451 22.9417 86.5295 24.22L87.6946 25.2196L87.8231 34.1686C87.9392 42.5981 87.9973 43.1429 88.7685 43.5575C89.9046 44.1629 91.1899 43.6653 91.6585 42.4376C91.8741 41.8725 92.0482 37.0536 92.0482 31.7298V22.0498L93.3253 20.9763C94.7807 19.7519 95.7343 19.6437 97.4136 20.5123C99.2794 21.4776 99.4701 22.7194 99.2089 32.3115C98.9892 40.3566 99.0306 41.1162 99.7189 41.8791C100.631 42.8875 101.481 42.931 102.484 42.0213C103.152 41.418 103.243 40.6244 103.243 35.4432C103.243 30.058 103.318 29.4547 104.126 28.4276C104.612 27.8098 105.445 27.139 105.976 26.9366C107.244 26.4557 109.326 27.1858 109.989 28.3426C110.354 28.9779 110.574 33.6736 110.765 44.7807C110.943 55.2833 111.254 62.0791 111.714 65.7196C112.954 75.4924 114.832 87.1518 116.545 95.714C117.473 100.35 118.137 104.384 118.025 104.682C117.913 104.977 116.827 105.445 115.612 105.727C109.181 107.203 94.8346 111.52 94.4655 112.092C94.0468 112.73 95.7302 115.79 96.3645 115.546C96.6548 115.434 98.7901 114.758 101.108 114.045ZM89.8009 87.0026C91.7538 75.7785 92.0068 72.0593 91.0034 69.219C88.3539 61.7142 78.9749 59.9976 75.6371 66.4078C75.1271 67.3905 75.1645 67.7512 75.9398 69.6212C76.4249 70.7822 76.9349 71.7317 77.0801 71.7317C77.2252 71.7317 77.673 70.7988 78.0752 69.6627C78.6059 68.17 79.1657 67.4071 80.0695 66.9386C83.4073 65.2137 87.8729 68.8998 87.8895 73.3902C87.8936 74.1905 87.1597 78.6104 86.26 83.2211L84.6263 91.5967L85.6836 94.2089C86.7575 96.8583 87.4583 98.0193 87.79 97.6917C87.8895 97.5922 88.7934 92.7825 89.8009 87.0026Z" fill="#004488"/>
</g>
<defs>
<clipPath id="clip0_1_32">
<rect width="170" height="170" fill="white"/>
</clipPath>
</defs>
</svg>
