<svg width="170" height="150" viewBox="0 0 170 150" fill="none" xmlns="http://www.w3.org/2000/svg">
<g clip-path="url(#clip0_1_19)">
<path d="M169.313 142.742L88.9029 2.28478C88.0812 0.856212 86.5796 -0.000930786 84.9646 -0.000930786C83.3496 -0.000930786 81.8479 0.884783 81.0263 2.28478L0.61625 142.742C-0.205417 144.17 -0.205417 145.913 0.61625 147.313C1.43792 148.742 2.93958 149.599 4.55458 149.599H165.375C166.99 149.599 168.491 148.713 169.313 147.313C170.135 145.885 170.135 144.142 169.313 142.742Z" fill="black"/>
<path d="M84.991 14.2947L157.524 140.434H12.4576L84.991 14.2947Z" fill="#F6BD16"/>
<path d="M85.1088 33.8293C83.5747 33.8293 82.3374 35.0769 82.3374 36.624C82.3374 37.5657 82.7995 38.3929 83.5062 38.9007V41.9632C82.4079 42.5698 81.6645 43.7454 81.6645 45.0972C81.6645 46.449 82.4079 47.6245 83.5062 48.2311V52.6686C83.5062 53.8974 86.3463 57.0365 86.0562 58.3829C85.2062 61.24 82.37 59.8088 81.6734 57.3561C81.5268 57.1581 81.36 56.0061 81.2395 56.0972C80.1062 56.9543 79.7338 59.7946 80.3895 61.5257C80.5771 62.0209 81.2395 63.24 82.0895 63.8115C81.762 65.6261 78.6262 69.7312 74.0411 78.0436L66.6567 91.4275L53.4728 96.3829V111.811L59.7062 115.24L59.9895 116.097L61.4062 116.954L72.4916 113.436L83.7895 109.24V92.0972L85.7728 93.8115L86.0562 64.6686L101.64 104.954L85.7728 93.8115V110.097C78.17 112.479 70.7875 115.438 63.3895 118.383L64.8062 119.24L66.2228 118.954L78.9728 126.097V127.24L80.3895 127.811L101.817 120.41L101.923 105.24L103.623 106.097L103.463 114.133V121.428L82.1559 128.57C82.055 128.906 82.952 129.461 83.7895 129.811C84.1664 129.969 85.1041 129.603 85.4895 129.811C86.9976 130.629 88.947 132.034 89.1728 132.097C89.3987 132.16 93.9864 130.67 99.9661 128.499L110.839 124.553L110.83 117.928L110.821 111.303L103.623 106.097L93.5999 80.4097C89.2347 69.2367 87.6995 65.8637 88.0395 64.3829C88.1438 63.9285 89.9785 62.4623 90.3062 62.0972C91.8071 58.9955 90.9699 56.5781 88.8895 54.9543C88.3916 54.5657 86.5654 53.4218 86.6228 52.6686V48.374C87.8747 47.8232 88.7478 46.5625 88.7478 45.0972C88.7478 43.6319 87.8747 42.3712 86.6228 41.8204V38.9722C87.3856 38.4729 87.889 37.6093 87.889 36.624C87.889 35.0769 86.6429 33.8293 85.1088 33.8293ZM83.5062 64.6686C83.6844 64.6686 83.8907 71.3018 83.7541 78.5882L83.7895 92.0972L77.2905 87.6686L73.1114 89.2668L68.9322 90.865L71.3051 86.5882C72.6103 84.2366 75.796 78.4981 78.3885 73.8293C80.981 69.1606 83.328 64.6686 83.5062 64.6686Z" fill="black"/>
</g>
<defs>
<clipPath id="clip0_1_19">
<rect width="170" height="150" fill="white"/>
</clipPath>
</defs>
</svg>
