<svg width="170" height="170" viewBox="0 0 170 170" fill="none" xmlns="http://www.w3.org/2000/svg">
<path d="M7.42866 85.0504L84.95 162.572L162.484 85.0375C136.631 59.2139 110.829 33.3392 84.963 7.52905L7.42866 85.0504Z" fill="white"/>
<path d="M43.3542 43.4578L1.76166 85.0504L43.357 126.646L84.9496 168.238L126.55 126.637L168.151 85.0365L126.564 43.4495C103.693 20.578 84.9718 1.86249 84.9635 1.86249C84.9551 1.86249 66.2313 20.5808 43.3542 43.4578ZM119.975 50.0385L154.973 85.0365L119.959 120.051L84.9468 155.063L49.9516 120.048L14.9563 85.0338L49.9543 50.0357C69.2025 30.7875 84.9551 15.0405 84.9635 15.0405C84.9718 15.0405 100.727 30.7903 119.975 50.0385Z" fill="#FF0000"/>
<path d="M84.2513 24.8247C81.6576 27.6319 84.2432 39.1817 78.8856 50.0091C76.108 47.0463 74.9942 41.49 71.8463 38.7124C73.507 42.9714 68.8805 42.6016 70.5471 57.4154C68.0321 56.7866 67.9545 55.7504 62.3994 49.0842C63.4337 55.5488 62.7768 59.6406 64.073 66.8623C64.073 66.8623 62.734 66.5801 56.2923 61.8562C58.383 68.8986 54.7306 83.727 63.0527 94.212L63.0233 94.19C63.6638 103.678 70.3518 111.516 79.2599 113.884H63.1628V120.703H108.056V113.884H90.5492C98.6088 111.741 104.846 105.119 106.434 96.8472V96.8398C108.64 93.3135 118.508 81.8981 110.918 63.5298C110.918 63.5298 108.692 67.6117 104.62 68.712C104.62 68.712 109.837 60.0169 105.545 52.9745C105.545 52.9745 104.288 58.1202 99.9961 58.3403C99.9961 58.3403 102.085 47.3653 96.4728 40.3787C94.4359 45.008 97.6925 46.9263 90.9162 50.7505C89.9892 36.4874 87.0289 34.0833 84.2513 24.8247ZM82.7686 55.9327C85.3559 57.5249 87.2171 60.2633 87.7819 65.4016C88.0304 67.6616 88.8752 68.9568 89.4922 71.2517C88.0126 70.9364 86.4778 70.7673 84.9046 70.7673C82.982 70.7673 81.1182 71.0139 79.3407 71.4793C78.9466 63.9938 82.8646 65.6373 82.7686 55.9327ZM73.329 61.3057C73.329 61.3057 74.3646 67.8307 77.0065 72.2353C75.145 72.9549 73.408 73.9252 71.8316 75.098C70.9637 68.3336 72.9291 66.804 73.329 61.3057ZM96.2893 64.6382C96.2893 64.6382 97.2593 71.1716 98.5794 75.5531C96.4875 73.8815 94.0815 72.5855 91.4668 71.7656C92.5687 69.5105 94.2639 66.5409 96.2893 64.6382ZM63.1408 71.861C63.1408 71.861 65.1068 73.8441 70.2461 76.3899C68.4428 78.0113 66.9118 79.9297 65.7245 82.0639C64.9231 79.439 63.7984 75.478 63.1408 71.861ZM106.661 74.2686C106.834 76.6832 106.837 82.5577 105.736 85.7487L105.744 85.8588C104.771 82.8947 103.185 80.2102 101.134 77.9534C102.457 76.8959 104.707 75.2094 106.661 74.2686ZM84.7137 76.8303C93.3648 76.8303 100.385 83.858 100.385 92.5091C100.385 101.16 93.3648 108.18 84.7137 108.18C76.0627 108.18 69.0423 101.16 69.0423 92.5091C69.0423 83.858 76.0627 76.8303 84.7137 76.8303Z" fill="black"/>
</svg>
