<svg width="170" height="170" viewBox="0 0 170 170" fill="none" xmlns="http://www.w3.org/2000/svg">
<g clip-path="url(#clip0_1_40)">
<path d="M85 1.02441C131.378 1.02441 168.976 38.6215 168.976 85C168.976 131.378 131.378 168.976 85 168.976C38.6215 168.976 1.02441 131.378 1.02441 85C1.02445 38.6216 38.6216 1.02445 85 1.02441Z" fill="white" stroke="black" stroke-width="2.04878"/>
<path d="M77.9054 167.763C77.8183 167.68 76.6325 167.498 75.2766 167.357C60.5281 165.798 44.3739 158.956 32.5485 149.262C29.0104 146.364 22.0147 139.182 19.4282 135.795C10.2383 123.762 4.39486 109.573 2.60936 94.9531C2.1964 91.5738 2.1803 79.5535 2.58345 75.6062C4.07891 60.9696 11.1082 44.3013 20.7397 32.5506C23.6397 29.0125 30.8207 22.0168 34.207 19.4303C46.1444 10.3125 61.6185 4.01112 75.5627 2.58929C79.4561 2.19207 91.0534 2.1936 94.5861 2.59182C109.48 4.27006 125.273 10.9444 137.244 20.617C140.917 23.5841 147.883 30.6922 150.57 34.2091C156.147 41.5079 160.94 50.5789 163.743 59.1286C165.149 63.416 166.028 67.2223 167.321 74.636C167.769 77.215 167.889 90.9228 167.487 94.1238C165.572 109.453 159.771 123.749 150.57 135.795C147.883 139.315 140.913 146.422 137.244 149.386C132.442 153.263 127.185 156.593 121.28 159.491C113.518 163.297 106.602 165.424 95.7803 167.332C94.1922 167.614 78.1666 167.999 77.9054 167.763ZM112.888 147.836C114.978 146.961 116.827 145.277 117.86 143.308C118.672 141.757 118.784 140.712 119.045 132.063C119.497 116.999 121.405 109.934 128.445 97.2045C131.493 91.6982 133.189 86.2167 133.943 79.4457C134.694 72.7245 134.034 71.1738 130.817 72.0694L129.573 72.4135L129.328 77.5674C128.959 85.3418 127.906 88.4889 121.72 100.343C116.748 109.872 114.862 117.99 114.489 131.441C114.202 141.761 114.008 142.541 111.445 143.436C110.603 143.727 103.343 143.88 90.0998 143.88C68.4683 143.88 68.319 143.867 67.0793 141.699C66.7268 141.081 66.4781 138.257 66.3412 133.307L66.1339 125.843L62.1949 125.628C57.5551 125.375 55.0507 124.33 52.7661 121.701C50.071 118.596 49.7558 117.302 49.7475 109.328C49.7475 105.414 49.6066 101.994 49.4366 101.732C49.2541 101.446 47.5334 101.202 45.1244 101.11C41.5598 100.982 40.995 100.853 40.0447 99.9618C39.2639 99.2279 38.9753 98.5355 38.9753 97.3994C38.9753 96.5453 40.1881 90.8648 41.6705 84.7779C43.1528 78.6952 44.3656 73.3672 44.3656 72.9401C44.3656 71.9823 42.6042 71.464 41.1236 71.9865C40.4597 72.2187 39.946 72.8157 39.7316 73.5994C39.0035 76.2655 34.7519 94.0243 34.4011 95.8611C33.3902 101.164 37.4665 105.721 43.2253 105.729L44.7802 105.734L44.7844 109.569C44.7844 114.652 45.3317 117.75 46.7705 120.822C49.0178 125.619 54.039 129.335 59.2924 130.089L61.5729 130.413L61.7927 136.213C62.0373 142.586 62.3193 143.494 64.8029 145.878C67.4359 148.408 67.3654 148.404 90.4439 148.424C107.958 148.437 111.677 148.341 112.888 147.836ZM61.349 83.0945C66.6398 80.9757 65.1637 73.2552 59.4666 73.2552C57.4846 73.2552 55.3037 74.5862 54.7024 76.1618C53.6327 78.973 55.03 82.315 57.6463 83.2148C59.5205 83.8616 59.4251 83.8657 61.349 83.0945ZM137.227 66.986C137.799 66.2977 137.53 62.5618 136.568 57.8765C131.107 31.1868 105.284 13.841 78.5108 18.8763C68.6217 20.7356 60.018 25.3355 52.6085 32.7202C46.7249 38.5814 43.0877 44.4464 40.6268 52.0384C38.4301 58.8177 38.625 58.4818 36.2388 59.5723C35.0429 60.1196 32.6974 60.8535 31.026 61.2018C27.5509 61.9233 26.2519 62.6282 25.6884 64.1125C25.1369 65.5638 25.1941 67.0647 25.8107 67.3135C26.096 67.4296 51.1697 67.5374 81.5293 67.554C129.345 67.583 136.796 67.5084 137.227 66.986Z" fill="#004488"/>
</g>
<defs>
<clipPath id="clip0_1_40">
<rect width="170" height="170" fill="white"/>
</clipPath>
</defs>
</svg>
