<svg width="170" height="150" viewBox="0 0 170 150" fill="none" xmlns="http://www.w3.org/2000/svg">
<g clip-path="url(#clip0_1_11)">
<path d="M169.346 142.94L88.9359 2.48309C88.1143 1.05452 86.6126 0.197372 84.9976 0.197372C83.3826 0.197372 81.8809 1.08309 81.0593 2.48309L0.64927 142.94C-0.172397 144.369 -0.172397 146.112 0.64927 147.512C1.47094 148.94 2.9726 149.797 4.5876 149.797H165.408C167.023 149.797 168.524 148.912 169.346 147.512C170.168 146.083 170.168 144.34 169.346 142.94V142.94Z" fill="black"/>
<path d="M85.0254 14.4986L157.559 140.638H12.4907L85.0254 14.4986Z" fill="#F6BD16"/>
<path d="M76.0566 56.0134L49.8809 122.856L38.2774 119.159L36.858 123.605C42.2024 124.906 47.8306 127.33 53.1242 128.626L54.8865 122.483H62.0642C62.2781 126.51 64.5842 130.58 68.8696 130.59C73.1742 130.955 76.9777 127.84 77.1947 122.697L94.5057 122.629C93.9958 128.407 100.427 130.361 103.12 130.444C106.918 130.444 111.518 127.038 111.735 122.697L121.714 122.629L121.859 101.043C121.513 97.1279 119.907 95.563 116.353 95.4182H107.25L107.307 70.0317C107.431 67.4841 105.281 65.5078 102.698 65.2121L84.1937 65.2803C81.848 65.8265 80.8484 66.4922 79.7191 68.9555C73.9489 83.7564 69.1107 96.0973 63.8315 110.65L60.0544 110.577L80.2762 57.5408L76.0566 56.0134ZM83.3773 70.4802C83.6594 69.8805 83.7859 69.2584 85.3697 68.8463L101.373 68.6557C102.637 68.6804 103.247 69.6257 103.472 70.7608V95.4183H100.814L100.597 81.7573C100.596 80.9927 99.7892 80.3693 98.9604 80.3328L97.0843 80.2598C96.4036 80.2333 95.2334 81.2397 94.9728 81.7279L91.9181 87.7404L85.1814 85.9888C83.709 85.541 82.6457 88.3 84.2475 88.8449L92.2477 91.4069C94.156 92.0525 93.4843 91.2528 93.8376 91.0273L95.1639 88.2962V93.4243L86.7371 93.4973C86.1235 93.6003 85.8378 94.0247 85.7098 94.576L82.3071 105.463L72.7522 105.39L82.6868 90.6122L84.6097 92.3964C86.2909 92.7899 85.4594 91.7758 85.5755 91.2925L81.4204 86.0168C80.5819 85.9189 79.7962 85.8831 80.0928 87.1207L81.758 89.1649L71.2231 105.244L68.3241 105.39L83.3773 70.4802ZM88.593 97.2807L90.6365 97.0617L90.926 105.39L86.2163 105.463L88.593 97.2807ZM69.521 119.207C71.6311 119.207 73.3351 120.935 73.3351 123.062C73.3351 125.19 71.6311 126.917 69.521 126.917C67.411 126.917 65.6982 125.19 65.6982 123.062C65.6982 120.934 67.411 119.207 69.521 119.207ZM103.048 116.726C106.402 116.365 108.092 119.548 108.092 121.676C108.092 123.803 106.75 126.333 103.41 126.552C101.304 126.69 98.2826 123.944 98.429 121.821C98.6461 118.672 100.093 117.044 103.048 116.726Z" fill="black" stroke="black" stroke-width="0.0994416"/>
<path d="M97.2505 72.9784C94.8724 72.8603 93.7622 76.2529 95.5377 77.6968C97.131 79.6845 100.902 78.1602 100.526 75.5334C100.476 73.9 98.774 72.7849 97.2504 72.9782L97.2505 72.9784Z" fill="black" stroke="black" stroke-width="0.26136"/>
</g>
<defs>
<clipPath id="clip0_1_11">
<rect width="170" height="150" fill="white"/>
</clipPath>
</defs>
</svg>
