<svg width="170" height="170" viewBox="0 0 170 170" fill="none" xmlns="http://www.w3.org/2000/svg">
<g clip-path="url(#clip0_2_40)">
<path d="M169.725 85.0003C169.791 96.103 167.648 107.109 163.42 117.386C159.192 127.662 152.962 137.006 145.088 144.88C137.214 152.754 127.852 159.003 117.54 163.267C107.228 167.531 96.1697 169.726 85.0014 169.726C73.833 169.726 62.7748 167.531 52.4629 163.267C42.151 159.003 32.7889 152.754 24.915 144.88C17.0412 137.006 10.811 127.662 6.58277 117.386C2.35458 107.109 0.211841 96.103 0.277815 85.0003C0.211841 73.8976 2.35458 62.8915 6.58277 52.615C10.811 42.3386 17.0412 32.9946 24.915 25.1205C32.7889 17.2464 42.151 10.9976 52.4629 6.7336C62.7748 2.46957 73.833 0.274414 85.0014 0.274414C96.1697 0.274414 107.228 2.46957 117.54 6.7336C127.852 10.9976 137.214 17.2464 145.088 25.1205C152.962 32.9946 159.192 42.3386 163.42 52.615C167.648 62.8915 169.791 73.8976 169.725 85.0003V85.0003Z" fill="white" stroke="black" stroke-width="0.104348" stroke-linecap="square"/>
<g clip-path="url(#clip1_2_40)">
<path d="M59.875 35.0833C60.8143 35.0833 61.7152 35.4565 62.3793 36.1207C63.0435 36.7849 63.4167 37.6857 63.4167 38.625V42.1667H105.917V38.625C105.917 37.6857 106.29 36.7849 106.954 36.1207C107.618 35.4565 108.519 35.0833 109.458 35.0833C110.398 35.0833 111.298 35.4565 111.963 36.1207C112.627 36.7849 113 37.6857 113 38.625V137.792C113 138.731 112.627 139.632 111.963 140.296C111.298 140.96 110.398 141.333 109.458 141.333C108.519 141.333 107.618 140.96 106.954 140.296C106.29 139.632 105.917 138.731 105.917 137.792V134.25H63.4167V137.792C63.4167 138.731 63.0435 139.632 62.3793 140.296C61.7152 140.96 60.8143 141.333 59.875 141.333C58.9357 141.333 58.0349 140.96 57.3707 140.296C56.7065 139.632 56.3333 138.731 56.3333 137.792V38.625C56.3333 37.6857 56.7065 36.7849 57.3707 36.1207C58.0349 35.4565 58.9357 35.0833 59.875 35.0833ZM63.4167 127.167H105.917V113H63.4167V127.167ZM63.4167 105.917H105.917V91.75H63.4167V105.917ZM63.4167 84.6667H105.917V70.5H63.4167V84.6667ZM63.4167 63.4167H105.917V49.25H63.4167V63.4167Z" fill="black"/>
</g>
<path d="M84.9958 2.70587C50.8007 2.18633 18.143 25.6605 7.41078 58.0787C-3.4911 88.4008 5.7365 124.524 29.8094 145.914C53.633 168.191 91.1957 173.785 120.436 159.239C150.483 145.237 169.872 111.74 166.856 78.6768C164.786 45.8387 140.907 15.8498 109.402 6.40374C101.52 3.94214 93.2475 2.69228 84.9958 2.70528V2.70587ZM84.9958 21.0548C113.928 20.5194 141.122 42.3175 147.157 70.57C151.568 89.2611 146.994 109.821 134.943 124.79C104.935 94.9495 74.9259 65.1123 44.9172 35.2721C56.1224 26.1187 70.5207 20.9939 84.9958 21.0548ZM35.143 45.1232C65.1576 74.9693 95.1722 104.812 125.187 134.659C103.453 153.004 69.2967 153.719 46.836 136.249C23.8949 119.666 14.8642 87.0733 25.855 61.0175C28.1623 55.3085 31.3054 49.9305 35.143 45.1232Z" fill="#CC0000" stroke="#CC0000" stroke-width="0.208696"/>
</g>
<defs>
<clipPath id="clip0_2_40">
<rect width="170" height="170" fill="white"/>
</clipPath>
<clipPath id="clip1_2_40">
<rect width="113.333" height="113.333" fill="white" transform="translate(28 28)"/>
</clipPath>
</defs>
</svg>
