<svg width="170" height="170" viewBox="0 0 170 170" fill="none" xmlns="http://www.w3.org/2000/svg">
<g clip-path="url(#clip0_2_48)">
<path d="M169.725 85.0003C169.791 96.103 167.648 107.109 163.42 117.386C159.192 127.662 152.962 137.006 145.088 144.88C137.214 152.754 127.852 159.003 117.54 163.267C107.228 167.531 96.1697 169.726 85.0013 169.726C73.833 169.726 62.7748 167.531 52.4629 163.267C42.151 159.003 32.7889 152.754 24.915 144.88C17.0411 137.006 10.8109 127.662 6.58274 117.386C2.35454 107.109 0.211811 96.103 0.277785 85.0003C0.211811 73.8976 2.35454 62.8915 6.58274 52.615C10.8109 42.3386 17.0411 32.9946 24.915 25.1205C32.7889 17.2464 42.151 10.9976 52.4629 6.7336C62.7748 2.46957 73.833 0.274414 85.0013 0.274414C96.1697 0.274414 107.228 2.46957 117.54 6.7336C127.852 10.9976 137.214 17.2464 145.088 25.1205C152.962 32.9946 159.192 42.3386 163.42 52.615C167.648 62.8915 169.791 73.8976 169.725 85.0003V85.0003Z" fill="white" stroke="black" stroke-width="0.104348" stroke-linecap="square"/>
<path d="M41.9113 93.8915C41.9187 93.899 41.9262 93.9139 41.9486 93.9439C41.9337 93.929 41.9262 93.9215 41.9187 93.914C41.9187 93.9066 41.9113 93.9066 41.9113 93.9066C41.9113 93.899 41.9113 93.8915 41.9113 93.8915Z" fill="black"/>
<path d="M42.6817 94.3753C42.6377 94.3335 42.6491 94.3482 42.7069 94.4092C42.6654 94.3361 42.6545 94.3212 42.6817 94.3753Z" fill="black"/>
<path d="M38.9555 126.521C38.9147 126.526 38.9273 126.526 38.9844 126.522C38.9274 126.516 38.9147 126.515 38.9555 126.521Z" fill="black"/>
<path d="M41.6997 94.7281C41.6556 94.6871 41.6668 94.7015 41.7251 94.7614C41.6833 94.6898 41.6723 94.675 41.6997 94.7281Z" fill="black"/>
<path d="M38.7124 131.178C38.6729 131.19 38.6855 131.188 38.7411 131.174C38.6837 131.178 38.6711 131.18 38.7124 131.178Z" fill="black"/>
<path d="M66.5193 76.591C66.5044 76.4938 66.5044 76.4713 66.5193 76.5387C66.5343 76.4713 66.5343 76.4938 66.5193 76.591Z" fill="black"/>
<path d="M66.5834 107.469C66.5687 107.395 66.5691 107.418 66.5834 107.52C66.5976 107.418 66.598 107.395 66.5834 107.469Z" fill="black"/>
<path d="M66.5826 107.472C66.6098 107.418 66.599 107.433 66.5574 107.506C66.6152 107.445 66.6265 107.43 66.5826 107.472Z" fill="black"/>
<path d="M66.5853 107.474C66.632 107.443 66.6166 107.451 66.55 107.491C66.6228 107.464 66.6385 107.457 66.5853 107.474Z" fill="black"/>
<path d="M66.5859 107.473C66.6266 107.467 66.614 107.468 66.557 107.474C66.6141 107.478 66.6267 107.478 66.5859 107.473Z" fill="black"/>
<path d="M66.5834 107.468C66.5687 107.397 66.569 107.419 66.5834 107.519C66.5978 107.419 66.5981 107.397 66.5834 107.468Z" fill="black"/>
<path d="M66.5826 107.472C66.61 107.419 66.599 107.434 66.5573 107.506C66.6155 107.446 66.6267 107.431 66.5826 107.472Z" fill="black"/>
<path d="M66.5853 107.474C66.6322 107.444 66.6167 107.451 66.5497 107.491C66.6231 107.464 66.6387 107.457 66.5853 107.474Z" fill="black"/>
<path d="M66.5193 76.591C66.5044 76.4938 66.5044 76.4713 66.5193 76.5387C66.5343 76.4713 66.5343 76.4938 66.5193 76.591Z" fill="black"/>
<path d="M72.3011 103.219C72.3011 104.685 72.2412 106.121 72.129 107.512L72.1215 107.564C72.0917 107.938 72.0618 108.297 72.0243 108.664C71.9196 109.756 71.7775 110.811 71.6205 111.835C71.5532 112.224 71.4933 112.613 71.4185 112.994C71.3961 113.144 71.3662 113.294 71.3362 113.443C71.2913 113.683 71.2464 113.929 71.1941 114.161C71.037 114.977 70.8649 115.754 70.678 116.502C70.5957 116.832 70.5135 117.146 70.4238 117.46C70.3564 117.721 70.2891 117.976 70.2143 118.23C69.3916 121.132 68.4566 123.376 67.6862 124.685C67.4019 125.179 67.1401 125.545 66.9157 125.755C66.8409 125.822 66.7662 125.882 66.7063 125.912C66.6614 125.942 66.6239 125.957 66.5866 125.957C66.5642 125.972 66.5418 125.972 66.5192 125.972C66.5043 125.972 66.4893 125.972 66.4744 125.957C66.4744 125.957 66.4744 125.957 66.4669 125.957C66.2799 125.934 66.0405 125.71 65.7638 125.321C65.6815 125.209 65.5994 125.089 65.517 124.955C65.158 124.394 64.7615 123.608 64.3502 122.628C64.3502 122.621 64.3428 122.621 64.3428 122.621C63.8415 121.424 63.318 119.943 62.8244 118.23C62.7346 117.916 62.6448 117.587 62.5626 117.258C62.2785 116.196 62.0166 115.051 61.7773 113.847C61.7548 113.713 61.7324 113.578 61.7024 113.443C61.6725 113.286 61.6501 113.129 61.6126 112.972C61.5602 112.658 61.5079 112.336 61.4556 112.015C61.3135 111.117 61.1862 110.19 61.0817 109.24C61.0592 109.045 61.0443 108.858 61.0217 108.664C60.9844 108.297 60.9469 107.923 60.917 107.542C60.8048 106.143 60.7451 104.699 60.7451 103.218C60.7451 102.642 60.76 102.081 60.7824 101.52C60.8123 100.93 60.8496 100.346 60.9021 99.7777C61.0292 98.379 61.2237 97.0252 61.4631 95.7238C61.5379 95.2975 61.6201 94.8786 61.7099 94.4672C61.9567 93.2853 62.2335 92.1483 62.5326 91.0713C62.7197 90.4057 62.9066 89.7624 63.0936 89.1415C63.3555 88.2738 63.6247 87.4511 63.879 86.6808C64.0136 86.2545 64.1557 85.8431 64.2828 85.454C64.4699 84.9155 64.6419 84.4069 64.7914 83.9357C64.9634 83.4122 65.1131 82.941 65.2327 82.5146C65.7189 80.8092 66.0928 79.0065 66.3098 77.8248C66.422 77.2188 66.4968 76.7702 66.5192 76.5906C66.5342 76.6804 66.5566 76.8299 66.5866 77.0245C66.5941 77.0694 66.6015 77.1142 66.6165 77.1667C66.6314 77.2264 66.6464 77.3013 66.6538 77.376C66.6688 77.4734 66.6913 77.578 66.7137 77.6903C66.7436 77.8623 66.7811 78.0493 66.8185 78.2513C66.8483 78.4233 66.8857 78.5954 66.9232 78.7823C67.1476 79.8668 67.4467 81.2132 67.8133 82.5146C67.8805 82.7539 67.9554 83.0082 68.0452 83.2776C68.0825 83.4122 68.1275 83.5543 68.1798 83.6963C68.2022 83.7712 68.2246 83.846 68.2545 83.9282C68.404 84.3921 68.5687 84.893 68.7481 85.4242L68.7556 85.4316V85.4466C68.8902 85.8356 69.0249 86.2544 69.167 86.6808C69.4213 87.4437 69.6905 88.2665 69.9524 89.134V89.1415C70.1395 89.7697 70.3264 90.4056 70.5134 91.0713C70.8052 92.1483 71.0893 93.2853 71.3362 94.4672V94.4896C71.4259 94.8935 71.5081 95.3123 71.583 95.7236C71.8223 97.025 72.0168 98.3789 72.144 99.7776C72.1664 100.069 72.1964 100.354 72.2112 100.645C72.2261 100.892 72.2412 101.146 72.256 101.393C72.256 101.438 72.2635 101.475 72.2635 101.52C72.2862 102.082 72.3011 102.643 72.3011 103.219Z" fill="black"/>
<path d="M71.4186 112.995L71.2016 113.436L71.3363 113.443L71.6131 113.466L73.1912 113.585L71.4186 116.345L70.2144 118.23L70.1694 118.298L70.1246 117.796L69.9825 116.338L69.9601 116.054L66.7064 81.3256L67.2748 80.9366L67.6338 84.4747L68.2547 83.9285L68.5464 83.6743L68.7484 85.4244L68.7558 85.4319V85.4469L68.9128 86.8083L69.1673 86.681L70.1845 86.165L69.9525 89.1344V89.1419L69.7731 91.4007L70.5135 91.0716L71.7103 90.5406L71.3363 94.4674V94.49L71.2016 95.9184L71.5757 95.724H71.5832L73.1389 94.9237L72.1441 99.778L71.7103 101.887L72.2637 101.521L73.9542 100.399L72.1291 107.512L72.1216 107.564L71.8151 108.754L72.0244 108.664L73.9542 107.856L71.8075 112.202L71.4186 112.995Z" fill="black"/>
<path d="M66.3398 81.3256L63.49 111.648L63.0712 116.128V116.136L62.9292 117.669L62.8692 118.298L62.8244 118.23L61.3135 115.859L59.855 113.586L61.5454 113.458L61.7024 113.443L61.8445 113.436L61.6126 112.972L61.291 112.321L59.092 107.856L60.1391 108.297L61.0218 108.664L61.2312 108.754L60.917 107.542L59.092 100.399L60.7824 101.521L61.336 101.887L60.9021 99.778L59.9073 94.9237L61.4631 95.724L61.8445 95.9184L61.7099 94.4674L61.336 90.5406L62.5327 91.0716L63.2732 91.4007L63.0936 89.1419L62.8618 86.165L63.879 86.681L64.1258 86.8083L64.2829 85.4545L64.4923 83.6743L64.7916 83.9361L65.4123 84.4747L65.7713 80.9366L66.3398 81.3256Z" fill="black"/>
<path d="M91.2443 93.9128C91.2884 93.8719 91.2771 93.8863 91.219 93.9462C91.2608 93.8745 91.2717 93.8597 91.2443 93.9128Z" fill="black"/>
<path d="M91.2171 93.944C91.1049 94.131 90.7832 94.7143 90.3869 95.4922C89.9605 96.3075 89.4519 97.3397 89.0031 98.3644C88.8611 98.6935 88.704 99.06 88.5469 99.4715V99.4789C88.4048 99.8379 88.2551 100.227 88.0981 100.646L88.0906 100.661C87.9709 100.967 87.8438 101.289 87.7092 101.626C87.7092 101.633 87.7017 101.648 87.7017 101.656H87.6942C87.4624 102.261 87.2081 102.905 86.9314 103.578C86.7444 104.027 86.5425 104.49 86.3331 104.969C86.3106 105.014 86.2882 105.051 86.2733 105.096C85.9067 105.919 85.5028 106.779 85.054 107.654V107.662C84.897 107.968 84.7324 108.268 84.5679 108.582C84.5679 108.582 84.5679 108.582 84.5679 108.589C84.0519 109.539 83.4833 110.511 82.855 111.484C82.855 111.484 82.855 111.491 82.8476 111.491C82.6681 111.783 82.4736 112.067 82.2716 112.359C82.2044 112.464 82.1295 112.568 82.0622 112.673H82.0547C81.7929 113.054 81.5161 113.429 81.2319 113.802C80.499 114.767 79.7435 115.687 78.9881 116.555L78.9732 116.57L78.9657 116.577C78.8684 116.689 78.7712 116.802 78.6665 116.907C78.5692 117.026 78.4645 117.138 78.3597 117.251C78.3597 117.258 78.3523 117.266 78.3523 117.266C77.7838 117.894 77.2153 118.5 76.6469 119.068C76.3851 119.337 76.1158 119.599 75.854 119.853C75.7642 119.943 75.6744 120.025 75.5847 120.108C75.2107 120.467 74.8442 120.811 74.4777 121.14C73.812 121.738 73.1689 122.284 72.5554 122.786C71.8374 123.369 71.1567 123.885 70.5358 124.334C70.4162 124.424 70.2965 124.506 70.1768 124.588C70.1095 124.633 70.0422 124.678 69.9749 124.723C68.8904 125.463 68.0002 125.964 67.3944 126.204C67.2074 126.279 67.0503 126.331 66.9232 126.354C66.9157 126.361 66.9008 126.361 66.8933 126.361C66.7512 126.391 66.6465 126.383 66.5866 126.339V126.331C66.5418 126.301 66.5192 126.256 66.5043 126.196C66.4819 126.137 66.4743 126.054 66.4743 125.957C66.4743 125.957 66.4743 125.957 66.4668 125.957C66.4593 125.823 66.4668 125.658 66.4967 125.471C66.5116 125.299 66.5491 125.105 66.5865 124.888V124.88C66.5939 124.85 66.6014 124.82 66.6089 124.79C66.6763 124.483 66.7584 124.139 66.8706 123.75C67.1772 122.673 67.6635 121.304 68.3442 119.756C68.8004 118.694 69.3465 117.542 69.9822 116.338C70.0195 116.271 70.057 116.196 70.0944 116.128C70.1541 116.016 70.2141 115.912 70.2738 115.8C70.5656 115.261 70.8722 114.715 71.1938 114.161C71.3359 113.929 71.4705 113.698 71.6127 113.466C71.7623 113.219 71.9194 112.972 72.0839 112.718C72.2486 112.456 72.4131 112.194 72.585 111.933L72.6 111.91C73.2283 110.953 73.9089 109.988 74.642 109.023C74.9263 108.649 75.2179 108.282 75.5097 107.923C75.8239 107.549 76.1306 107.19 76.4446 106.839L76.4521 106.831C77.2149 105.964 78.0078 105.156 78.7932 104.408C79.0475 104.161 79.2943 103.929 79.5485 103.697L79.556 103.69C80.2891 103.009 81.0146 102.381 81.7177 101.798C82.159 101.431 82.5854 101.087 83.0042 100.758H83.0116C83.595 100.294 84.1486 99.8678 84.6797 99.4713C84.9713 99.2469 85.2556 99.0375 85.5248 98.828L85.5398 98.8207C85.9063 98.5438 86.2578 98.2821 86.572 98.0502V98.0428C86.7515 97.9081 86.916 97.7809 87.0732 97.6539C87.2377 97.5342 87.3874 97.4069 87.5295 97.2949C88.4271 96.5619 89.3245 95.754 90.0053 95.1108C90.6186 94.5423 91.0674 94.0935 91.2171 93.944Z" fill="black"/>
<path d="M72.4988 122.813L76.5702 120.967L75.5106 120.048L79.8612 117.529L78.1929 117.232L83.5847 112.632L81.5604 112.685L85.8499 108.704L84.2483 108.556L87.2201 105.241L85.6852 105.004L88.5321 101.736L87.4885 101.636L88.8427 99.4298L87.922 99.573L89.4808 97.1075L88.9615 97.1271L72.4988 122.813Z" fill="black"/>
<path d="M88.7562 96.9732L71.4184 116.346L70.4237 117.46L70.1244 117.797L68.3367 119.794L68.3442 119.756L68.9651 115.455L69.9599 116.054L70.0946 116.128L70.1767 116.181L70.274 115.799L71.381 111.387L71.6204 111.835L71.8073 112.194V112.202L72.0841 112.718L72.159 112.86L72.5852 111.932L72.6001 111.91L75.1059 106.495L75.5098 107.923V107.931L75.6445 108.395L76.4448 106.839L76.4523 106.831L78.2997 103.234L78.7934 104.408L78.913 104.692L79.5487 103.697L79.5562 103.69L81.2991 100.952L81.7179 101.798L81.9796 102.321L83.0118 100.758L84.3582 98.7159L84.6798 99.4713L84.7622 99.6584L85.525 98.8281L85.5399 98.8207L86.5273 97.7511L86.5721 98.0428V98.0502L86.6545 98.656L88.6216 96.4869L88.7562 96.9732Z" fill="black"/>
<path d="M101.968 110.15C102.022 110.133 102.006 110.14 101.933 110.167C102 110.127 102.015 110.12 101.968 110.15Z" fill="black"/>
<path d="M97.5007 111.514C99.475 111.002 101.539 110.308 101.933 110.167C101.573 110.378 99.726 111.513 98.0797 112.694C95.6258 114.454 90.954 118.545 84.6016 121.516C75.8076 125.628 67.6727 126.913 67.3833 126.324C67.0937 125.734 73.2169 120.351 82.011 116.239C88.3635 113.268 94.5576 112.278 97.5007 111.514Z" fill="black"/>
<path d="M73.5734 125.479L77.5472 125.314L77.2059 124.357L81.7225 123.791L80.6159 123.106L86.9451 121.348L85.3977 120.812L90.5922 119.185L89.4615 118.626L93.336 117.1L92.2996 116.496L96.0571 114.969L95.3221 114.602L97.4321 113.41L96.6694 113.251L99.0614 111.932L98.6613 111.799L73.5734 125.479Z" fill="black"/>
<path d="M71.9368 122.145L74.5583 119.225L75.1084 120.084L78.3908 117.003L78.2441 118.274L83.6133 114.561L83.0717 116.074L87.6261 113.142L87.364 114.353L91.01 112.362L90.8427 113.528L94.4168 111.627L94.2493 112.416L96.5234 111.558L96.172 112.238L98.7241 111.245L98.5798 111.632L71.9368 122.145Z" fill="black"/>
<path d="M92.8106 129.272C92.8505 129.283 92.8379 129.281 92.782 129.268C92.8393 129.271 92.852 129.273 92.8106 129.272Z" fill="black"/>
<path d="M89.4963 128.34C90.9238 128.803 92.4811 129.197 92.782 129.268C92.4735 129.25 90.8686 129.188 89.3687 129.228C87.133 129.288 82.5724 129.821 77.4362 129.079C70.3259 128.052 64.7833 125.677 64.8471 125.232C64.9109 124.788 70.8966 124.078 78.007 125.105C83.1433 125.847 87.3684 127.649 89.4963 128.34Z" fill="black"/>
<path d="M69.0102 127.115L71.5275 128.537L71.7102 127.866L74.7271 129.268L74.3262 128.459L78.9498 129.878L78.216 128.985L82.0867 130.045L81.6193 129.297L84.6345 129.912L84.2438 129.175L87.1874 129.744L86.8851 129.256L88.6756 129.386L88.2703 129.005L90.2867 129.171L90.0949 128.943L69.0102 127.115Z" fill="black"/>
<path d="M69.3708 124.604L72.1861 123.952L72.1722 124.648L75.4611 124.157L74.8487 124.82L79.6839 124.767L78.7285 125.416L82.7402 125.495L82.0815 126.08L85.147 126.344L84.5647 126.94L87.5487 127.227L87.1214 127.61L88.8757 127.992L88.3799 128.242L90.361 128.654L90.1128 128.818L69.3708 124.604Z" fill="black"/>
<path d="M41.9486 93.9439C41.9337 93.929 41.9262 93.9215 41.9187 93.914C41.9187 93.9065 41.9113 93.9065 41.9113 93.9065C41.9113 93.8991 41.9113 93.8916 41.9113 93.8916C41.9186 93.8989 41.9262 93.9139 41.9486 93.9439Z" fill="black"/>
<path d="M66.7062 125.777V125.912C66.6988 126.069 66.6838 126.181 66.639 126.256C66.6241 126.286 66.6091 126.316 66.5866 126.331L66.5791 126.338C66.4818 126.413 66.2574 126.383 65.9358 126.264C65.891 126.249 65.8385 126.234 65.7788 126.211C65.4272 126.069 64.9784 125.837 64.4475 125.523C64.2529 125.411 64.051 125.284 63.8415 125.149C62.9215 124.566 61.8221 123.773 60.6178 122.793C59.997 122.292 59.3537 121.738 58.688 121.14C58.329 120.811 57.955 120.467 57.5884 120.108C57.4986 120.025 57.4088 119.943 57.3192 119.853C57.0499 119.599 56.7881 119.337 56.5188 119.068L56.5114 119.061C55.9504 118.492 55.3819 117.894 54.8136 117.265C54.8136 117.265 54.8061 117.258 54.8061 117.25C54.5967 117.026 54.3872 116.794 54.1777 116.562C53.4222 115.687 52.6669 114.767 51.9339 113.802C51.6497 113.428 51.3729 113.054 51.1112 112.673C50.8345 112.276 50.5651 111.888 50.3183 111.491C49.6825 110.519 49.1141 109.546 48.598 108.589C48.4333 108.275 48.2763 107.976 48.1268 107.669C47.6705 106.786 47.2665 105.926 46.9 105.096C46.6607 104.58 46.4438 104.071 46.2493 103.585C45.9651 102.904 45.7032 102.261 45.4713 101.655C45.3293 101.304 45.1946 100.96 45.075 100.638C44.9103 100.219 44.7608 99.8301 44.6187 99.4711C44.4541 99.0598 44.3045 98.6932 44.1624 98.3641C43.2949 96.367 42.1729 94.3327 41.9485 93.9436C42.2627 94.2652 43.9306 95.9032 45.636 97.2945C45.9201 97.5264 46.2418 97.7732 46.5933 98.05C46.915 98.2894 47.2665 98.5511 47.6405 98.8278C47.9097 99.0298 48.194 99.2467 48.4931 99.4711C49.0167 99.8675 49.5701 100.294 50.1535 100.758C50.5724 101.087 51.0062 101.431 51.4476 101.797C52.1507 102.381 52.8687 103.002 53.6018 103.675C53.8561 103.907 54.1104 104.146 54.3721 104.4C55.165 105.156 55.9504 105.971 56.7283 106.839C57.0349 107.19 57.3491 107.557 57.6558 107.923C57.9475 108.282 58.2392 108.649 58.5233 109.023C59.2564 109.988 59.937 110.952 60.5653 111.91C60.7449 112.179 60.9169 112.448 61.0814 112.717C61.2459 112.964 61.3955 113.211 61.5451 113.458C61.6274 113.585 61.7021 113.712 61.777 113.847C62.1808 114.513 62.5549 115.171 62.9063 115.814C62.9662 115.919 63.0185 116.024 63.0709 116.128V116.136H63.0784C63.5197 116.959 63.9161 117.751 64.2751 118.514C64.4696 118.926 64.649 119.322 64.8137 119.711C65.7411 121.835 66.3171 123.615 66.5639 124.797C66.5714 124.827 66.5788 124.849 66.5863 124.879V124.887C66.6311 125.134 66.6686 125.358 66.6836 125.545C66.6988 125.628 66.6988 125.703 66.7062 125.777Z" fill="black"/>
<path d="M60.6702 122.815L60.6178 122.793L56.5939 120.968L57.1099 120.519L57.5886 120.108L57.656 120.048L57.3194 119.853L53.3028 117.527L53.6319 117.467L53.7366 117.452L54.8062 117.265H54.8136L54.9708 117.235L54.7838 117.078L54.1779 116.562L49.5854 112.636L51.1112 112.673L51.6048 112.688L50.3184 111.491L47.319 108.701L48.5982 108.589L48.9197 108.559L48.1268 107.669L45.9502 105.238L46.9002 105.096L47.4836 105.006L46.2495 103.585L44.6338 101.738L45.4715 101.655L45.681 101.633L45.0752 100.638L44.3273 99.4264L44.6189 99.4713L45.2471 99.576L43.684 97.1078L44.2075 97.1302L58.4862 119.412L59.4361 120.886L59.8998 121.619L60.6702 122.815Z" fill="black"/>
<path d="M64.829 119.793L64.2829 119.18L62.9292 117.669L62.5626 117.258L61.3136 115.859L44.4095 96.9731L44.5441 96.4868L46.5112 98.656L46.5936 98.0502L46.6384 97.7511L47.6407 98.8281L48.4112 99.6583L48.4935 99.4713L48.8075 98.7159L50.1539 100.758L51.1861 102.321L51.4478 101.798L51.8668 100.952L53.602 103.675L54.2528 104.692L54.3724 104.4L54.8661 103.234L56.7285 106.839L57.5289 108.395L57.656 107.923L58.0598 106.487L60.5656 111.91L61.0069 112.86L61.0817 112.718L61.291 112.321L61.4557 112.015L61.7847 111.386L62.9067 115.814L62.9964 116.181L63.0713 116.136H63.0788L64.2007 115.455L64.2605 115.882L64.814 119.711L64.829 119.793Z" fill="black"/>
<path d="M31.1984 110.15C31.1449 110.133 31.1606 110.14 31.234 110.167C31.167 110.127 31.1515 110.12 31.1984 110.15Z" fill="black"/>
<path d="M65.7862 126.323C65.7787 126.338 65.7713 126.346 65.7638 126.353C65.7339 126.368 65.6966 126.391 65.6591 126.405C65.472 126.465 65.0682 126.48 64.4997 126.428C63.4976 126.338 61.9716 126.076 60.0868 125.613C59.9072 125.575 59.7203 125.523 59.5332 125.478C59.2415 125.403 58.9348 125.321 58.6282 125.239C58.4038 125.171 58.1794 125.112 57.9475 125.044C57.3042 124.857 56.631 124.648 55.9354 124.423C55.8232 124.386 55.711 124.349 55.5988 124.311C54.589 123.974 53.5344 123.601 52.4424 123.174C52.1882 123.077 51.9339 122.972 51.6721 122.868C50.6549 122.456 49.6152 122.007 48.5681 121.514C48.1717 121.327 47.7827 121.14 47.3938 120.945H47.3863C46.9899 120.736 46.5934 120.526 46.2045 120.325C45.2547 119.801 44.3496 119.27 43.4894 118.731C43.2201 118.567 42.9583 118.402 42.6965 118.23C41.9111 117.721 41.1632 117.22 40.4675 116.727C40.0412 116.42 39.6223 116.121 39.2334 115.829C38.6799 115.425 38.1713 115.036 37.6927 114.677C37.4234 114.468 37.169 114.266 36.9222 114.079C36.5856 113.817 36.2714 113.578 35.9798 113.353C35.6581 113.114 35.359 112.89 35.0898 112.695C33.4443 111.513 31.5968 110.377 31.2302 110.167C31.6267 110.309 33.691 111.005 35.6656 111.513C35.9947 111.596 36.3537 111.685 36.7577 111.775C37.1167 111.858 37.5056 111.947 37.9245 112.044C38.2311 112.112 38.5528 112.179 38.8819 112.261C39.4728 112.396 40.1086 112.538 40.7743 112.703C41.253 112.822 41.7466 112.95 42.2628 113.084C43.0781 113.301 43.9382 113.54 44.8208 113.817C45.1275 113.914 45.4341 114.012 45.7483 114.116C46.7131 114.43 47.708 114.789 48.7177 115.193C49.1292 115.358 49.548 115.53 49.9669 115.709C50.3634 115.881 50.7597 116.053 51.1562 116.24C52.0089 116.637 52.8316 117.048 53.6319 117.467C53.819 117.564 53.9984 117.662 54.178 117.751C54.4248 117.886 54.6716 118.021 54.9111 118.155C55.4646 118.454 55.9956 118.761 56.5118 119.06L56.5192 119.068C56.9531 119.322 57.3795 119.576 57.7908 119.831C57.8955 119.898 58.0002 119.965 58.0973 120.025C58.5611 120.317 59.0099 120.608 59.4363 120.885C60.0645 121.312 60.6555 121.716 61.2014 122.112L61.2089 122.119C62.5553 123.084 63.6398 123.959 64.4177 124.67C64.6047 124.842 64.7767 124.999 64.9263 125.149C64.9561 125.178 64.9862 125.201 65.0086 125.231C65.1881 125.41 65.3376 125.568 65.4499 125.71C65.6369 125.927 65.7491 126.098 65.779 126.211C65.8013 126.256 65.8013 126.293 65.7862 126.323Z" fill="black"/>
<path d="M59.5931 125.478H59.5332L57.0275 125.373L56.6685 125.358L55.6213 125.313L55.9355 124.424L55.9579 124.356L55.5989 124.311L51.4477 123.788L52.4426 123.174L52.5473 123.107L51.6721 122.868L46.2195 121.349L47.3863 120.945H47.3938L47.7677 120.811L46.2045 120.325L42.5768 119.188L43.4893 118.731L43.7063 118.627L42.6965 118.23L39.8318 117.101L40.4676 116.727L40.864 116.495L39.2334 115.829L37.1092 114.969L37.6926 114.677L37.8422 114.603L36.9222 114.079L35.733 113.406L35.9798 113.354L36.4959 113.249L34.1024 111.932L34.5062 111.798L59.0471 125.179L59.0919 125.201L59.5931 125.478Z" fill="black"/>
<path d="M61.2312 122.142L59.8997 121.619L58.6881 121.14L57.1098 120.519L34.5886 111.633L34.439 111.244L36.997 112.239L36.7577 111.775L36.6455 111.558L37.9245 112.045L38.9194 112.419L38.8819 112.261L38.7473 111.626L40.7743 112.703L42.3225 113.526L42.2628 113.084L42.1581 112.359L44.8208 113.817L45.8006 114.356L45.7483 114.116L45.5388 113.144L48.7176 115.193L50.094 116.076L49.9667 115.71L49.5554 114.558L53.7365 117.452L54.1779 117.752L54.9258 118.275L54.9108 118.155L54.8061 117.265V117.25L54.7837 117.078L54.7762 117.004L57.7905 119.831L58.0597 120.085L58.0972 120.025L58.4861 119.412L58.6058 119.225L61.2013 122.112L61.2087 122.12L61.2312 122.142Z" fill="black"/>
<path d="M38.9349 130.363C38.8953 130.375 38.9079 130.373 38.9635 130.358C38.9062 130.363 38.8936 130.365 38.9349 130.363Z" fill="black"/>
<path d="M66.7884 125.635C66.7959 125.673 66.766 125.717 66.7061 125.777C66.6762 125.8 66.6389 125.837 66.5864 125.867C66.5566 125.897 66.5191 125.927 66.4742 125.957C66.4742 125.957 66.4742 125.957 66.4668 125.957C66.407 126.002 66.3322 126.039 66.2573 126.092C66.1601 126.144 66.0553 126.204 65.9357 126.264C65.8834 126.293 65.8235 126.323 65.7636 126.353C65.7337 126.368 65.6963 126.391 65.6588 126.406C65.3446 126.563 64.9632 126.735 64.5294 126.914C63.9833 127.146 63.3476 127.393 62.6295 127.647C61.8441 127.924 60.969 128.208 60.0115 128.485C59.9368 128.507 59.8545 128.53 59.7722 128.552H59.7647C59.0017 128.769 58.2014 128.979 57.3562 129.181C57.1319 129.233 56.9 129.285 56.6681 129.33C55.9051 129.502 55.1123 129.659 54.2971 129.794C53.9755 129.846 53.6613 129.899 53.3473 129.944C53.0256 129.989 52.7039 130.026 52.3824 130.063H52.3675C51.5671 130.16 50.7892 130.22 50.0339 130.258C49.802 130.28 49.5701 130.288 49.3457 130.295C48.6501 130.325 47.9844 130.34 47.3562 130.34C46.9747 130.34 46.6007 130.34 46.2491 130.333C45.7331 130.325 45.2543 130.31 44.798 130.303C44.5512 130.295 44.3193 130.288 44.0949 130.273C43.7807 130.265 43.4816 130.258 43.2048 130.25C42.8981 130.243 42.6214 130.235 42.3746 130.235C42.1651 130.235 41.9482 130.235 41.7388 130.243C40.4448 130.258 39.233 130.333 38.9638 130.355C39.1882 130.295 40.1306 130.033 41.1927 129.697C41.5293 129.592 41.8808 129.473 42.2249 129.353C42.4568 129.271 42.7185 129.173 43.0028 129.061C43.2571 128.964 43.5339 128.859 43.833 128.747C44.0425 128.657 44.2669 128.575 44.4988 128.485C44.9177 128.321 45.3665 128.156 45.8451 127.984C46.1817 127.857 46.5333 127.73 46.8998 127.61C47.4906 127.401 48.119 127.191 48.7771 126.997C49.0015 126.922 49.2259 126.855 49.4578 126.795C50.1683 126.585 50.9164 126.391 51.6867 126.211C52.0083 126.144 52.3375 126.069 52.6741 126.002H52.6815C52.9957 125.942 53.3099 125.882 53.6314 125.83C54.4616 125.688 55.2769 125.576 56.0698 125.478C56.2867 125.448 56.5035 125.426 56.7205 125.403C56.8253 125.389 56.93 125.381 57.0271 125.374C57.5806 125.314 58.1116 125.269 58.6278 125.239C58.7848 125.224 58.942 125.216 59.0915 125.201C59.1214 125.201 59.1514 125.201 59.1738 125.194C59.2711 125.194 59.3609 125.187 59.4505 125.187C60.4529 125.127 61.3878 125.104 62.233 125.112C62.8164 125.112 63.3549 125.127 63.8411 125.149C64.0505 125.164 64.2451 125.172 64.432 125.187C64.5815 125.194 64.7161 125.209 64.8509 125.217C64.9032 125.224 64.9556 125.224 65.0079 125.231C65.2921 125.261 65.5389 125.291 65.7633 125.321C66.0775 125.366 66.3243 125.419 66.4964 125.471C66.5263 125.478 66.5561 125.486 66.5862 125.493C66.6235 125.508 66.6534 125.523 66.6834 125.546C66.7436 125.568 66.7809 125.605 66.7884 125.635Z" fill="black"/>
<path d="M62.6749 127.62L60.1935 129.104L59.9943 128.437L57.0128 129.913L57.3936 129.094L52.8065 130.627L53.518 129.716L49.6746 130.871L50.1234 130.113L47.1243 130.801L47.4967 130.055L44.5681 130.696L44.8582 130.201L43.0716 130.375L43.4671 129.985L41.4554 130.2L41.6417 129.968L62.6749 127.62Z" fill="black"/>
<path d="M62.2558 125.119L60.0867 125.613L41.6194 129.846L41.3651 129.682L43.3397 129.225L43.0031 129.061L42.8386 128.986L43.8333 128.747L44.5814 128.56L44.4991 128.485L44.1475 128.193L45.8453 127.984L47.1245 127.827L46.9001 127.61L46.5261 127.243L48.7774 126.996L49.5852 126.907L49.4581 126.794L48.912 126.338L51.687 126.211L52.9212 126.159L52.6818 126.002H52.6744L51.9487 125.538L56.0701 125.478L56.7808 125.471L56.7209 125.403L56.6684 125.358L56.1524 124.82L57.9476 125.044L59.047 125.179L59.1741 125.194L59.4508 125.231V125.187L59.421 124.536L62.2334 125.112L62.2558 125.119Z" fill="black"/>
<path d="M67.1157 91.4095C67.1157 91.4095 67.0937 92.1437 67.0553 93.4284C67.0232 94.7138 66.9774 96.5499 66.9223 98.7532C66.8992 99.8549 66.8742 101.048 66.8476 102.311C66.833 103.573 66.8175 104.904 66.8014 106.281C66.7927 107.658 66.7666 109.081 66.7731 110.527C66.763 111.972 66.7545 113.441 66.7703 114.909C66.7725 115.643 66.7749 116.378 66.7769 117.109C66.7854 117.84 66.7938 118.569 66.8021 119.292C66.8244 120.737 66.8461 122.159 66.8673 123.536C66.8966 124.912 66.9251 126.243 66.9519 127.505C66.9659 128.135 66.9795 128.749 66.9926 129.343C67.0147 129.936 67.0362 130.51 67.0568 131.06C67.0784 131.611 67.0991 132.138 67.1189 132.64C67.1322 133.142 67.1448 133.618 67.1566 134.065C67.1958 134.96 67.2301 135.74 67.2584 136.382C67.3029 137.667 67.3285 138.401 67.3285 138.401L65.5448 138.446C65.5448 138.446 65.4575 137.711 65.3048 136.425C65.2344 135.782 65.1489 135.002 65.0506 134.106C65.0094 133.658 64.9656 133.181 64.9194 132.679C64.8813 132.176 64.8412 131.647 64.7993 131.096C64.7585 130.544 64.7161 129.969 64.6721 129.375C64.6371 128.78 64.6012 128.165 64.5641 127.533C64.5271 126.9 64.4891 126.251 64.4504 125.587C64.4273 124.923 64.4037 124.245 64.3797 123.555C64.3575 122.865 64.3351 122.164 64.3123 121.453C64.2871 120.743 64.2928 120.025 64.2813 119.3C64.2655 117.851 64.2444 116.38 64.2701 114.908C64.2783 113.436 64.3104 111.964 64.344 110.516C64.375 109.067 64.4495 107.642 64.4988 106.263C64.5587 104.883 64.6493 103.55 64.7287 102.286C64.8196 101.023 64.9055 99.8278 64.9848 98.7247C65.0607 97.6218 65.1709 96.6115 65.2576 95.7159C65.3522 94.8203 65.4347 94.0396 65.5028 93.3968C65.5723 92.7539 65.6429 92.2489 65.6869 91.9041C65.7328 91.5599 65.7575 91.3763 65.7575 91.3763L67.1157 91.4095Z" fill="black"/>
<path opacity="0.06" d="M97.1933 113.354L97.1858 113.361L97.4327 113.406L96.2434 114.079L96.236 114.087C95.9966 114.274 95.7423 114.468 95.473 114.677L96.0564 114.969L93.9322 115.829L93.9247 115.837C93.5282 116.128 93.1244 116.42 92.698 116.727L93.3339 117.101L90.4915 118.223C90.4467 118.253 90.4018 118.282 90.3495 118.313C90.1325 118.455 89.9081 118.589 89.6839 118.731L90.5889 119.188L86.9838 120.31L86.9763 120.317H86.9688C86.9614 120.317 86.9614 120.324 86.9539 120.324C86.5725 120.541 86.176 120.736 85.7796 120.945L86.9464 121.349L81.5386 122.852C81.5311 122.86 81.5162 122.86 81.5087 122.86C81.247 122.965 80.9851 123.077 80.7233 123.174L81.7257 123.787L77.5744 124.311H77.567C77.4473 124.348 77.3426 124.386 77.2304 124.423L77.365 124.79L79.6837 124.767L78.9656 125.253C79.2948 125.313 79.6164 125.373 79.9455 125.441H79.9605L82.7429 125.493L82.2119 125.964C82.4363 126.024 82.6607 126.084 82.8851 126.144C82.8926 126.151 82.8926 126.151 82.9001 126.151L85.1439 126.346L84.7849 126.712C84.9719 126.772 85.1515 126.832 85.331 126.892C85.5029 126.952 85.675 127.004 85.847 127.064H85.8694L87.5524 127.228L87.2083 127.535C87.4402 127.617 87.6646 127.699 87.8739 127.774H87.8814L88.8762 127.991L88.7192 128.073C88.9959 128.171 89.2652 128.26 89.4971 128.343C90.9257 128.799 92.4815 129.195 92.7806 129.27C92.4739 129.248 90.8658 129.188 89.3698 129.225C89.123 129.233 88.8463 129.248 88.5471 129.263L88.6742 129.382L87.6869 129.315H87.6644C87.4326 129.323 87.1932 129.338 86.9464 129.353L87.1858 129.742L85.5253 129.42H85.5179C85.3383 129.428 85.1514 129.435 84.9718 129.442C84.7774 129.45 84.5904 129.45 84.3959 129.457L84.6352 129.914L82.4437 129.465L82.4213 129.457H82.3914C82.167 129.457 81.9426 129.45 81.7107 129.442L82.0847 130.048L79.3846 129.308C79.2499 129.293 79.1079 129.278 78.9656 129.263C78.7786 129.248 78.5842 129.226 78.3972 129.203L78.9507 129.876L74.994 128.665C74.9492 128.657 74.9042 128.65 74.8669 128.635C74.6948 128.605 74.5303 128.568 74.3656 128.538L74.7246 129.271L71.9422 127.977C71.9347 127.977 71.9348 127.977 71.9273 127.969C71.8524 127.954 71.7703 127.932 71.6954 127.909L71.5309 128.538L69.0476 127.139L69.0401 127.131H69.0327C68.2323 126.87 67.5218 126.615 66.9309 126.376C66.9384 126.75 66.9458 127.139 66.9533 127.505C66.9683 128.134 66.9832 128.747 66.9907 129.345C67.0131 129.936 67.0355 130.512 67.058 131.058C67.0805 131.612 67.1029 132.135 67.1178 132.644C67.1328 133.145 67.1477 133.616 67.1553 134.065C67.1927 134.962 67.23 135.74 67.26 136.384C67.3049 137.67 67.3274 138.403 67.3274 138.403L66.587 138.418V76.98C66.6094 77.0922 66.6318 77.2269 66.6542 77.3764C66.699 77.6234 66.7515 77.9225 66.8188 78.2516C66.8487 78.4235 66.8861 78.5956 66.9236 78.7826C67.148 79.8671 67.4471 81.2134 67.8137 82.5149C67.8809 82.7542 67.9558 83.0085 68.0456 83.2778C68.0829 83.4125 68.1279 83.5545 68.1802 83.6966C68.2026 83.7715 68.225 83.8463 68.2549 83.9285L68.5467 83.6743L68.7561 85.4319V85.4468C68.8907 85.8359 69.0255 86.2546 69.1675 86.681L70.1848 86.1648L69.9529 89.1343V89.1418C70.14 89.77 70.3269 90.4059 70.5139 91.0716L71.7106 90.5406L71.3367 94.4674V94.4898C71.419 94.8938 71.5013 95.3051 71.576 95.7239H71.5835L73.1393 94.9236L72.1445 99.7778C72.1669 100.07 72.1969 100.354 72.2117 100.646C72.2267 100.892 72.2417 101.147 72.2565 101.393C72.2565 101.438 72.264 101.476 72.264 101.521L73.9545 100.399L72.1294 107.512L72.1219 107.534V107.564C72.092 107.938 72.0622 108.297 72.0247 108.664L73.9545 107.856L71.8077 112.194V112.202L72.0844 112.718C72.2491 112.456 72.4136 112.194 72.5855 111.932L72.6005 111.91L75.1062 106.495L75.51 107.923C75.8242 107.549 76.1309 107.19 76.445 106.839L76.4524 106.831L78.2999 103.233L78.7935 104.408C79.0478 104.161 79.2946 103.929 79.5489 103.697L79.5564 103.69L81.2991 100.952L81.718 101.797C82.1594 101.431 82.5858 101.087 83.0045 100.758L84.3584 98.7158L84.68 99.4713C84.9717 99.2469 85.256 99.0374 85.5252 98.828L86.5274 97.7509L86.5722 98.0427C86.7518 97.9081 86.9163 97.7808 87.0734 97.6538C87.2379 97.5267 87.3876 97.4069 87.5297 97.2948C88.4273 96.5618 89.3247 95.7539 90.0055 95.1107C90.6188 94.5423 91.0676 94.0935 91.2172 93.9439C91.105 94.131 90.7833 94.7142 90.387 95.4922C89.9606 96.3074 89.452 97.3396 89.0032 98.3644C88.8611 98.6935 88.7041 99.06 88.547 99.4714V99.4789L88.8462 99.4266L88.0983 100.646L88.0908 100.661L88.0759 100.676C88.0759 100.683 88.0684 100.683 88.0684 100.691C87.9562 100.99 87.8365 101.304 87.7094 101.626C87.7019 101.633 87.7019 101.648 87.6945 101.655H87.7019L88.5321 101.738L86.9315 103.578L86.9165 103.593C86.7295 104.042 86.5351 104.498 86.3331 104.969C86.3107 105.014 86.2883 105.051 86.2734 105.096L87.2233 105.238L85.0541 107.654V107.662L85.0392 107.677C84.8822 107.976 84.725 108.283 84.5605 108.582H84.568L85.847 108.701L82.8551 111.484C82.8551 111.484 82.8551 111.491 82.8476 111.491C82.6682 111.783 82.4737 112.067 82.2717 112.359C82.2045 112.464 82.1296 112.568 82.0548 112.673H82.0623L83.5881 112.636L78.9881 116.555L78.9731 116.57L78.9656 116.578C78.8684 116.69 78.7711 116.802 78.6664 116.907C78.5691 117.019 78.472 117.124 78.3597 117.236V117.266L79.4292 117.453H79.4367L83.6103 114.558L83.2064 115.702C83.6178 115.523 84.0366 115.351 84.448 115.186L87.6268 113.144L87.4174 114.117C87.7241 114.012 88.0306 113.915 88.3299 113.825L88.3448 113.817L91.0076 112.359L90.9028 113.085C91.4189 112.95 91.9126 112.823 92.3913 112.703L94.4182 111.626L94.2836 112.262C94.6053 112.187 94.9269 112.112 95.226 112.045C95.2335 112.045 95.2335 112.045 95.241 112.045L95.2559 112.037L96.52 111.559L96.4078 111.776C96.505 111.753 96.6023 111.731 96.6996 111.708C96.7968 111.686 96.8939 111.663 96.9837 111.641C97.1633 111.596 97.3427 111.559 97.4998 111.514C99.4744 111.005 101.539 110.31 101.935 110.168C101.576 110.377 99.7288 111.514 98.0832 112.696C97.8067 112.89 97.515 113.114 97.1933 113.354Z" fill="#040000"/>
<path d="M66.5856 107.471C66.627 107.472 66.6144 107.47 66.557 107.467C66.6129 107.48 66.6255 107.482 66.5856 107.471Z" fill="black"/>
<path d="M133.164 61.0569L126.496 38.4676C126.371 38.0439 126.112 37.672 125.758 37.4074C125.404 37.1429 124.974 37 124.533 37H99.9673C99.5255 37 99.0956 37.1429 98.7417 37.4074C98.3878 37.672 98.129 38.0439 98.0039 38.4676L91.3361 61.057C90.7795 62.939 90.9176 64.9583 91.7254 66.7469C93.3723 70.373 95.949 73.4989 99.1941 75.8075C102.439 78.1161 106.237 79.5253 110.203 79.8921V90.2248H102.014C101.472 90.2248 100.951 90.4405 100.567 90.8244C100.183 91.2083 99.9673 91.729 99.9673 92.2719C99.9673 92.8149 100.183 93.3356 100.567 93.7195C100.951 94.1034 101.472 94.319 102.014 94.319H122.486C123.028 94.319 123.549 94.1034 123.933 93.7195C124.317 93.3356 124.533 92.8149 124.533 92.2719C124.533 91.729 124.317 91.2083 123.933 90.8244C123.549 90.4405 123.028 90.2248 122.486 90.2248H114.297V79.8921C118.263 79.5253 122.061 78.1161 125.306 75.8075C128.551 73.4988 131.128 70.3729 132.775 66.7468C133.582 64.9582 133.721 62.9389 133.164 61.0569ZM113.165 57.6872C106.466 54.3377 101.089 54.3398 97.3239 55.2336L101.497 41.0942H123.003L128.328 59.1365C125.571 60.2861 120.376 61.2924 113.165 57.6872Z" fill="black"/>
<path d="M84.9958 2.70587C50.8006 2.18633 18.1429 25.6605 7.41072 58.0787C-3.49116 88.4008 5.73644 124.524 29.8093 145.914C53.633 168.191 91.1956 173.785 120.436 159.239C150.483 145.237 169.872 111.74 166.856 78.6768C164.786 45.8387 140.907 15.8498 109.402 6.40374C101.52 3.94214 93.2474 2.69228 84.9958 2.70528V2.70587ZM84.9958 21.0548C113.928 20.5194 141.122 42.3175 147.157 70.57C151.568 89.2611 146.994 109.821 134.943 124.79C104.935 94.9495 74.9259 65.1123 44.9172 35.2721C56.1224 26.1187 70.5206 20.9939 84.9958 21.0548ZM35.1429 45.1232C65.1575 74.9693 95.1721 104.812 125.187 134.659C103.453 153.004 69.2966 153.719 46.8359 136.249C23.8948 119.666 14.8641 87.0733 25.855 61.0175C28.1623 55.3085 31.3053 49.9305 35.1429 45.1232Z" fill="#CC0000" stroke="#CC0000" stroke-width="0.208696"/>
</g>
<defs>
<clipPath id="clip0_2_48">
<rect width="170" height="170" fill="white"/>
</clipPath>
</defs>
</svg>
