<svg width="170" height="170" viewBox="0 0 170 170" fill="none" xmlns="http://www.w3.org/2000/svg">
<g clip-path="url(#clip0_1_54)">
<path d="M169.728 84.9987C169.728 107.469 160.801 129.019 144.912 144.908C129.024 160.797 107.474 169.723 85.0033 169.723C62.533 169.723 40.9831 160.797 25.0942 144.908C9.20528 129.019 0.278994 107.469 0.278994 84.9987C0.278993 73.8726 2.47045 62.8553 6.72825 52.5761C10.986 42.2969 17.2268 32.957 25.0942 25.0896C32.9615 17.2222 42.3015 10.9815 52.5807 6.72367C62.8599 2.46587 73.8771 0.274414 85.0033 0.274414C96.1294 0.274414 107.147 2.46587 117.426 6.72367C127.705 10.9815 137.045 17.2222 144.912 25.0896C152.78 32.957 159.021 42.2969 163.278 52.5761C167.536 62.8553 169.728 73.8726 169.728 84.9987V84.9987Z" fill="white" stroke="black" stroke-width="0.104348" stroke-linecap="square"/>
<path fill-rule="evenodd" clip-rule="evenodd" d="M75.8706 44.9821C75.8706 44.9821 68.1998 45.6403 62.1024 51.0361C61.2104 51.8243 53.4876 60.2457 52.4598 62.0963C51.2617 64.5387 50.9066 70.0702 50.9066 70.0702C48.8828 68.2543 47.6962 64.2875 47.6962 64.2875C47.6962 64.2875 45.7879 67.1457 44.8612 69.819C44.1106 71.993 42.3149 78.5349 44.4743 84.3609C45.6869 88.4576 50.7796 97.2283 50.7796 97.2283C48.3805 97.3987 43.0568 94.2692 43.0568 94.2692C43.0568 94.2692 43.7093 99.3416 44.0875 100.574C44.7342 102.691 48.06 106.025 48.8511 106.88C51.0019 109.218 57.7286 111.635 57.7286 111.635C57.7286 111.635 56.5738 111.669 54.5154 111.77C52.4569 111.871 57.5641 116.017 60.3067 116.326C63.0783 116.514 68.4106 117.816 69.9522 118.33C70.5585 118.532 73.9623 120.717 72.6603 123.734C72.6603 123.734 75.9053 122.181 76.3845 121.803C77.6952 120.775 78.9655 117.449 79.3437 116.661C80.1492 114.978 79.0925 109.325 79.0925 109.325C79.0925 109.325 78.4862 110.263 77.4238 111.77C76.3614 113.277 78.5093 108.104 79.0925 107.007C79.8836 105.517 83.5472 101.319 84.37 99.6736C85.1581 98.0944 86.5526 89.5056 86.5526 89.5056L85.0109 73.2921C83.9138 66.3315 80.3397 60.1649 78.8298 59.651L78.9655 66.346C78.9655 66.346 74.1124 62.691 72.9114 60.4276C71.7104 58.1642 69.4355 54.795 71.1157 51.677C71.1157 51.677 72.7151 47.0376 75.8706 44.9821ZM57.105 80.3104C58.4071 82.9867 58.7506 83.8932 59.5041 84.4244C60.6705 85.2501 63.2024 85.7958 63.2024 85.7958C61.6261 84.2887 61.834 82.9174 61.834 82.9174C63.2746 83.261 66.7563 85.1462 68.7628 86.4829C71.0262 87.9928 74.5974 89.8318 74.5974 92.7246V98.6257C75.5588 97.8029 76.5404 95.4095 76.7194 94.6473C77.2679 92.3146 76.5115 91.1858 76.448 88.8185C79.055 89.7106 80.6861 93.2183 80.9056 93.8274C81.8641 96.5008 81.2087 101.475 80.2906 102.468C79.4678 103.36 76.4971 107.665 75.9688 109.325C74.1875 112.48 74.9381 115.57 73.4975 117.625C73.4975 117.625 73.1077 114.755 69.447 112.483C66.9093 110.907 59.634 108.485 57.6478 107.342C53.1181 104.735 53.7388 99.0414 53.7388 99.0414C56.9636 101.579 58.7708 101.536 61.834 103.219C63.136 99.7198 61.3114 96.2294 59.0278 94.3038C57.7228 93.2067 55.9127 89.93 55.318 86.9592C54.9744 85.2443 56.2331 81.6904 57.105 80.3104Z" fill="black" stroke="black" stroke-width="0.101895"/>
<path fill-rule="evenodd" clip-rule="evenodd" d="M127.813 58.4088L87.0513 105.251C84.8745 108.233 81.6237 113.25 80.8442 116.735C80.8442 116.735 79.8078 122.287 76.8399 123.393C75.1857 123.54 69.2817 126.854 67.5178 128.97C66.7671 129.871 64.0591 134.635 66.4351 137.738C69.556 140.608 70.1623 140.374 71.7241 140.625C76.6234 141.416 78.8493 138.971 79.6548 137.865C82.1636 134.412 81.3061 128.774 82.0625 127.166C83.685 124.55 83.6648 125.361 86.1303 123.701C89.5514 121.744 93.0736 120.041 95.0368 118.277C96.9826 116.712 98.3222 114.506 99.835 112.702L139 66.5992L137.378 58.4896C134.087 58.3943 130.712 58.4203 127.813 58.4088ZM128.688 60.4037L134.147 60.4123L92.6896 109.012C89.8286 112.869 87.4468 114.986 84.1094 116.643C84.5454 112.921 86.1563 110.612 88.2148 107.531L128.688 60.4037ZM135.816 61.775L136.789 66.6021L98.2818 111.432C97.3493 112.517 96.5611 113.813 95.1522 115.274C94.6066 115.84 90.4839 119.027 87.8452 119.062C88.6247 115.121 92.1064 112.078 94.4853 109.021C94.4911 109.012 94.4969 109.004 94.5027 108.995L135.816 61.775Z" fill="black" stroke="black" stroke-width="0.101895"/>
<path d="M84.9982 2.70389C64.7371 2.70389 46.185 10.0799 31.8636 22.291C31.4851 22.6112 31.1156 22.934 30.7431 23.261C30.5952 23.3923 30.4474 23.5259 30.2996 23.6584C29.9832 23.9422 29.6698 24.2287 29.3582 24.5175C29.2751 24.5944 29.1918 24.671 29.109 24.7484C28.7394 25.0929 28.3722 25.4411 28.0095 25.7924C27.5932 26.195 27.179 26.6007 26.7713 27.0119C26.3712 27.4155 25.9712 27.8197 25.5795 28.2315C25.1733 28.659 24.7756 29.0983 24.3785 29.5341C24.333 29.585 24.2851 29.6323 24.2399 29.6826C23.8963 30.061 23.5599 30.4424 23.2234 30.8267C22.8562 31.2495 22.5015 31.6753 22.1425 32.1039C22.1286 32.1187 22.1103 32.1335 22.0964 32.1483C10.1246 46.4519 2.90737 64.8859 2.90737 85.005C2.90737 130.435 39.6806 167.297 84.9982 167.297C105.304 167.297 123.888 159.885 138.224 147.627L138.233 147.636C138.349 147.538 138.461 147.438 138.576 147.34C138.621 147.302 138.668 147.26 138.715 147.222C138.993 146.98 139.271 146.737 139.546 146.492C139.762 146.297 139.978 146.104 140.193 145.909C140.253 145.853 140.315 145.8 140.377 145.744C140.664 145.481 140.944 145.215 141.228 144.948C141.48 144.709 141.734 144.469 141.985 144.227C142.018 144.195 142.053 144.159 142.086 144.127C142.408 143.813 142.721 143.5 143.038 143.183C143.129 143.092 143.224 143 143.316 142.905C143.685 142.53 144.052 142.152 144.415 141.77C144.451 141.732 144.489 141.696 144.525 141.658C144.942 141.22 145.359 140.777 145.764 140.327C146.136 139.916 146.5 139.5 146.863 139.08C146.931 139.003 146.999 138.929 147.067 138.849C147.378 138.488 147.685 138.125 147.99 137.761C159.913 123.472 167.098 105.077 167.098 85.005C167.098 39.5751 130.316 2.70016 84.9982 2.70016V2.70389ZM84.9982 21.0528C120.213 21.0528 148.791 49.7041 148.791 85.005C148.791 100.039 143.614 113.867 134.943 124.788L44.9166 35.2704C55.8735 26.3828 69.8135 21.0516 84.9952 21.0516L84.9982 21.0528ZM35.1453 45.1215L125.189 134.657C114.215 143.597 100.227 148.957 84.9982 148.957C49.7801 148.957 21.2098 120.306 21.2098 85.005C21.2098 69.9267 26.4239 56.0577 35.1424 45.1186L35.1453 45.1215Z" fill="#CC0000" stroke="#CC0000" stroke-width="0.208696"/>
</g>
<defs>
<clipPath id="clip0_1_54">
<rect width="170" height="170" fill="white"/>
</clipPath>
</defs>
</svg>
