<svg width="170" height="170" viewBox="0 0 170 170" fill="none" xmlns="http://www.w3.org/2000/svg">
<g clip-path="url(#clip0_2_11)">
<path d="M169.725 85.0003C169.791 96.103 167.648 107.109 163.42 117.386C159.192 127.662 152.962 137.006 145.088 144.88C137.214 152.754 127.852 159.003 117.54 163.267C107.228 167.531 96.1697 169.726 85.0014 169.726C73.833 169.726 62.7748 167.531 52.4629 163.267C42.151 159.003 32.7889 152.754 24.915 144.88C17.0412 137.006 10.811 127.662 6.58277 117.386C2.35458 107.109 0.211841 96.103 0.277815 85.0003C0.211841 73.8976 2.35458 62.8915 6.58277 52.615C10.811 42.3386 17.0412 32.9946 24.915 25.1205C32.7889 17.2464 42.151 10.9976 52.4629 6.7336C62.7748 2.46957 73.833 0.274414 85.0014 0.274414C96.1697 0.274414 107.228 2.46957 117.54 6.7336C127.852 10.9976 137.214 17.2464 145.088 25.1205C152.962 32.9946 159.192 42.3386 163.42 52.615C167.648 62.8915 169.791 73.8976 169.725 85.0003V85.0003Z" fill="white" stroke="black" stroke-width="0.104348" stroke-linecap="square"/>
<path fill-rule="evenodd" clip-rule="evenodd" d="M75.0833 48.1667L74.8 47.8267H73.3833L72.8166 47.4867H72.25L71.9666 47.1467H71.6833L71.4 46.8067L71.1167 46.4666H70.8334L70.55 46.1267L70.2667 45.7867L69.9833 45.4467L69.6999 45.1067L69.4166 44.7667L69.1333 44.4267V44.0866L68.85 43.7467L68.5666 43.4067V42.3867L68.2833 42.0466V41.3667L68 41.0267V38.3067L68.2833 37.9666V36.9467L68.5666 36.6067V35.9267L68.85 35.5866L69.1333 35.2467V34.9067L69.4166 34.5667L69.6999 34.2267V33.8867L69.9833 33.5466L70.2667 33.2067H70.55L70.8334 32.8667L71.1167 32.5267H71.4L71.6833 32.1867H71.9666L72.25 31.8467H72.5333L72.8166 31.5066H73.6666L73.95 31.1667H76.2166L76.4999 31.5066H77.0666L77.3501 31.8467H77.6334L78.2 32.1867H78.4833L78.7667 32.5267H79.05L79.3333 32.8667L79.6166 33.2067L79.8999 33.5466L80.1833 33.8867L80.4666 34.2267L80.7499 34.5667V34.9067L81.0334 35.2467L81.3167 35.5866V35.9267L81.6 36.2667V36.9467L81.8833 37.6267V38.6467L82.1667 39.3267V40.0066L81.8833 40.3467V41.7067L81.6 42.0466V42.7267L81.3167 43.4067V43.7467L81.0334 44.0866L80.7499 44.4267V44.7667L80.4666 45.1067H80.1833L79.8999 45.4467L79.6166 45.7867V46.1267L79.3333 46.4666H79.05L78.7667 46.8067L78.4833 47.1467H78.2L77.6334 47.4867H77.0666L76.7833 47.8267H75.3667L75.0833 48.1667" fill="#0E1313"/>
<path d="M44.8663 81.4609H42.9164L42.5914 81.1438H41.9415L41.6166 80.8267H41.2916V80.5096H40.9666V80.1926H40.6415V79.8754L40.3166 79.5583V79.2413H39.9916V78.9242V78.6071L39.6667 78.29V77.6558V77.3387V76.7046V76.0704H39.9916V75.7533V75.4362H40.3166V75.1191L40.6415 74.8021L40.9666 74.485V74.1679H41.2916V73.8508H41.9415V73.5337H42.9164L61.1148 68.4603L68.9139 51.9717L69.239 51.6546V51.0205H69.564V50.7034L69.8889 50.3863H70.2139V50.0692H70.8638V49.7521H71.5137V49.435H72.1636L80.2879 48.1667H82.2378V48.4838H82.8877L102.061 55.4597L102.386 55.7768H102.711L103.036 56.0938L103.361 56.411H103.686V56.7281H104.011V57.0452L104.336 57.3622V57.6793L104.661 57.9964V58.6306L108.235 78.9242V79.2413V79.8754V80.5096V81.1438H107.91V81.4609V81.7779H107.585V82.0951L107.26 82.4122L106.935 82.7293L106.61 83.0463H106.286V83.3634H105.635L105.311 83.6805H102.711V83.3634H102.061L101.736 83.0463L101.411 82.7293H101.086V82.4122L100.761 82.0951L100.436 81.7779V81.4609L100.111 81.1438V80.8267V80.1926L96.8613 62.4357L87.7622 59.2648L91.6618 83.9975L102.386 102.389L124.484 97.6323H124.809L125.134 97.3153H125.784L126.109 97.6323H127.409V97.9495H128.058V98.2666H128.383V98.5836H128.708L129.033 98.9007L129.358 99.2178L129.683 99.5349V99.8519L130.008 100.169V100.486L130.333 100.803V102.072V103.023V103.657L130.008 103.974V104.608H129.683V104.925L129.358 105.242V105.56H129.033V105.877H128.708V106.194H128.058V106.511H127.733L127.409 106.828H126.759V107.145L100.761 112.853H98.4863L98.1613 112.535H97.5112V112.218H97.1863L96.8613 111.901H96.5364V111.584H96.2114V111.267H95.8864V110.95H95.5615V110.633L95.2365 110.316L84.1875 90.6564L80.2879 91.2906L65.9893 107.779L73.7886 129.658V129.975L74.1135 130.292V130.927V131.878V132.195L73.7886 132.512V133.146H73.4636V133.78H73.1385V134.097L72.8135 134.415L72.4886 134.732L72.1636 135.049H71.8387L71.5137 135.366L71.1888 135.683H70.5388L70.2139 136H67.939V135.683H67.2891L66.9642 135.366H66.6392L66.3142 135.049H65.9893V134.732H65.6643V134.415H65.3394V134.097H65.0143V133.78H64.6893V133.146L64.3643 132.829L55.5902 108.413V108.096V107.779V107.462V107.145V106.828V106.511V106.194V105.877V105.56V105.242H55.9151V104.925V104.608H56.2401V104.291V103.974H56.5651V103.657L74.1135 83.0463L71.5137 66.2407L67.939 73.5337V73.8508L67.6141 74.1679V74.485L67.2891 74.8021L66.9642 75.1191L66.6392 75.4362H66.3142V75.7533H65.6643L65.3394 76.0704L44.8663 81.4609" fill="#0E1313"/>
<path d="M84.9958 2.70587C50.8007 2.18633 18.1429 25.6605 7.41077 58.0787C-3.49111 88.4008 5.73649 124.524 29.8094 145.914C53.633 168.191 91.1956 173.785 120.436 159.239C150.483 145.237 169.872 111.74 166.856 78.6768C164.786 45.8387 140.907 15.8498 109.402 6.40374C101.52 3.94214 93.2475 2.69228 84.9958 2.70528V2.70587ZM84.9958 21.0548C113.928 20.5194 141.122 42.3175 147.157 70.57C151.568 89.2611 146.994 109.821 134.943 124.79C104.935 94.9495 74.9259 65.1123 44.9172 35.2721C56.1224 26.1187 70.5207 20.9939 84.9958 21.0548ZM35.1429 45.1232C65.1575 74.9693 95.1722 104.812 125.187 134.659C103.453 153.004 69.2967 153.719 46.836 136.249C23.8949 119.666 14.8642 87.0733 25.855 61.0175C28.1623 55.3085 31.3054 49.9305 35.1429 45.1232Z" fill="#CC0000" stroke="#CC0000" stroke-width="0.208696"/>
</g>
<defs>
<clipPath id="clip0_2_11">
<rect width="170" height="170" fill="white"/>
</clipPath>
</defs>
</svg>
