<svg width="170" height="170" viewBox="0 0 170 170" fill="none" xmlns="http://www.w3.org/2000/svg">
<g clip-path="url(#clip0_1_48)">
<path d="M169.726 84.9999C169.726 131.793 131.794 169.725 85.0014 169.725C38.2086 169.725 0.276413 131.793 0.276413 84.9999C0.276413 38.207 38.2086 0.274872 85.0014 0.274872C131.794 0.274872 169.726 38.207 169.726 84.9999V84.9999Z" fill="white" stroke="black" stroke-width="0.0521739" stroke-linecap="square"/>
<path d="M126.547 88.2223C127.485 89.3056 134 98.906 134 99.2015L80.7739 135.216C79.5698 134.039 79.148 133.263 78.1126 131.809L128.144 98.0218L125.307 94.0994L75.721 127.703L73.1197 124.288L126.547 88.2223ZM69.1052 125.331C66.3305 120.792 66.763 115.332 69.9274 112.266C74.2459 108.078 72.7536 103.663 65.0801 105.171C57.3188 106.265 54.6892 97.2125 60.7359 93.046C64.1894 90.8172 63.5792 89.7467 62.9112 86.5608L65.5683 85C67.9255 91.8749 65.2599 93.5877 63.5835 94.8488C58.1902 98.7953 60.3724 102.593 66.399 101.991C75.4663 100.836 77.4955 108.499 72.5373 113.936C68.4715 118.651 70.7581 121.575 71.6531 123.93L69.1052 125.331ZM62.1447 116.76C63.8147 110.087 64.2085 108.138 58.6763 109.219C48.1317 111.157 47.0611 101.522 51.3775 98.0689C55.6253 95.0993 54.2822 93.5853 53.8947 92.5386L56.4639 91.1191C58.3615 94.9901 56.6952 97.2403 53.9525 99.7539C50.2721 103.058 51.9785 107.522 57.5317 106.33C68.8406 104.734 66.2388 112.218 65.4317 116.022C64.4085 121.521 65.2591 122.342 67.7127 126.642C67.6121 126.694 65.7408 127.73 65.1777 128.158C61.2718 122.32 61.7328 118.347 62.1439 116.759L62.1447 116.76ZM69.6041 126.692L72.3339 124.928L79.5321 135.719L76.89 137.633L69.6041 126.692ZM65.5297 129.444L68.2981 127.545L75.584 138.395L72.9184 140.222L65.5297 129.444Z" fill="black" stroke="black" stroke-width="0.104348"/>
<g clip-path="url(#clip1_1_48)">
<path d="M69.7078 62.0869C73.4863 58.8792 73.1112 59.6163 71.4 56.8302C71.4 56.8302 71.4747 56.8837 70.1925 55.1138L70.2032 55.105L70.2254 55.131L68.1792 52.0731C68.1594 52.0489 65.4916 48.5607 64.5381 47.4201C64.1825 46.9922 63.6571 46.3658 63.6492 46.3723L63.6475 46.3737C63.0813 45.8973 62.1569 45.7137 61.366 46.3606L31.222 71.0143C30.3139 71.7569 30.4187 72.8673 31.0588 74.1692C31.6975 75.4705 32.8966 77.951 33.386 78.8652C33.8736 79.7808 34.158 80.0217 35.4375 80.7924C36.7163 81.5645 39.9312 82.7957 39.9312 82.7957C43.5733 84.446 43.5153 83.5088 47.174 80.5165L69.7078 62.0869ZM61.8924 51.5729C62.8409 52.7326 62.2985 53.9879 61.1388 54.9364C59.9791 55.8849 58.6406 56.1679 57.6921 55.0082C56.8965 54.0354 57.1678 52.8185 58.328 51.8696C59.4872 50.9216 61.0438 50.5354 61.8924 51.5729ZM37.6043 67.5635C38.2416 67.0423 38.9482 66.8505 39.4694 67.4878C39.9906 68.1251 39.7048 68.8314 39.0676 69.3526C38.4309 69.8734 37.6825 70.0129 37.1613 69.3756C36.64 68.7383 36.9676 68.0843 37.6043 67.5635ZM35.742 74.8338C35.4948 75.0359 35.2133 75.1018 35.0443 74.8952C35.0176 74.8625 35.0233 74.8569 35.0075 74.8191L33.677 72.4583C33.55 72.3019 33.5682 71.914 33.8159 71.7114L34.2325 71.3707C34.4802 71.1681 34.8856 71.2537 35.055 71.4609C35.0836 71.4958 36.3335 73.7891 36.3335 73.7891C36.5029 73.9963 36.4068 74.29 36.1591 74.4926L35.742 74.8338ZM39.1118 72.7129C38.5911 72.0761 38.9181 71.4225 39.5559 70.9009C40.1932 70.3797 40.8987 70.1888 41.4194 70.8256C41.9406 71.4628 41.6564 72.1688 41.0191 72.69C40.3813 73.2117 39.6335 73.3507 39.1118 72.7129ZM45.106 69.8088C44.5713 70.1992 43.8356 70.1291 43.4111 69.61C43.4028 69.5999 43.3341 69.5124 43.3258 69.5022L40.8492 65.4781C40.5637 64.9327 40.7515 64.3845 41.2041 64.004L52.2372 55.0312C52.7374 54.6869 53.1695 54.9545 53.553 55.4235L53.5609 55.4331C53.5609 55.4331 56.1459 59.1073 56.1487 59.1107C56.5879 59.6478 56.6506 60.3171 56.1141 60.7559C56.0218 60.8314 45.022 69.8484 45.022 69.8484L45.106 69.8088Z" fill="black"/>
<path d="M67.4488 45.8118C66.8933 45.1406 66.6374 44.8679 66.1493 44.3275L63.96 46.1181C63.9678 46.1117 64.5002 46.7465 64.854 47.1711C65.8148 48.3217 68.4702 51.7937 68.4972 51.8289L70.5151 54.8499L72.4129 53.2978C72.4241 53.2886 70.9798 50.0832 67.4488 45.8118ZM69.2468 50.8156C69.0732 50.9238 68.8498 50.8838 68.7236 50.7296C68.713 50.7166 68.7021 50.7021 68.6932 50.6878C67.5243 48.8139 65.4058 46.3938 65.385 46.3694C65.2436 46.1976 65.2551 45.9486 65.4222 45.8026C65.5888 45.656 65.843 45.6726 65.9896 45.8393C66.0782 45.9407 68.1715 48.3325 69.3757 50.262C69.4928 50.45 69.4354 50.698 69.2468 50.8156Z" fill="black"/>
<path d="M81.1219 35.8636C81.5949 36.4041 82.2928 37.2126 83.0378 38.1235C83.6455 38.8666 84.2658 39.6549 84.6951 40.2405C84.6996 40.2369 84.7989 40.3492 84.8029 40.3459L90.1257 35.9926C90.7185 35.5077 90.561 34.7064 90.2156 33.9141C90.2156 33.9141 89.7319 33.0056 89.4137 32.6166C88.8727 31.9551 88.373 31.6611 88.373 31.6611C87.6714 31.2042 87.0351 31.004 86.4423 31.4888L81.1194 35.8422C81.1155 35.8454 81.1115 35.8486 81.1076 35.8519L81.1219 35.8636Z" fill="black"/>
<path d="M85.122 42.1951C85.0606 41.8018 85.0516 41.5105 84.4672 40.6317C84.4699 40.6258 83.0072 38.6605 82.5596 38.1293C81.6516 37.0512 80.8308 36.1544 80.8308 36.1544C79.6448 34.8375 79.3503 34.7796 78.8957 34.6121C78.2752 34.383 77.8996 34.7175 77.8996 34.7175L66.4612 44.0725C66.9498 44.6124 67.2193 44.904 67.7587 45.5555C70.9923 49.4576 72.3938 52.3739 72.7338 53.0354L83.152 44.5147L84.806 43.162C84.806 43.162 85.223 42.8482 85.122 42.1951ZM69.0147 43.8631C68.8858 43.9686 68.6558 43.9011 68.5508 43.7727C68.4454 43.6438 68.4253 43.4056 68.5543 43.3002L73.2212 39.4832C73.3502 39.3778 73.5796 39.4447 73.6851 39.5736C73.7901 39.702 73.8106 39.9408 73.6817 40.0462L69.0147 43.8631ZM72.5422 48.4944C72.3277 48.6698 72.0989 48.7451 71.9235 48.5306C71.7476 48.3156 71.8673 48.1069 72.0817 47.9314L76.9047 43.987C77.1192 43.8115 77.348 43.7352 77.5239 43.9503C77.6993 44.1648 77.5796 44.3745 77.3651 44.5499L72.5422 48.4944ZM73.1523 49.8745C72.98 50.0154 72.7516 50.0199 72.6107 49.8476C72.4698 49.6754 72.5196 49.4524 72.6918 49.3115L77.5142 45.3675C77.6859 45.2271 77.9149 45.2221 78.0557 45.3944C78.1966 45.5666 78.1463 45.79 77.9746 45.9305L73.1523 49.8745ZM73.7618 51.2551C73.6329 51.3605 73.404 51.2931 73.2985 51.1642C73.1935 51.0358 73.173 50.7971 73.3014 50.6921L77.9689 46.8747C78.0979 46.7692 78.3278 46.8367 78.4328 46.9651C78.5382 47.094 78.5588 47.3317 78.4294 47.4376L73.7618 51.2551Z" fill="black"/>
</g>
<path d="M85.4307 3.14215C58.9314 3.10903 38.2476 12.9578 22.5751 32.5418C22.5612 32.5566 22.5428 32.5714 22.5289 32.5861C10.5562 46.8898 3.33934 65.3237 3.33934 85.4428C3.33934 130.873 40.1126 167.735 85.4301 167.735C105.736 167.735 124.32 160.323 138.656 148.065L138.665 148.074C138.781 147.976 138.896 147.879 139.008 147.778C139.056 147.74 139.1 147.698 139.147 147.66C139.425 147.417 139.703 147.175 139.978 146.93C140.197 146.734 140.41 146.542 140.625 146.347C140.688 146.291 140.75 146.238 140.809 146.182C141.096 145.918 141.376 145.652 141.66 145.386C141.914 145.147 142.166 144.907 142.417 144.665C142.453 144.632 142.485 144.597 142.521 144.564C142.84 144.251 143.153 143.938 143.47 143.621C143.564 143.53 143.656 143.438 143.748 143.343C144.117 142.971 144.484 142.589 144.847 142.208C144.883 142.17 144.921 142.134 144.96 142.096C145.374 141.658 145.79 141.215 146.196 140.765C146.568 140.354 146.932 139.937 147.295 139.521C147.363 139.441 147.431 139.367 147.499 139.287C147.81 138.926 148.117 138.563 148.422 138.199C160.345 123.91 167.53 105.515 167.53 85.4428C167.53 40.0129 130.748 3.13919 85.4301 3.13919L85.4307 3.14215ZM85.4307 21.4903C120.646 21.4903 149.227 50.142 149.227 85.4428C149.227 100.477 144.047 114.304 135.378 125.226L45.3521 35.7082C56.306 26.8209 70.249 21.4903 85.4307 21.4903V21.4903ZM35.5778 45.5594L125.622 135.095C114.647 144.035 100.663 149.395 85.4307 149.395C50.2156 149.395 21.6438 120.744 21.6438 85.4428C21.6438 70.3646 26.8579 56.4955 35.5778 45.5564V45.5594Z" fill="#CC0000" stroke="#CC0000" stroke-width="0.208696"/>
</g>
<defs>
<clipPath id="clip0_1_48">
<rect width="170" height="170" fill="white"/>
</clipPath>
<clipPath id="clip1_1_48">
<rect width="24.7273" height="100" fill="white" transform="translate(85.4078 22) rotate(50.7215)"/>
</clipPath>
</defs>
</svg>
