<svg width="170" height="170" viewBox="0 0 170 170" fill="none" xmlns="http://www.w3.org/2000/svg">
<g clip-path="url(#clip0_1_36)">
<path d="M84.999 1.02441C131.377 1.02441 168.974 38.6211 168.975 84.999C168.975 131.377 131.377 168.975 84.999 168.975C38.6211 168.974 1.02441 131.377 1.02441 84.999C1.0246 38.6212 38.6212 1.0246 84.999 1.02441Z" fill="white" stroke="black" stroke-width="2.04877"/>
<path d="M77.9051 167.76C77.818 167.677 76.6322 167.495 75.2763 167.354C60.5279 165.795 44.378 158.958 32.5486 149.259C29.0105 146.361 22.0149 139.18 19.4284 135.792C10.1809 123.685 4.40637 109.662 2.60969 94.951C2.19906 91.5884 2.17975 79.5558 2.57872 75.6707C4.10614 60.8062 11.0052 44.4241 20.7399 32.5491C23.6398 29.011 30.8208 22.0154 34.2071 19.4289C46.1443 10.3112 61.6184 4.00986 75.5624 2.58804C79.4558 2.19082 91.053 2.19235 94.5857 2.59057C108.812 4.19333 123.921 10.3684 135.792 19.4277C139.536 22.2841 146.962 29.6338 149.885 33.3783C153.812 38.4012 156.913 43.3763 159.637 49.0141C163.456 56.9252 165.309 63.1032 167.32 74.6341C167.768 77.2131 167.888 90.9208 167.486 94.1218C165.537 109.72 159.927 123.54 150.569 135.792C147.882 139.308 140.917 146.419 137.243 149.384C125.422 158.937 113.07 164.286 95.7798 167.329C94.1918 167.611 78.1663 167.997 77.9051 167.76ZM105.068 147.825C108.239 147.273 110.993 146.66 111.192 146.461C111.399 146.253 110.478 139.288 109.073 130.373C107.709 121.724 105.08 105.035 103.231 93.2925L99.8722 71.939L100.523 57.8416C100.884 50.088 101.178 43.5111 101.174 43.2258C101.158 41.1817 102.601 44.7765 107.642 59.3425C110.848 68.6054 113.655 76.077 113.974 76.2014C114.716 76.4875 123.266 74.2775 123.618 73.7095C123.888 73.2741 122.325 68.4976 114.434 45.61C112.116 38.8826 109.836 32.1917 109.371 30.7409C107.671 25.4394 104.939 23.6295 98.0603 23.2584L93.5035 23.0126L92.7779 21.4685C92.3798 20.6193 91.6294 19.6623 91.1152 19.3422C89.9294 18.6021 87.8065 18.2066 87.1596 18.605C86.7865 18.8364 86.6372 25.4046 86.5584 45.4234L86.4506 71.939H85.2067H83.9628L83.855 45.5187C83.7514 19.5939 83.7348 19.091 82.9221 18.6564C82.3416 18.3467 81.6119 18.3426 80.5007 18.6415C78.7717 19.1072 77.959 19.8473 77.0675 21.7687L76.4912 23.0126L71.9344 23.2584C64.8484 23.6411 62.3937 25.3859 60.3994 31.4594C59.8272 33.1992 57.1777 40.9661 54.5116 48.7197C47.0399 70.4422 46.2812 72.7932 46.5299 73.44C46.816 74.1905 55.8633 76.5829 56.3567 76.0439C56.5433 75.8366 58.9813 69.049 61.7718 60.9513C67.6678 43.8602 67.9 43.2598 68.3769 43.7731C68.5717 43.9846 69.1895 50.2207 69.7534 57.6343L70.7734 71.1098L64.6949 108.543C60.3952 135.046 58.7533 146.087 59.0725 146.353C59.3213 146.56 62.3771 147.232 65.8683 147.846C71.2503 148.795 72.291 148.878 72.7346 148.389C73.0249 148.074 75.8278 134.66 78.9707 118.585C82.1136 102.506 84.846 89.1794 85.0409 88.9679C85.2399 88.7523 85.4804 88.6611 85.5799 88.7606C85.6794 88.8601 88.2128 102.095 91.2106 118.17C94.2042 134.25 96.8288 147.825 97.0403 148.343C97.3347 149.052 97.6581 149.23 98.3671 149.056C98.8813 148.932 101.9 148.376 105.068 147.825ZM90.8747 41.1104C90.5638 40.9076 90.3813 40.2314 90.4601 39.5526L90.5969 38.3539H94.1213H97.6457V39.8051V41.2563L94.5359 41.3625C92.8235 41.4213 91.1774 41.3077 90.8747 41.1104Z" fill="#004488"/>
</g>
<defs>
<clipPath id="clip0_1_36">
<rect width="170" height="170" fill="white"/>
</clipPath>
</defs>
</svg>
