<svg width="170" height="170" viewBox="0 0 170 170" fill="none" xmlns="http://www.w3.org/2000/svg">
<g clip-path="url(#clip0_1_44)">
<path d="M85 1.02441C131.378 1.02441 168.976 38.6215 168.976 85C168.976 131.378 131.378 168.976 85 168.976C38.6215 168.976 1.02441 131.378 1.02441 85C1.02445 38.6216 38.6216 1.02445 85 1.02441Z" fill="white" stroke="black" stroke-width="2.04878"/>
<path d="M77.9309 167.788C77.8273 167.692 76.6331 167.498 75.2773 167.357C60.7236 165.818 45.8009 159.599 33.3784 149.888C29.6339 146.965 22.2841 139.539 19.4277 135.795C10.2049 123.712 4.40071 109.615 2.61003 94.9531C2.19707 91.5738 2.18097 79.5536 2.58412 75.6063C4.00598 61.6911 10.3521 46.0926 19.4289 34.2092C22.2762 30.4816 29.1886 23.4992 33.1711 20.328C45.3572 10.6235 61.0139 4.07308 75.5634 2.58936C79.4527 2.19289 91.0624 2.19333 94.5371 2.5901C118.772 5.35783 141.03 19.2147 154.642 40.0141C161.256 50.1228 166.19 64.0338 167.422 76.0624C167.82 79.9433 167.803 91.1053 167.397 94.7458C165.701 109.897 158.793 125.906 148.784 137.868C140.843 147.363 131.871 154.387 120.987 159.636C113.229 163.376 106.172 165.532 95.781 167.328C94.0561 167.626 78.2046 168.032 77.9309 167.788ZM83.259 135.09C83.8146 134.534 83.9224 131.516 83.4166 130.719C83.1678 130.326 78.4824 130.18 63.2114 130.098L43.3297 129.99V125.843V121.697L62.9875 121.589C76.6622 121.515 82.8153 121.34 83.2009 121.021C83.5368 120.739 83.7566 119.694 83.7566 118.363C83.7566 114.503 85.8131 114.856 63.1741 114.856H43.0942L43.2119 110.398L43.3297 105.941L49.1346 105.734L54.9394 105.526L55.0473 69.3992C55.1302 41.1713 55.2629 33.1838 55.6692 32.8736C56.1419 32.5092 62.2743 30.9066 63.2321 30.8962C63.5058 30.8938 63.7173 43.7416 63.8541 68.2092L64.0614 105.526H73.598H83.1346L83.2507 86.8677L83.3627 68.2092L74.7673 48.825C67.4407 32.3135 66.0434 29.4434 65.3219 29.4583C64.8575 29.4678 61.6773 30.1909 58.2565 31.0646L52.037 32.6539L51.7177 37.3703C50.5858 54.0328 48.3924 62.7816 43.5743 69.8677L41.8805 72.3555L41.8793 103.474C41.8789 127.125 41.9979 134.712 42.376 135.09C42.7492 135.463 47.8575 135.587 62.8175 135.587C77.7775 135.587 82.8858 135.463 83.259 135.09ZM127.053 135.334C127.641 135.11 127.708 131.909 127.708 103.412V71.7419L126.207 69.7765C121.617 63.7602 118.171 49.7372 118.171 37.0614C118.171 34.5247 118.001 33.1398 117.653 32.8674C116.936 32.3052 105.106 29.3397 104.26 29.5101C103.796 29.603 100.748 35.9606 94.9019 49.0323L86.2361 68.4165L86.3439 86.9714L86.4517 105.526H95.9883H105.525L105.633 68.4331C105.691 48.0331 105.877 31.2031 106.047 31.031C106.371 30.708 112.383 32.1016 113.693 32.8036C114.394 33.178 114.44 35.1425 114.539 69.3619L114.647 105.526L120.659 105.734L126.671 105.941V110.295V114.648L106.561 114.856L86.4517 115.063V118.173V121.282L106.561 121.49L126.671 121.697V125.843V129.99L106.561 130.197L86.4517 130.404L86.3231 132.424C86.2527 133.535 86.2941 134.704 86.4144 135.015C86.5968 135.492 90.0134 135.587 106.516 135.587C117.45 135.587 126.692 135.475 127.053 135.334ZM91.2075 50.7655C98.1983 35.854 98.4471 35.2868 98.1817 35.0202C98.0614 34.9012 96.4941 35.2263 94.6946 35.7429C91.929 36.5386 90.4446 36.682 85.0005 36.6808C80.2073 36.6796 77.9392 36.5 76.0858 35.9743C74.7175 35.5866 73.1502 35.1417 72.6029 34.9858C71.7073 34.7308 71.6368 34.8038 71.8648 35.7242C72.0058 36.2865 73.3161 39.254 74.7756 42.319C76.2351 45.3836 77.8065 48.7338 78.2751 49.758C82.0317 58.0175 84.6439 63.076 85.0792 62.9309C85.357 62.8397 88.1144 57.3624 91.2075 50.7655Z" fill="#004488"/>
</g>
<defs>
<clipPath id="clip0_1_44">
<rect width="170" height="170" fill="white"/>
</clipPath>
</defs>
</svg>
